<svg width="464" height="224" fill="none" xmlns="http://www.w3.org/2000/svg"><rect x="32" y="32" width="60" height="10" rx="5" fill="url(#a)"/><rect x="32" y="32" width="60" height="10" rx="5" fill="url(#b)"/><rect x="112" y="32" width="320" height="10" rx="5" fill="#333"/><rect x="172" y="60" width="150" height="10" rx="5" fill="#333"/><rect x="72" y="60" width="80" height="10" rx="5" fill="#333"/><rect x="72" y="154" width="180" height="10" rx="5" fill="#333"/><rect x="272" y="154" width="140" height="10" rx="5" fill="#333"/><rect x="32" y="182" width="80" height="10" rx="5" fill="#333"/><rect x="132" y="182" width="180" height="10" rx="5" fill="#333"/><rect x="72.5" y="88.5" width="164" height="47" rx="23.5" fill="#0D0D0D"/><path d="M93.82 111v10h1.86v-4.92c0-2.04 1.4-3.6 3.36-3.6 1.66 0 1.9 1.24 1.9 2.62v5.9h1.86v-6.28c0-2.5-.96-3.96-3.42-3.96-2.12 0-3.44 1.5-3.82 2.4h-.04c.02-.04.08-.34.08-.76l-.04-1.4h-1.74Zm16.624-.24c-2.96 0-5.14 2.22-5.14 5.24s2.18 5.24 5.14 5.24c2.98 0 5.16-2.22 5.16-5.24s-2.18-5.24-5.16-5.24Zm0 8.86c-1.92 0-3.34-1.5-3.34-3.62s1.42-3.62 3.34-3.62c1.94 0 3.36 1.5 3.36 3.62s-1.42 3.62-3.36 3.62ZM124.53 111c-1.02 2.44-2.12 5.06-3 7.3-.88-2.24-1.98-4.86-3-7.3h-1.98l4.48 10.24h1l4.48-10.24h-1.98Zm12.343 10v-10h-1.86v4.92c0 2.04-1.36 3.6-3.26 3.6-1.66 0-1.9-1.24-1.9-2.62V111h-1.86v6.28c0 2.5.96 3.96 3.42 3.96 2.06 0 3.34-1.5 3.72-2.4h.04c0 .04-.08.34-.08.76l.04 1.4h1.74Zm2.726-.88c0 .66.46 1.12 1.16 1.12.68 0 1.16-.46 1.16-1.12 0-.68-.48-1.14-1.16-1.14-.7 0-1.16.46-1.16 1.14Zm3.581-9.12v1.52h1.64v5.74c0 2.24 1.52 2.98 2.96 2.98.98 0 1.8-.22 2.24-.46v-1.62c-.56.26-1.26.44-1.88.44-.84 0-1.48-.48-1.48-1.9v-5.18h3.02V111h-3.02v-3h-1.82v3h-1.66Zm8.762 10h1.86v-4.36c0-1.94 1.12-4.08 3.06-4.08.26 0 .44.04.52.06v-1.8a2.87 2.87 0 0 0-.6-.06c-1.44 0-2.5.96-3.08 2.38h-.02c-.02-.06.04-.36.02-.74l-.02-1.4h-1.74v10Zm7.737-10v10h1.86v-10h-1.86Zm-.24-2.9c0 .66.46 1.12 1.16 1.12.68 0 1.16-.46 1.16-1.12 0-.68-.48-1.14-1.16-1.14-.7 0-1.16.46-1.16 1.14Zm7.768 10.48c0-.38.72-.72 1.62-.8h.02c2.1-.12 3.66-1.52 3.66-3.48 0-.8-.34-1.5-.88-2l.12.02s.3.08.56.08h1.38V111h-3.64c-.46-.16-1.02-.24-1.58-.24-2.28 0-4.06 1.44-4.06 3.54 0 1.52.94 2.72 2.36 3.24-.86.28-1.38.82-1.38 1.4 0 .68.58 1.16 1.54 1.28-1.54.3-2.76 1.28-2.76 2.46 0 1.78 1.86 2.7 4.58 2.7 2.84 0 4.8-1.16 4.8-3.08 0-1.82-1.44-2.58-3.98-2.86-1.72-.2-2.36-.36-2.36-.86Zm1.26-2.1c-1.36 0-2.32-.9-2.32-2.14 0-1.24.96-2.16 2.32-2.16 1.4 0 2.34.92 2.34 2.16 0 1.24-.94 2.14-2.34 2.14Zm.3 7.58c-1.64 0-2.8-.54-2.8-1.6 0-.9 1.1-1.68 2.66-1.68 2.26 0 3.06.72 3.06 1.64 0 .98-1.12 1.64-2.92 1.64Zm9.241-5.48c0-.38.72-.72 1.62-.8h.02c2.1-.12 3.66-1.52 3.66-3.48 0-.8-.34-1.5-.88-2l.12.02s.3.08.56.08h1.38V111h-3.64c-.46-.16-1.02-.24-1.58-.24-2.28 0-4.06 1.44-4.06 3.54 0 1.52.94 2.72 2.36 3.24-.86.28-1.38.82-1.38 1.4 0 .68.58 1.16 1.54 1.28-1.54.3-2.76 1.28-2.76 2.46 0 1.78 1.86 2.7 4.58 2.7 2.84 0 4.8-1.16 4.8-3.08 0-1.82-1.44-2.58-3.98-2.86-1.72-.2-2.36-.36-2.36-.86Zm1.26-2.1c-1.36 0-2.32-.9-2.32-2.14 0-1.24.96-2.16 2.32-2.16 1.4 0 2.34.92 2.34 2.16 0 1.24-.94 2.14-2.34 2.14Zm.3 7.58c-1.64 0-2.8-.54-2.8-1.6 0-.9 1.1-1.68 2.66-1.68 2.26 0 3.06.72 3.06 1.64 0 .98-1.12 1.64-2.92 1.64Zm11.183-13.3c-2.76 0-4.9 2.22-4.9 5.24 0 3.1 2.14 5.24 5.3 5.24 1.62 0 2.96-.42 3.74-.86v-1.7c-.84.54-2.26.94-3.62.94-2.1 0-3.42-1.24-3.48-3.2v-.02h7.44c0-.2.04-.58.04-.98 0-2.46-1.58-4.66-4.52-4.66Zm2.68 4.32h-5.62c.16-1.44 1.2-2.76 2.92-2.76 1.78 0 2.72 1.32 2.7 2.76Zm4.448 5.92h1.86v-4.36c0-1.94 1.12-4.08 3.06-4.08.26 0 .44.04.52.06v-1.8a2.87 2.87 0 0 0-.6-.06c-1.44 0-2.5.96-3.08 2.38h-.02c-.02-.06.04-.36.02-.74l-.02-1.4h-1.74v10Zm9.518 1.34h1.94c-1.44-2.42-2.26-5.52-2.26-8.54 0-3.02.82-6.12 2.26-8.54h-1.94c-1.4 2.32-2.2 5.34-2.2 8.54 0 3.2.8 6.22 2.2 8.54Zm5.676-17.08h-1.94c1.44 2.42 2.26 5.52 2.26 8.54 0 3.02-.82 6.12-2.26 8.54h1.94c1.4-2.32 2.2-5.34 2.2-8.54 0-3.2-.8-6.22-2.2-8.54Z" fill="#FFE14D"/><rect x="72.5" y="88.5" width="164" height="47" rx="23.5" stroke="#fff" stroke-dasharray="3 3"/><rect x="228" y="88" width="124" height="48" rx="24" fill="#fff"/><path d="M273.069 99.931a.407.407 0 0 0-.426-.094l-23.563 8.531a.407.407 0 0 0-.037.748l8.485 4.073 7.664-5.665c.188-.139.423.097.284.284l-5.665 7.664 4.073 8.485c.068.141.211.23.366.23h.02a.407.407 0 0 0 .362-.267l8.532-23.563a.409.409 0 0 0-.095-.425ZM289.1 121.26c3.22 0 5.14-1.52 5.14-4.04 0-2.28-1.44-3.4-4.08-4.38-2.2-.8-2.96-1.48-2.96-2.5 0-1.1 1.1-1.78 2.74-1.78 1.3 0 2.68.4 3.5.86v-2.36c-.86-.36-2.24-.72-3.68-.72-2.92 0-5.02 1.52-5.02 4.04 0 2.34 1.4 3.46 4.04 4.4 2.2.78 3.02 1.4 3.02 2.54 0 .78-.62 1.3-1.64 1.54-.42.12-.92.16-1.44.16-1.44-.04-2.82-.52-3.84-1.04v2.46c1 .42 2.56.82 4.22.82Zm11.559-10.52c-2.82 0-5 2.24-5 5.26 0 3.08 2.14 5.26 5.46 5.26 1.68 0 3.02-.4 3.72-.78v-2.14c-.68.42-2.14.84-3.54.84-1.84 0-3.04-1-3.1-2.68h6.98c0-.18.06-.62.06-1.08 0-2.48-1.58-4.68-4.58-4.68Zm2.22 4.34h-4.68c.12-1.26.98-2.38 2.42-2.38 1.5 0 2.28 1.12 2.26 2.38Zm4.713-4.08v10h2.44v-4.96c0-1.76 1.18-3.08 2.84-3.08 1.36 0 1.64 1.04 1.64 2.2V121h2.44v-6.26c0-2.58-1.1-4-3.46-4-1.9 0-3.22 1.34-3.62 2.26h-.04c0-.08.08-.34.08-.72l-.06-1.28h-2.26Zm21.825-4.4h-2.44v4.96c0 .54.06.82.06.82h-.04c-.54-.86-1.76-1.64-3.3-1.64-2.56 0-4.6 2.04-4.6 5.26 0 3.18 2.04 5.26 4.66 5.26 1.54 0 2.9-.94 3.38-2h.04s-.06.28-.04.7l.04 1.04h2.24v-14.4Zm-5.26 6.22c1.34 0 2.76 1.02 2.76 3.18s-1.42 3.18-2.76 3.18c-1.62 0-2.74-1.32-2.74-3.18 0-1.88 1.12-3.18 2.74-3.18Z" fill="#000"/><defs><linearGradient id="a" x1="92" y1="32" x2="31.591" y2="36.475" gradientUnits="userSpaceOnUse"><stop offset=".211" stop-color="#FB3"/><stop offset=".552" stop-color="#E300BD"/><stop offset=".926" stop-color="#FF006A"/></linearGradient><linearGradient id="b" x1="62" y1="32" x2="62" y2="42" gradientUnits="userSpaceOnUse"><stop offset=".547" stop-opacity="0"/><stop offset="1" stop-opacity=".3"/></linearGradient></defs></svg>