<svg width="464" height="224" fill="none" xmlns="http://www.w3.org/2000/svg"><circle cx="74" cy="156" r="41.5" fill="#0D0D0D" stroke="#fff" stroke-dasharray="3 3"/><circle cx="74" cy="156" r="32" fill="#fff"/><path fill-rule="evenodd" clip-rule="evenodd" d="M56 156.002c0 9.924 8.077 18.001 17.999 18.001a17.97 17.97 0 0 0 13.727-6.359l-3-2.521a14.065 14.065 0 0 1-10.727 4.959c-7.765 0-14.08-6.316-14.08-14.08 0-7.765 6.316-14.081 14.08-14.081s14.08 6.316 14.08 14.081a1.889 1.889 0 0 1-3.226 1.336 1.888 1.888 0 0 1-.554-1.336 10.295 10.295 0 1 0-1.284 4.978l.047-.086.084.051a5.8 5.8 0 0 0 5.879.129A5.805 5.805 0 0 0 92 156.002C92 146.074 83.92 138 74 138 64.077 138 56 146.077 56 156.002Zm14.452-5.3A6.38 6.38 0 0 1 74 149.626v-.006a6.387 6.387 0 0 1 2.446 12.283 6.379 6.379 0 0 1-6.958-1.38 6.382 6.382 0 0 1 .965-9.821Zm1.881 7.792a2.997 2.997 0 0 0 3.787-.374 3.007 3.007 0 0 0 .88-2.121 3.004 3.004 0 0 0-1.853-2.771 2.998 2.998 0 0 0-4.09 2.187 2.999 2.999 0 0 0 1.276 3.079Z" fill="#000"/><circle cx="390" cy="68" r="41.5" fill="#0D0D0D" stroke="#fff" stroke-dasharray="3 3"/><circle cx="390" cy="68" r="32" fill="#fff"/><path d="M390 50.008c9.96 0 18 8.04 18 18s-8.04 18-18 18-18-8.04-18-18 8.04-18 18-18Zm0 4.8c-7.32 0-13.2 5.88-13.2 13.2 0 7.32 5.88 13.2 13.2 13.2 7.32 0 13.2-5.88 13.2-13.2 0-7.32-5.88-13.2-13.2-13.2Zm-4.44 13.92c2.04 0 3.72 1.68 3.72 3.72s-1.68 3.72-3.72 3.72-3.72-1.68-3.72-3.72 1.68-3.72 3.72-3.72Zm8.88 0c2.04 0 3.72 1.68 3.72 3.72s-1.68 3.72-3.72 3.72-3.72-1.68-3.72-3.72 1.68-3.72 3.72-3.72Zm0-8.88c2.04 0 3.72 1.68 3.72 3.72s-1.68 3.72-3.72 3.72-3.72-1.68-3.72-3.72 1.68-3.72 3.72-3.72Zm-8.88 0c2.04 0 3.72 1.68 3.72 3.72s-1.68 3.72-3.72 3.72-3.72-1.68-3.72-3.72 1.68-3.72 3.72-3.72Z" fill="#000"/><circle cx="232" cy="112" r="85.5" fill="#0D0D0D" stroke="#fff" stroke-dasharray="3 3"/><circle cx="175" cy="177" r="5" fill="url(#a)"/><circle cx="175" cy="177" r="5" fill="url(#b)"/><circle cx="289" cy="47" r="5" fill="url(#c)"/><circle cx="289" cy="47" r="5" fill="url(#d)"/><rect x="56" y="54" width="160" height="10" rx="5" fill="#333"/><rect x="226" y="54" width="24" height="10" rx="5" fill="#333"/><rect x="214" y="160" width="24" height="10" rx="5" fill="#333"/><rect x="248" y="160" width="160" height="10" rx="5" fill="#333"/><rect x="175" y="88" width="114" height="48" rx="24" fill="#FFE14D"/><path d="M194.94 121h2.64l1.28-2.86h5.88l1.28 2.86h2.64l-6.82-14.62h-.08L194.94 121Zm4.74-4.74c.78-1.76 1.52-3.6 2.14-5.1.6 1.64 1.28 3.26 2.1 5.1h-4.24Zm16.014-.52c3.2 0 5.22-1.64 5.22-4.56 0-2.94-2.02-4.58-5.22-4.58h-4.56V121h2.52v-5.26h2.04Zm.02-7.02c1.62 0 2.66.86 2.66 2.46 0 1.58-1 2.44-2.56 2.44h-2.16v-4.9h2.06ZM226.486 121v-14.4h-2.52V121h2.52Zm11.152-14.4h-2.52V121h2.52v-4.24l2.34-2.58 4.12 6.82h2.86l-5.28-8.5 5.2-5.9h-3.02l-6.22 7.24v-7.24Zm14.881 4.14c-2.82 0-5 2.24-5 5.26 0 3.08 2.14 5.26 5.46 5.26 1.68 0 3.02-.4 3.72-.78v-2.14c-.68.42-2.14.84-3.54.84-1.84 0-3.04-1-3.1-2.68h6.98c0-.18.06-.62.06-1.08 0-2.48-1.58-4.68-4.58-4.68Zm2.22 4.34h-4.68c.12-1.26.98-2.38 2.42-2.38 1.5 0 2.28 1.12 2.26 2.38Zm3.233 10.38c.2.08.64.16 1.12.16.4.02.8 0 1.22-.06 1.96-.38 3.2-1.98 4.34-4.82l3.9-9.74h-2.66l-1.26 3.54c-.38 1-1.08 3.2-1.44 4.04-.44-1.34-.94-2.7-1.44-4.04l-1.28-3.54h-2.66l4.14 9.94c-.66 1.48-1.4 2.58-2.84 2.58-.54 0-.94-.1-1.14-.16v2.1Z" fill="#000"/><defs><linearGradient id="a" x1="180" y1="172" x2="170" y2="182" gradientUnits="userSpaceOnUse"><stop offset=".211" stop-color="#FB3"/><stop offset=".539" stop-color="#E300BD"/><stop offset=".789" stop-color="#FF006A"/></linearGradient><linearGradient id="b" x1="175" y1="172" x2="175" y2="182" gradientUnits="userSpaceOnUse"><stop offset=".547" stop-opacity="0"/><stop offset="1" stop-opacity=".3"/></linearGradient><linearGradient id="c" x1="294" y1="42" x2="284" y2="52" gradientUnits="userSpaceOnUse"><stop offset=".211" stop-color="#FB3"/><stop offset=".539" stop-color="#E300BD"/><stop offset=".789" stop-color="#FF006A"/></linearGradient><linearGradient id="d" x1="289" y1="42" x2="289" y2="52" gradientUnits="userSpaceOnUse"><stop offset=".547" stop-opacity="0"/><stop offset="1" stop-opacity=".3"/></linearGradient></defs></svg>