<svg width="464" height="224" fill="none" xmlns="http://www.w3.org/2000/svg"><rect x="32" y="32" width="400" height="10" rx="5" fill="#333"/><rect x="132" y="60" width="150" height="10" rx="5" fill="#333"/><rect x="32" y="60" width="80" height="10" rx="5" fill="#333"/><rect x="32" y="154" width="180" height="10" rx="5" fill="#333"/><rect x="232" y="154" width="140" height="10" rx="5" fill="#333"/><rect x="32" y="182" width="150" height="10" rx="5" fill="#333"/><rect x="202" y="182" width="80" height="10" rx="5" fill="url(#a)"/><rect x="202" y="182" width="80" height="10" rx="5" fill="url(#b)"/><rect x="32.5" y="88.5" width="154" height="47" rx="23.5" fill="#0D0D0D"/><path d="M54.48 119.08c0 2.04 1.16 3.26 3.1 3.26h.68v-1.62h-.42c-.92 0-1.46-.68-1.46-1.84v-2.48c0-1.34-.6-2.28-1.58-2.58v-.04c.98-.3 1.58-1.24 1.58-2.58v-2.48c0-1.16.54-1.84 1.46-1.84h.42v-1.62h-.68c-1.94 0-3.1 1.22-3.1 3.26V111c0 1.22-.6 2-1.58 2.08v1.44c.98.08 1.58.86 1.58 2.08v2.48Zm7.559 0c0 2.04 1.16 3.26 3.1 3.26h.68v-1.62h-.42c-.92 0-1.46-.68-1.46-1.84v-2.48c0-1.34-.6-2.28-1.58-2.58v-.04c.98-.3 1.58-1.24 1.58-2.58v-2.48c0-1.16.54-1.84 1.46-1.84h.42v-1.62h-.68c-1.94 0-3.1 1.22-3.1 3.26V111c0 1.22-.6 2-1.58 2.08v1.44c.98.08 1.58.86 1.58 2.08v2.48Zm18.298-12.48h-2.06l-1.98 4.5c-1 2.28-1.8 3.98-2.62 6.04-.82-2.06-1.62-3.76-2.62-6.04l-1.98-4.5h-2.06l6.64 14.64h.04l6.64-14.64Zm-.176 6.62c.6-.36 1.88-.84 3.26-.84 1.58 0 2.62.6 2.62 2.34v.5c-4.18-.58-6.52.64-6.52 3.08 0 1.84 1.32 2.94 3.16 2.94 2.26 0 3.36-1.94 3.48-2.22h.04s-.08.32-.06.8l.02 1.18h1.72v-6.38c0-2.5-1.38-3.86-4.2-3.86-1.64 0-2.96.44-3.52.74v1.72Zm2.84 6.52c-1 0-1.64-.62-1.64-1.5 0-1.36 1.38-2.24 4.64-1.72 0 1.56-1.3 3.22-3 3.22Zm8.023 1.26h1.86v-4.36c0-1.94 1.12-4.08 3.06-4.08.26 0 .44.04.52.06v-1.8a2.87 2.87 0 0 0-.6-.06c-1.44 0-2.5.96-3.08 2.38h-.02c-.02-.06.04-.36.02-.74l-.02-1.4h-1.74v10Zm7.737-10v10h1.86v-10h-1.86Zm-.24-2.9c0 .66.46 1.12 1.16 1.12.68 0 1.16-.46 1.16-1.12 0-.68-.48-1.14-1.16-1.14-.7 0-1.16.46-1.16 1.14Zm5.448 5.12c.6-.36 1.88-.84 3.26-.84 1.58 0 2.62.6 2.62 2.34v.5c-4.18-.58-6.52.64-6.52 3.08 0 1.84 1.32 2.94 3.16 2.94 2.26 0 3.36-1.94 3.48-2.22h.04s-.08.32-.06.8l.02 1.18h1.72v-6.38c0-2.5-1.38-3.86-4.2-3.86-1.64 0-2.96.44-3.52.74v1.72Zm2.84 6.52c-1 0-1.64-.62-1.64-1.5 0-1.36 1.38-2.24 4.64-1.72 0 1.56-1.3 3.22-3 3.22Zm8.163 1.26h1.72l.04-1.18c0-.44-.06-.74-.06-.74h.04c.52 1.12 1.92 2.16 3.54 2.16 2.64 0 4.64-2.14 4.64-5.24 0-3.14-2-5.24-4.6-5.24-1.62 0-2.94.88-3.48 1.82h-.04s.06-.3.06-.82v-5.16h-1.86V121Zm5.02-8.62c1.86 0 3.1 1.5 3.1 3.62 0 2.08-1.24 3.62-3.1 3.62-1.5 0-3.14-1.12-3.14-3.62s1.64-3.62 3.14-3.62Zm7.5 6.06c0 2.02 1.08 2.8 2.56 2.8.72 0 1.22-.14 1.34-.18v-1.6c-.12.04-.48.12-.88.12-.82 0-1.16-.44-1.16-1.52V106.6h-1.86v11.84Zm10.251-7.68c-2.76 0-4.9 2.22-4.9 5.24 0 3.1 2.14 5.24 5.3 5.24 1.62 0 2.96-.42 3.74-.86v-1.7c-.84.54-2.26.94-3.62.94-2.1 0-3.42-1.24-3.48-3.2v-.02h7.44c0-.2.04-.58.04-.98 0-2.46-1.58-4.66-4.52-4.66Zm2.68 4.32h-5.62c.16-1.44 1.2-2.76 2.92-2.76 1.78 0 2.72 1.32 2.7 2.76Zm8.988 3.32c0 .94-.94 1.3-1.98 1.3-.94 0-2.22-.34-3.2-.82v1.7c.8.38 1.96.66 3.26.66 2.16 0 3.64-1 3.64-2.82 0-1.68-1.04-2.46-3.16-3.16-1.36-.44-2.06-.82-2.06-1.62 0-.9.9-1.3 2.04-1.3.9 0 1.9.32 2.62.7v-1.68c-.68-.32-1.74-.6-2.82-.6-2.08 0-3.58 1.16-3.58 2.82 0 1.8 1.24 2.56 3.02 3.14 1.48.48 2.22.82 2.22 1.68Zm6.869-9.88c0-2.04-1.16-3.26-3.1-3.26h-.68v1.62h.42c.92 0 1.46.68 1.46 1.84v2.48c0 1.34.6 2.28 1.58 2.58v.04c-.98.3-1.58 1.24-1.58 2.58v2.48c0 1.16-.54 1.84-1.46 1.84h-.42v1.62h.68c1.94 0 3.1-1.22 3.1-3.26v-2.48c0-1.22.6-2 1.58-2.08v-1.44c-.98-.08-1.58-.86-1.58-2.08v-2.48Zm7.559 0c0-2.04-1.16-3.26-3.1-3.26h-.68v1.62h.42c.92 0 1.46.68 1.46 1.84v2.48c0 1.34.6 2.28 1.58 2.58v.04c-.98.3-1.58 1.24-1.58 2.58v2.48c0 1.16-.54 1.84-1.46 1.84h-.42v1.62h.68c1.94 0 3.1-1.22 3.1-3.26v-2.48c0-1.22.6-2 1.58-2.08v-1.44c-.98-.08-1.58-.86-1.58-2.08v-2.48Z" fill="#FFE14D"/><rect x="32.5" y="88.5" width="154" height="47" rx="23.5" stroke="#fff" stroke-dasharray="3 3"/><rect x="178" y="88" width="208" height="48" rx="24" fill="#fff"/><path d="m217.496 105.235-2.731-2.731a1.722 1.722 0 0 0-2.435 0l-2.33 2.33 5.166 5.166 2.33-2.33a1.721 1.721 0 0 0 0-2.435ZM209.024 106l-9.365 9.365L198 122l6.635-1.659 9.365-9.365-4.976-4.976ZM233.1 121.26c3.22 0 5.14-1.52 5.14-4.04 0-2.28-1.44-3.4-4.08-4.38-2.2-.8-2.96-1.48-2.96-2.5 0-1.1 1.1-1.78 2.74-1.78 1.3 0 2.68.4 3.5.86v-2.36c-.86-.36-2.24-.72-3.68-.72-2.92 0-5.02 1.52-5.02 4.04 0 2.34 1.4 3.46 4.04 4.4 2.2.78 3.02 1.4 3.02 2.54 0 .78-.62 1.3-1.64 1.54-.42.12-.92.16-1.44.16-1.44-.04-2.82-.52-3.84-1.04v2.46c1 .42 2.56.82 4.22.82Zm5.979-10.26v1.94h1.52v4.42c0 .34.02.68.02 1 .12 2.16 1.64 2.9 3.16 2.9 1.08 0 1.94-.22 2.4-.46v-2.04c-.5.22-1.18.42-1.8.42-.74 0-1.38-.42-1.38-1.66v-4.58h2.84V111h-2.84v-3h-2.36v3h-1.56Zm7.576 14.46c.2.08.64.16 1.12.16.4.02.8 0 1.22-.06 1.96-.38 3.2-1.98 4.34-4.82l3.9-9.74h-2.66l-1.26 3.54c-.38 1-1.08 3.2-1.44 4.04-.44-1.34-.94-2.7-1.44-4.04l-1.28-3.54h-2.66l4.14 9.94c-.66 1.48-1.4 2.58-2.84 2.58-.54 0-.94-.1-1.14-.16v2.1Zm12.144-7.18c0 2.16 1.24 2.98 2.84 2.98.82 0 1.42-.16 1.62-.24v-2.04c-.16.06-.54.16-.94.16-.72 0-1.08-.38-1.08-1.38V106.6h-2.44v11.68Zm10.665-7.54c-2.82 0-5 2.24-5 5.26 0 3.08 2.14 5.26 5.46 5.26 1.68 0 3.02-.4 3.72-.78v-2.14c-.68.42-2.14.84-3.54.84-1.84 0-3.04-1-3.1-2.68h6.98c0-.18.06-.62.06-1.08 0-2.48-1.58-4.68-4.58-4.68Zm2.22 4.34h-4.68c.12-1.26.98-2.38 2.42-2.38 1.5 0 2.28 1.12 2.26 2.38Zm14.331-8.48h-2.44v4.96c0 .54.06.82.06.82h-.04c-.54-.86-1.76-1.64-3.3-1.64-2.56 0-4.6 2.04-4.6 5.26 0 3.18 2.04 5.26 4.66 5.26 1.54 0 2.9-.94 3.38-2h.04s-.06.28-.04.7l.04 1.04h2.24v-14.4Zm-5.26 6.22c1.34 0 2.76 1.02 2.76 3.18s-1.42 3.18-2.76 3.18c-1.62 0-2.74-1.32-2.74-3.18 0-1.88 1.12-3.18 2.74-3.18Zm15.349 3.18c0-1.86 1.26-3.12 3.06-3.12 1.16 0 2.16.44 2.78.86v-2.24c-.5-.26-1.46-.76-3.04-.76-3.14 0-5.28 2.24-5.28 5.26 0 3.02 2.14 5.26 5.28 5.26 1.58 0 2.6-.52 3.1-.78v-2.22c-.5.32-1.56.86-2.84.86-1.82 0-3.06-1.26-3.06-3.12Zm12.702-5.26c-3.02 0-5.24 2.24-5.24 5.26 0 3.02 2.22 5.26 5.24 5.26 3.04 0 5.24-2.24 5.24-5.26 0-3.02-2.2-5.26-5.24-5.26Zm0 8.44c-1.66 0-2.92-1.3-2.92-3.18 0-1.88 1.26-3.18 2.92-3.18 1.68 0 2.92 1.3 2.92 3.18 0 1.88-1.24 3.18-2.92 3.18Zm7.63-8.18v10h2.44v-4.96c0-1.76 1.18-3.08 2.84-3.08 1.36 0 1.64 1.04 1.64 2.2V121h2.44v-6.26c0-2.58-1.1-4-3.46-4-1.9 0-3.22 1.34-3.62 2.26h-.04c0-.08.08-.34.08-.72l-.06-1.28h-2.26Zm10.925 0v1.94h1.52v4.42c0 .34.02.68.02 1 .12 2.16 1.64 2.9 3.16 2.9 1.08 0 1.94-.22 2.4-.46v-2.04c-.5.22-1.18.42-1.8.42-.74 0-1.38-.42-1.38-1.66v-4.58h2.84V111h-2.84v-3h-2.36v3h-1.56Zm13.158-.26c-2.82 0-5 2.24-5 5.26 0 3.08 2.14 5.26 5.46 5.26 1.68 0 3.02-.4 3.72-.78v-2.14c-.68.42-2.14.84-3.54.84-1.84 0-3.04-1-3.1-2.68h6.98c0-.18.06-.62.06-1.08 0-2.48-1.58-4.68-4.58-4.68Zm2.22 4.34h-4.68c.12-1.26.98-2.38 2.42-2.38 1.5 0 2.28 1.12 2.26 2.38Zm4.713-4.08v10h2.44v-4.96c0-1.76 1.18-3.08 2.84-3.08 1.36 0 1.64 1.04 1.64 2.2V121h2.44v-6.26c0-2.58-1.1-4-3.46-4-1.9 0-3.22 1.34-3.62 2.26h-.04c0-.08.08-.34.08-.72l-.06-1.28h-2.26Zm10.924 0v1.94h1.52v4.42c0 .34.02.68.02 1 .12 2.16 1.64 2.9 3.16 2.9 1.08 0 1.94-.22 2.4-.46v-2.04c-.5.22-1.18.42-1.8.42-.74 0-1.38-.42-1.38-1.66v-4.58h2.84V111h-2.84v-3h-2.36v3h-1.56Z" fill="#000"/><defs><linearGradient id="a" x1="282" y1="182" x2="201.795" y2="189.922" gradientUnits="userSpaceOnUse"><stop offset=".211" stop-color="#FB3"/><stop offset=".552" stop-color="#E300BD"/><stop offset=".926" stop-color="#FF006A"/></linearGradient><linearGradient id="b" x1="242" y1="182" x2="242" y2="192" gradientUnits="userSpaceOnUse"><stop offset=".547" stop-opacity="0"/><stop offset="1" stop-opacity=".3"/></linearGradient></defs></svg>