<svg width="165" height="95" viewBox="0 0 165 95" fill="none" xmlns="http://www.w3.org/2000/svg">
<path id="Accent" d="M29.3559 2.85045C29.8256 2.16804 29.6532 1.23408 28.9707 0.764387C28.2883 0.294698 27.3544 0.467143 26.8847 1.14955L29.3559 2.85045ZM13.8027 28.2509L12.4254 27.6568L13.8027 28.2509ZM2.09441 62.8008L0.598603 62.6887L2.09441 62.8008ZM19.8241 92.6421L19.5407 94.115L19.8241 92.6421ZM68.0623 69.9227L68.9695 71.1173L68.0623 69.9227ZM84.454 42.9655L85.6596 42.0731L84.454 42.9655ZM73.6154 37.6682L74.4917 38.8857L73.6154 37.6682ZM70.8054 76.6326L72.1024 75.879L70.8054 76.6326ZM113.357 77.5743L112.935 76.1349L113.357 77.5743ZM164.264 64.2563C164.71 63.5584 164.506 62.6308 163.808 62.1845L152.434 54.9119C151.737 54.4656 150.809 54.6696 150.363 55.3675C149.916 56.0655 150.12 56.9931 150.818 57.4393L160.928 63.9039L154.464 74.0138C154.017 74.7117 154.221 75.6393 154.919 76.0856C155.617 76.5319 156.545 76.3279 156.991 75.6299L164.264 64.2563ZM24.781 4.29488C24.3297 4.98959 24.5271 5.91861 25.2218 6.36991C25.9165 6.8212 26.8455 6.62387 27.2968 5.92916L24.781 4.29488ZM23.4308 12.2463C23.8441 11.5284 23.5972 10.6113 22.8793 10.1979C22.1614 9.78458 21.2443 10.0315 20.8309 10.7494L23.4308 12.2463ZM17.2277 17.3993C16.8515 18.1373 17.1448 19.0407 17.8828 19.4169C18.6209 19.7932 19.5242 19.4999 19.9005 18.7618L17.2277 17.3993ZM16.6837 25.4481C17.0265 24.694 16.6931 23.8047 15.9389 23.4619C15.1847 23.1191 14.2954 23.4526 13.9526 24.2068L16.6837 25.4481ZM11.2066 30.4421C10.8715 31.1998 11.2141 32.0856 11.9717 32.4207C12.7293 32.7558 13.6152 32.4132 13.9502 31.6556L11.2066 30.4421ZM11.4739 37.2386C11.8075 36.4803 11.4631 35.5952 10.7048 35.2617C9.94645 34.9281 9.06133 35.2725 8.7278 36.0308L11.4739 37.2386ZM6.31425 41.6859C6.00036 42.4525 6.3674 43.3285 7.13406 43.6424C7.90072 43.9563 8.77668 43.5892 9.09057 42.8226L6.31425 41.6859ZM6.93126 48.4583C7.20667 47.677 6.79656 46.8204 6.01526 46.5449C5.23395 46.2695 4.37731 46.6796 4.1019 47.4609L6.93126 48.4583ZM2.24695 53.4033C2.03308 54.2037 2.50852 55.0258 3.30886 55.2397C4.10921 55.4536 4.93139 54.9781 5.14526 54.1778L2.24695 53.4033ZM3.92009 59.9869C4.04201 59.1675 3.47658 58.4044 2.65718 58.2825C1.83777 58.1606 1.07467 58.726 0.952754 59.5454L3.92009 59.9869ZM0.5048 65.9829C0.517895 66.8112 1.2 67.4721 2.02832 67.459C2.85665 67.4459 3.51752 66.7638 3.50443 65.9355L0.5048 65.9829ZM4.09983 71.9743C3.95145 71.1593 3.17045 70.6189 2.35542 70.7672C1.54039 70.9156 0.999962 71.6966 1.14834 72.5116L4.09983 71.9743ZM2.88601 78.8614C3.17728 79.6369 4.04209 80.0295 4.81763 79.7383C5.59316 79.447 5.98574 78.5822 5.69447 77.8066L2.88601 78.8614ZM8.38233 83.1374C7.92441 82.4471 6.99355 82.2586 6.30318 82.7165C5.61281 83.1745 5.42437 84.1053 5.88229 84.7957L8.38233 83.1374ZM10.3665 89.8278C11.0055 90.355 11.9509 90.2644 12.4781 89.6253C13.0053 88.9863 12.9146 88.0409 12.2756 87.5137L10.3665 89.8278ZM17.2921 90.3925C16.5142 90.1078 15.6527 90.5076 15.368 91.2856C15.0832 92.0635 15.4831 92.925 16.261 93.2097L17.2921 90.3925ZM22.4567 94.467C23.284 94.5109 23.9902 93.8759 24.0342 93.0486C24.0781 92.2214 23.4431 91.5151 22.6158 91.4712L22.4567 94.467ZM27.7431 91.1556C26.9255 91.2895 26.3714 92.0609 26.5053 92.8784C26.6393 93.6959 27.4106 94.2501 28.2281 94.1161L27.7431 91.1556ZM33.751 92.7566C34.5395 92.5026 34.9729 91.6575 34.719 90.869C34.465 90.0804 33.6199 89.647 32.8314 89.901L33.751 92.7566ZM37.7897 87.9956C37.032 88.3305 36.6892 89.2162 37.0241 89.974C37.3589 90.7317 38.2447 91.0745 39.0024 90.7396L37.7897 87.9956ZM44.0159 88.281C44.7461 87.8897 45.0208 86.9805 44.6295 86.2503C44.2382 85.5202 43.329 85.2455 42.5988 85.6368L44.0159 88.281ZM47.2685 82.953C46.5616 83.385 46.3388 84.3083 46.7709 85.0151C47.2029 85.722 48.1261 85.9448 48.833 85.5127L47.2685 82.953ZM53.49 82.5207C54.1776 82.0587 54.3605 81.1267 53.8985 80.4391C53.4365 79.7514 52.5045 79.5685 51.8169 80.0305L53.49 82.5207ZM56.2662 76.9304C55.5938 77.4143 55.441 78.3517 55.9249 79.0241C56.4089 79.6965 57.3463 79.8493 58.0186 79.3653L56.2662 76.9304ZM62.449 76.0958C63.1105 75.5971 63.2425 74.6566 62.7439 73.9951C62.2452 73.3335 61.3047 73.2015 60.6431 73.7002L62.449 76.0958ZM64.9773 70.3935C64.3201 70.8978 64.1962 71.8395 64.7006 72.4967C65.2049 73.1539 66.1466 73.2778 66.8037 72.7734L64.9773 70.3935ZM71.3089 69.3778C71.976 68.8866 72.1185 67.9476 71.6273 67.2805C71.1361 66.6134 70.1971 66.4709 69.53 66.9621L71.3089 69.3778ZM74.1877 63.4549C73.5363 63.9667 73.4232 64.9097 73.935 65.5611C74.4468 66.2125 75.3898 66.3256 76.0412 65.8138L74.1877 63.4549ZM80.6171 61.9203C81.2208 61.353 81.2505 60.4037 80.6832 59.8C80.116 59.1962 79.1667 59.1666 78.5629 59.7338L80.6171 61.9203ZM82.3377 55.591C81.8434 56.2559 81.9817 57.1955 82.6465 57.6898C83.3113 58.184 84.251 58.0458 84.7452 57.3809L82.3377 55.591ZM87.6561 51.6676C87.8676 50.8666 87.3897 50.0459 86.5887 49.8344C85.7878 49.6229 84.967 50.1008 84.7555 50.9017L87.6561 51.6676ZM84.5036 46.0749C84.8082 46.8453 85.6797 47.2229 86.4501 46.9183C87.2205 46.6137 87.5981 45.7422 87.2935 44.9718L84.5036 46.0749ZM83.331 39.4211C82.7405 38.84 81.7908 38.8478 81.2098 39.4383C80.6288 40.0288 80.6365 40.9785 81.227 41.5595L83.331 39.4211ZM76.4657 38.513C77.2786 38.6729 78.0672 38.1437 78.2271 37.3308C78.387 36.518 77.8577 35.7294 77.0449 35.5694L76.4657 38.513ZM69.9414 39.1159C69.4207 39.7603 69.521 40.7047 70.1654 41.2253C70.8098 41.746 71.7542 41.6457 72.2749 41.0013L69.9414 39.1159ZM69.3642 46.6512C69.6169 45.8623 69.1823 45.0179 68.3933 44.7651C67.6044 44.5124 66.7599 44.9471 66.5072 45.736L69.3642 46.6512ZM65.1107 52.8616C65.0339 53.6865 65.6404 54.4173 66.4653 54.4941C67.2901 54.5708 68.021 53.9643 68.0978 53.1395L65.1107 52.8616ZM68.0094 59.8529C67.9595 59.0259 67.2487 58.396 66.4218 58.4459C65.5949 58.4959 64.965 59.2067 65.0149 60.0336L68.0094 59.8529ZM65.9334 67.1254C66.0965 67.9376 66.8872 68.4638 67.6994 68.3007C68.5116 68.1375 69.0378 67.3469 68.8747 66.5347L65.9334 67.1254ZM70.7142 72.9527C70.411 72.1818 69.5402 71.8026 68.7693 72.1057C67.9983 72.4089 67.6191 73.2796 67.9222 74.0506L70.7142 72.9527ZM71.3524 79.9565C71.9004 80.5778 72.8483 80.6373 73.4696 80.0893C74.0909 79.5414 74.1504 78.5935 73.6024 77.9722L71.3524 79.9565ZM77.6914 80.9805C76.9375 80.6372 76.048 80.9701 75.7047 81.7241C75.3615 82.4781 75.6944 83.3675 76.4483 83.7108L77.6914 80.9805ZM82.4306 85.2971C83.2537 85.3909 83.997 84.7997 84.0908 83.9765C84.1846 83.1535 83.5933 82.4102 82.7702 82.3164L82.4306 85.2971ZM88.2231 82.3703C87.3971 82.4336 86.7788 83.1545 86.8421 83.9805C86.9054 84.8065 87.6263 85.4248 88.4523 85.3615L88.2231 82.3703ZM94.3123 84.5452C95.1256 84.3876 95.6572 83.6006 95.4996 82.7873C95.3421 81.974 94.555 81.4424 93.7417 81.5999L94.3123 84.5452ZM99.2327 80.3161C98.4326 80.5307 97.9579 81.3533 98.1725 82.1535C98.3871 82.9536 99.2097 83.4283 100.01 83.2137L99.2327 80.3161ZM105.584 81.5862C106.375 81.3404 106.817 80.4998 106.571 79.7086C106.325 78.9175 105.485 78.4755 104.694 78.7213L105.584 81.5862ZM110.165 76.9849C109.375 77.2346 108.937 78.0774 109.187 78.8673C109.436 79.6572 110.279 80.0951 111.069 79.8454L110.165 76.9849ZM116.88 78.0956C117.674 77.8585 118.125 77.0228 117.888 76.229C117.651 75.4353 116.815 74.9839 116.021 75.221L116.88 78.0956ZM122.19 73.3553C121.397 73.5973 120.951 74.4357 121.193 75.228C121.435 76.0203 122.274 76.4665 123.066 76.2245L122.19 73.3553ZM129.238 74.3328C130.03 74.0899 130.475 73.2509 130.232 72.4589C129.989 71.6669 129.15 71.2218 128.358 71.4647L129.238 74.3328ZM134.536 69.5795C133.743 69.8195 133.295 70.6569 133.535 71.4498C133.775 72.2426 134.612 72.6908 135.405 72.4508L134.536 69.5795ZM141.576 70.6084C142.371 70.3751 142.827 69.5416 142.593 68.7467C142.36 67.9518 141.527 67.4965 140.732 67.7298L141.576 70.6084ZM146.955 65.9461C146.157 66.1687 145.69 66.996 145.913 67.794C146.135 68.5919 146.963 69.0584 147.761 68.8358L146.955 65.9461ZM153.965 67.1637C154.767 66.9558 155.249 66.1373 155.041 65.3353C154.833 64.5334 154.014 64.0518 153.212 64.2597L153.965 67.1637ZM159.511 62.7028C158.705 62.8918 158.204 63.6988 158.393 64.5054C158.582 65.312 159.389 65.8126 160.196 65.6237L159.511 62.7028ZM26.8847 1.14955C26.1635 2.19735 25.4628 3.24529 24.781 4.29488L27.2968 5.92916C27.9641 4.90198 28.6499 3.87624 29.3559 2.85045L26.8847 1.14955ZM20.8309 10.7494C19.5679 12.943 18.3717 15.1553 17.2277 17.3993L19.9005 18.7618C21.0224 16.5611 22.1944 14.3937 23.4308 12.2463L20.8309 10.7494ZM13.9526 24.2068C13.435 25.3457 12.9265 26.4952 12.4254 27.6568L15.18 28.845C15.6738 27.7003 16.1745 26.5685 16.6837 25.4481L13.9526 24.2068ZM12.4254 27.6568C12.03 28.5735 11.6224 29.502 11.2066 30.4421L13.9502 31.6556C14.3681 30.7108 14.7797 29.7732 15.18 28.845L12.4254 27.6568ZM8.7278 36.0308C7.91118 37.8875 7.09598 39.7765 6.31425 41.6859L9.09057 42.8226C9.85862 40.9466 10.6625 39.0836 11.4739 37.2386L8.7278 36.0308ZM4.1019 47.4609C3.40828 49.4286 2.77883 51.4129 2.24695 53.4033L5.14526 54.1778C5.6534 52.2762 6.25833 50.3673 6.93126 48.4583L4.1019 47.4609ZM0.952754 59.5454C0.796822 60.5934 0.677073 61.6417 0.598603 62.6887L3.59021 62.9129C3.66284 61.9438 3.77409 60.9682 3.92009 59.9869L0.952754 59.5454ZM0.598603 62.6887C0.51927 63.7472 0.486897 64.8504 0.5048 65.9829L3.50443 65.9355C3.4879 64.8903 3.5179 63.8778 3.59021 62.9129L0.598603 62.6887ZM1.14834 72.5116C1.53589 74.6404 2.10677 76.7866 2.88601 78.8614L5.69447 77.8066C4.98427 75.9156 4.45847 73.9443 4.09983 71.9743L1.14834 72.5116ZM5.88229 84.7957C7.12188 86.6645 8.60727 88.3765 10.3665 89.8278L12.2756 87.5137C10.7712 86.2725 9.47855 84.7901 8.38233 83.1374L5.88229 84.7957ZM16.261 93.2097C17.2988 93.5896 18.3916 93.8939 19.5407 94.115L20.1076 91.1691C19.1141 90.9779 18.1766 90.7162 17.2921 90.3925L16.261 93.2097ZM19.5407 94.115C20.5003 94.2997 21.4736 94.4148 22.4567 94.467L22.6158 91.4712C21.7612 91.4258 20.9245 91.3263 20.1076 91.1691L19.5407 94.115ZM28.2281 94.1161C30.0583 93.8163 31.9054 93.3509 33.751 92.7566L32.8314 89.901C31.105 90.4569 29.4041 90.8834 27.7431 91.1556L28.2281 94.1161ZM39.0024 90.7396C40.686 89.9956 42.3615 89.1676 44.0159 88.281L42.5988 85.6368C41.0017 86.4927 39.3946 87.2864 37.7897 87.9956L39.0024 90.7396ZM48.833 85.5127C50.4195 84.5431 51.976 83.5379 53.49 82.5207L51.8169 80.0305C50.3333 81.0274 48.8132 82.0089 47.2685 82.953L48.833 85.5127ZM58.0186 79.3653C59.5653 78.2522 61.0477 77.1521 62.449 76.0958L60.6431 73.7002C59.2542 74.7472 57.7902 75.8335 56.2662 76.9304L58.0186 79.3653ZM66.8037 72.7734C67.568 72.1869 68.2904 71.6329 68.9695 71.1173L67.1552 68.7281C66.4693 69.2489 65.7411 69.8073 64.9773 70.3935L66.8037 72.7734ZM68.9695 71.1173C69.6807 70.5772 70.4659 69.9985 71.3089 69.3778L69.53 66.9621C68.6905 67.5803 67.8872 68.1723 67.1552 68.7281L68.9695 71.1173ZM76.0412 65.8138C77.5857 64.6001 79.1519 63.2967 80.6171 61.9203L78.5629 59.7338C77.183 61.0302 75.6898 62.2746 74.1877 63.4549L76.0412 65.8138ZM84.7452 57.3809C86.0658 55.6047 87.1218 53.6912 87.6561 51.6676L84.7555 50.9017C84.3484 52.4438 83.5112 54.0126 82.3377 55.591L84.7452 57.3809ZM87.2935 44.9718C86.9054 43.9902 86.3629 43.0233 85.6596 42.0731L83.2483 43.8579C83.8108 44.6178 84.22 45.3576 84.5036 46.0749L87.2935 44.9718ZM85.6596 42.0731C85.1445 41.3772 84.3289 40.4029 83.331 39.4211L81.227 41.5595C82.1105 42.4287 82.8238 43.2843 83.2483 43.8579L85.6596 42.0731ZM77.0449 35.5694C75.6236 35.2898 74.1071 35.4662 72.7392 36.4508L74.4917 38.8857C75.0691 38.4701 75.7052 38.3634 76.4657 38.513L77.0449 35.5694ZM72.7392 36.4508C71.6838 37.2105 70.7544 38.1096 69.9414 39.1159L72.2749 41.0013C72.9339 40.1856 73.6713 39.4762 74.4917 38.8857L72.7392 36.4508ZM66.5072 45.736C65.7898 47.9755 65.3404 50.392 65.1107 52.8616L68.0978 53.1395C68.3114 50.8433 68.7252 48.646 69.3642 46.6512L66.5072 45.736ZM65.0149 60.0336C65.1616 62.4646 65.4792 64.8637 65.9334 67.1254L68.8747 66.5347C68.4474 64.4072 68.1478 62.145 68.0094 59.8529L65.0149 60.0336ZM67.9222 74.0506C68.4021 75.2709 68.9328 76.3952 69.5084 77.3861L72.1024 75.879C71.617 75.0436 71.1497 74.0605 70.7142 72.9527L67.9222 74.0506ZM69.5084 77.3861C70.059 78.3337 70.6755 79.189 71.3524 79.9565L73.6024 77.9722C73.0599 77.3571 72.5576 76.6625 72.1024 75.879L69.5084 77.3861ZM76.4483 83.7108C78.3146 84.5605 80.3358 85.0584 82.4306 85.2971L82.7702 82.3164C80.922 82.1058 79.2169 81.675 77.6914 80.9805L76.4483 83.7108ZM88.4523 85.3615C90.3899 85.213 92.3579 84.9238 94.3123 84.5452L93.7417 81.5999C91.8736 81.9618 90.022 82.2324 88.2231 82.3703L88.4523 85.3615ZM100.01 83.2137C101.927 82.6995 103.8 82.1404 105.584 81.5862L104.694 78.7213C102.931 79.269 101.098 79.8157 99.2327 80.3161L100.01 83.2137ZM111.069 79.8454C112.03 79.5416 112.935 79.2611 113.779 79.0137L112.935 76.1349C112.062 76.3909 111.134 76.6786 110.165 76.9849L111.069 79.8454ZM113.779 79.0137C114.813 78.7105 115.846 78.4042 116.88 78.0956L116.021 75.221C114.992 75.5285 113.963 75.8333 112.935 76.1349L113.779 79.0137ZM123.066 76.2245C125.122 75.5965 127.181 74.9638 129.238 74.3328L128.358 71.4647C126.299 72.0964 124.244 72.7281 122.19 73.3553L123.066 76.2245ZM135.405 72.4508C137.461 71.8284 139.518 71.2125 141.576 70.6084L140.732 67.7298C138.663 68.3369 136.597 68.9553 134.536 69.5795L135.405 72.4508ZM147.761 68.8358C149.827 68.2595 151.895 67.7004 153.965 67.1637L153.212 64.2597C151.122 64.8016 149.036 65.3655 146.955 65.9461L147.761 68.8358ZM160.196 65.6237C161.237 65.3796 162.279 65.1426 163.322 64.9132L162.678 61.9833C161.621 62.2157 160.565 62.4558 159.511 62.7028L160.196 65.6237Z" fill="white" fill-opacity="0.3"/>
</svg>
