<svg width="50" height="50" viewBox="0 0 50 50" fill="none" xmlns="http://www.w3.org/2000/svg">
<g id="ai-platform-unified-svgrepo-com 1">
<path id="Vector" fill-rule="evenodd" clip-rule="evenodd" d="M23.4583 14.2916L16.3958 10.125C16.2123 10.0225 16.0514 9.88401 15.9227 9.71787C15.794 9.55174 15.7002 9.36135 15.6468 9.1581C15.5934 8.95485 15.5815 8.74292 15.6119 8.53498C15.6423 8.32704 15.7143 8.12736 15.8237 7.94791C15.933 7.76845 16.0775 7.6129 16.2483 7.49056C16.4192 7.36822 16.613 7.2816 16.8181 7.23589C17.0232 7.19018 17.2355 7.18632 17.4421 7.22454C17.6488 7.26276 17.8456 7.34227 18.0208 7.45832L25.0208 11.625L23.4583 14.2916Z" fill="#AECBFA"/>
<path id="Vector_2" fill-rule="evenodd" clip-rule="evenodd" d="M24.0001 21.4792L9.77089 13.2501C9.59306 13.1475 9.43718 13.0108 9.31214 12.848C9.18711 12.6852 9.09537 12.4993 9.04217 12.301C8.93473 11.9005 8.99077 11.4738 9.19797 11.1146C9.40517 10.7555 9.74656 10.4934 10.147 10.3859C10.5475 10.2785 10.9742 10.3345 11.3334 10.5417L24.0001 17.8751V21.4792Z" fill="#AECBFA"/>
<path id="Vector_3" fill-rule="evenodd" clip-rule="evenodd" d="M40.8333 11.1041C40.6215 10.7643 40.2888 10.5173 39.9023 10.413C39.5157 10.3086 39.104 10.3546 38.75 10.5416L26.5625 17.4999V14.2708L33.625 10.1041C33.9656 9.89271 34.2105 9.55695 34.3078 9.16802C34.405 8.77908 34.3469 8.36757 34.1458 8.02075C33.9309 7.68414 33.5952 7.44259 33.2078 7.34573C32.8203 7.24887 32.4105 7.30404 32.0625 7.49992L24.2708 12.0416C24.0238 12.1866 23.8189 12.3936 23.6764 12.642C23.5339 12.8905 23.4587 13.1718 23.4583 13.4583V43.7499C23.4329 43.9688 23.4541 44.1907 23.5205 44.4008C23.5869 44.611 23.697 44.8047 23.8436 44.9693C23.9902 45.1338 24.1699 45.2655 24.371 45.3557C24.5721 45.4459 24.79 45.4925 25.0104 45.4925C25.2308 45.4925 25.4487 45.4459 25.6498 45.3557C25.8509 45.2655 26.0306 45.1338 26.1772 44.9693C26.3238 44.8047 26.4339 44.611 26.5003 44.4008C26.5667 44.1907 26.5879 43.9688 26.5625 43.7499V21.1249L40.25 13.2499C40.6097 13.0407 40.8726 12.6982 40.9817 12.2966C41.0909 11.8951 41.0376 11.4667 40.8333 11.1041Z" fill="#669DF6"/>
<path id="Vector_4" d="M25.0209 8.1875C25.9874 8.1875 26.7709 7.404 26.7709 6.4375C26.7709 5.471 25.9874 4.6875 25.0209 4.6875C24.0544 4.6875 23.2709 5.471 23.2709 6.4375C23.2709 7.404 24.0544 8.1875 25.0209 8.1875Z" fill="#669DF6"/>
<path id="Vector_5" d="M19.75 22.5416C19.9894 22.6724 20.1893 22.8652 20.3285 23.0998C20.4678 23.3343 20.5414 23.6021 20.5417 23.8749V32.3749C20.543 32.6508 20.4702 32.922 20.331 33.1602C20.1917 33.3984 19.9911 33.5948 19.75 33.7291C19.5141 33.8607 19.2493 33.9323 18.9792 33.9374C18.7028 33.93 18.4318 33.8587 18.1875 33.7291L9.18752 28.5416C8.82837 28.3344 8.56624 27.993 8.4588 27.5925C8.35136 27.192 8.4074 26.7653 8.6146 26.4061C8.8218 26.047 9.16319 25.7849 9.56365 25.6774C9.96412 25.57 10.3909 25.626 10.75 25.8332L17.4167 29.6666V24.7916L14.3958 23.0624C14.0522 22.8541 13.8019 22.5214 13.6972 22.1334C13.5924 21.7454 13.6412 21.332 13.8333 20.9791C14.038 20.6314 14.3707 20.3777 14.7602 20.2725C15.1497 20.1674 15.5649 20.2191 15.9167 20.4166L19.75 22.5416Z" fill="#AECBFA"/>
<path id="Vector_6" d="M10.9584 21.0417C11.9249 21.0417 12.7084 20.2582 12.7084 19.2917C12.7084 18.3253 11.9249 17.5417 10.9584 17.5417C9.99188 17.5417 9.20837 18.3253 9.20837 19.2917C9.20837 20.2582 9.99188 21.0417 10.9584 21.0417Z" fill="#AECBFA"/>
<path id="Vector_7" d="M34.0416 20.3541C34.3934 20.1566 34.8086 20.1049 35.1981 20.21C35.5876 20.3152 35.9204 20.5689 36.125 20.9166C36.3171 21.2695 36.3659 21.6829 36.2611 22.0709C36.1564 22.4589 35.9062 22.7916 35.5625 22.9999L32.5416 24.7291V29.6041L39.2083 25.7707C39.3861 25.6681 39.5824 25.6016 39.786 25.5748C39.9896 25.5481 40.1964 25.5617 40.3947 25.6149C40.593 25.6681 40.7788 25.7599 40.9417 25.8849C41.1045 26.0099 41.2411 26.1658 41.3437 26.3436C41.4463 26.5215 41.5129 26.7178 41.5396 26.9213C41.5663 27.1249 41.5527 27.3317 41.4995 27.53C41.4463 27.7283 41.3546 27.9142 41.2296 28.077C41.1045 28.2398 40.9486 28.3765 40.7708 28.4791L31.7708 33.6666C31.5265 33.7962 31.2556 33.8675 30.9791 33.8749C30.709 33.8698 30.4443 33.7982 30.2083 33.6666C29.9672 33.5323 29.7666 33.3359 29.6274 33.0977C29.4881 32.8595 29.4154 32.5883 29.4166 32.3124V23.8749C29.4169 23.6021 29.4905 23.3343 29.6298 23.0998C29.7691 22.8652 29.9689 22.6724 30.2083 22.5416L34.0416 20.3541Z" fill="#4285F4"/>
<path id="Vector_8" d="M39.0416 21.0417C40.0081 21.0417 40.7916 20.2582 40.7916 19.2917C40.7916 18.3253 40.0081 17.5417 39.0416 17.5417C38.0751 17.5417 37.2916 18.3253 37.2916 19.2917C37.2916 20.2582 38.0751 21.0417 39.0416 21.0417Z" fill="#4285F4"/>
</g>
</svg>
