<svg width="50" height="50" viewBox="0 0 50 50" fill="none" xmlns="http://www.w3.org/2000/svg">
<path d="M10.3725 20.1772C6.23525 18.5223 4.16663 17.6948 4.16663 16.6666C4.16663 15.6384 6.23525 14.8109 10.3725 13.156L16.2235 10.8156C20.3608 9.16071 22.4293 8.33325 25 8.33325C27.5706 8.33325 29.6391 9.16071 33.7764 10.8156L39.6275 13.156C43.7648 14.8109 45.8333 15.6384 45.8333 16.6666C45.8333 17.6948 43.7648 18.5223 39.6275 20.1772L33.7764 22.5176C29.6391 24.1724 27.5706 24.9999 25 24.9999C22.4293 24.9999 20.3608 24.1724 16.2235 22.5176L10.3725 20.1772Z" fill="#562E69"/>
<path fill-rule="evenodd" clip-rule="evenodd" d="M4.16663 16.6666C4.16663 17.6948 6.23525 18.5223 10.3725 20.1772L16.2235 22.5176C20.3608 24.1724 22.4293 24.9999 25 24.9999C27.5706 24.9999 29.6391 24.1724 33.7764 22.5176L39.6275 20.1772C43.7648 18.5223 45.8333 17.6948 45.8333 16.6666C45.8333 15.6384 43.7648 14.8109 39.6275 13.156L33.7764 10.8156C29.6391 9.16071 27.5706 8.33325 25 8.33325C22.4293 8.33325 20.3608 9.16071 16.2235 10.8156L10.3725 13.156C6.23525 14.8109 4.16663 15.6384 4.16663 16.6666Z" fill="#562E69"/>
<path d="M39.6275 28.5106L33.7764 30.851C29.6391 32.5058 27.5706 33.3333 25 33.3333C22.4293 33.3333 20.3608 32.5058 16.2235 30.851L10.3725 28.5106C6.23525 26.8556 4.16663 26.0281 4.16663 25C4.16663 24.0731 5.84748 23.3094 9.20919 21.9558L15.7529 24.5733C19.6043 26.1146 22.025 27.0833 25 27.0833C27.975 27.0833 30.3956 26.1146 34.247 24.5733L40.7908 21.9558C44.1525 23.3094 45.8333 24.0731 45.8333 25C45.8333 26.0281 43.7648 26.8556 39.6275 28.5106Z" fill="#562E69"/>
<path d="M39.6275 36.8436L33.7764 39.184C29.6391 40.8388 27.5706 41.6663 25 41.6663C22.4293 41.6663 20.3608 40.8388 16.2235 39.184L10.3725 36.8436C6.23525 35.1886 4.16663 34.3613 4.16663 33.333C4.16663 32.4061 5.84748 31.6424 9.20919 30.2888L15.7529 32.9063C19.6043 34.4476 22.025 35.4163 25 35.4163C27.975 35.4163 30.3956 34.4476 34.247 32.9063L40.7908 30.2888C44.1525 31.6424 45.8333 32.4061 45.8333 33.333C45.8333 34.3613 43.7648 35.1886 39.6275 36.8436Z" fill="#562E69"/>
</svg>
