<svg width="50" height="50" viewBox="0 0 50 50" fill="none" xmlns="http://www.w3.org/2000/svg">
<path d="M35.9075 13.05C35.929 14.4489 35.6721 15.8382 35.1516 17.1369C34.6312 18.4356 33.8576 19.6178 32.8759 20.6147C31.8942 21.6116 30.7241 22.4033 29.4335 22.9437C28.143 23.4841 26.7579 23.7624 25.3587 23.7624C23.9596 23.7624 22.5745 23.4841 21.284 22.9437C19.9934 22.4033 18.8232 21.6116 17.8416 20.6147C16.8599 19.6178 16.0863 18.4356 15.5659 17.1369C15.0454 15.8382 14.7885 14.4489 14.81 13.05C14.8526 10.2804 15.9828 7.63867 17.9564 5.69518C19.93 3.75169 22.5888 2.66235 25.3587 2.66235C28.1287 2.66235 30.7874 3.75169 32.7611 5.69518C34.7347 7.63867 35.8649 10.2804 35.9075 13.05ZM6.67499 36.1725C10.1375 33.4475 17.0275 29.04 25.36 29.04C33.69 29.04 40.5825 33.45 44.045 36.1725C45.59 37.3875 46.07 39.4425 45.4625 41.3125L44.63 43.8625C44.2846 44.9202 43.6135 45.8417 42.7128 46.495C41.812 47.1483 40.7277 47.5001 39.615 47.5H11.1025C9.99018 47.4995 8.90647 47.1475 8.00622 46.4943C7.10598 45.841 6.43529 44.9198 6.08999 43.8625L5.25749 41.3125C4.64499 39.4425 5.12749 37.3875 6.67499 36.1725Z" fill="#625C5C"/>
</svg>
