<svg width="50" height="50" viewBox="0 0 50 50" fill="none" xmlns="http://www.w3.org/2000/svg">
<g id="chat-round-call-svgrepo-com 1">
<path id="Vector" fill-rule="evenodd" clip-rule="evenodd" d="M45.8334 25.0001C45.8334 36.5059 36.5059 45.8334 25 45.8334C21.6673 45.8334 18.5175 45.0509 15.724 43.6595C14.9817 43.2899 14.1332 43.1667 13.3321 43.3811L8.6945 44.622C6.68129 45.1605 4.8395 43.3188 5.37817 41.3057L6.61902 36.668C6.83337 35.867 6.71031 35.0184 6.34056 34.2761C4.94923 31.4826 4.16669 28.3328 4.16669 25.0001C4.16669 13.4941 13.4941 4.16675 25 4.16675C36.5059 4.16675 45.8334 13.4941 45.8334 25.0001ZM25 15.1042C25.8629 15.1042 26.5625 15.8038 26.5625 16.6667V33.3334C26.5625 34.1963 25.8629 34.8959 25 34.8959C24.1371 34.8959 23.4375 34.1963 23.4375 33.3334V16.6667C23.4375 15.8038 24.1371 15.1042 25 15.1042ZM18.2292 20.8334C18.2292 19.9705 17.5296 19.2709 16.6667 19.2709C15.8037 19.2709 15.1042 19.9705 15.1042 20.8334V29.1667C15.1042 30.0297 15.8037 30.7292 16.6667 30.7292C17.5296 30.7292 18.2292 30.0297 18.2292 29.1667V20.8334ZM33.3334 19.2709C34.1963 19.2709 34.8959 19.9705 34.8959 20.8334V29.1667C34.8959 30.0297 34.1963 30.7292 33.3334 30.7292C32.4704 30.7292 31.7709 30.0297 31.7709 29.1667V20.8334C31.7709 19.9705 32.4704 19.2709 33.3334 19.2709Z" fill="#FEC200"/>
</g>
</svg>
