<svg width="50" height="50" viewBox="0 0 50 50" fill="none" xmlns="http://www.w3.org/2000/svg">
<path opacity="0.5" fill-rule="evenodd" clip-rule="evenodd" d="M20.8334 45.8334H29.1667C37.0234 45.8334 40.9519 45.8334 43.3925 43.3926C45.8334 40.952 45.8334 37.0234 45.8334 29.1667V28.2561C45.8334 26.4378 45.8334 25.0717 45.7446 23.9586H37.5H37.3023C35.0167 23.9588 32.9969 23.959 31.3686 23.7401C29.6038 23.5028 27.8392 22.958 26.3992 21.5178C24.959 20.0777 24.4142 18.3132 24.1769 16.5483C23.9579 14.9202 23.9581 12.9002 23.9584 10.6146L23.9775 4.7096C23.9781 4.53785 23.9929 4.36798 24.0209 4.20146C23.1696 4.16675 22.1579 4.16675 20.8954 4.16675C12.9973 4.16675 9.04825 4.16675 6.60746 6.60752C4.16669 9.04831 4.16669 12.9767 4.16669 20.8334V29.1667C4.16669 37.0234 4.16669 40.952 6.60746 43.3926C9.04825 45.8334 12.9766 45.8334 20.8334 45.8334Z" fill="#327C61"/>
<path d="M22.2962 29.7157C22.5994 28.9078 22.19 28.0071 21.3819 27.7042C20.5739 27.4011 19.6733 27.8105 19.3703 28.6186L16.2453 36.9519C15.9423 37.7598 16.3517 38.6605 17.1597 38.9634C17.9677 39.2665 18.8683 38.8571 19.1713 38.049L22.2962 29.7157Z" fill="#327C61"/>
<path d="M15.6882 30.272C16.2984 29.6618 16.2984 28.6726 15.6882 28.0624C15.078 27.4522 14.0887 27.4522 13.4785 28.0624L11.3951 30.1457C10.785 30.7559 10.785 31.7451 11.3951 32.3553L13.4785 34.4386C14.0887 35.0489 15.078 35.0489 15.6882 34.4386C16.2984 33.8284 16.2984 32.8393 15.6882 32.2291L14.7097 31.2505L15.6882 30.272Z" fill="#327C61"/>
<path d="M25.0631 32.2289C24.4529 31.6187 23.4637 31.6187 22.8535 32.2289C22.2433 32.8391 22.2433 33.8283 22.8535 34.4385L23.8319 35.417L22.8535 36.3956C22.2433 37.0058 22.2433 37.9949 22.8535 38.6051C23.4637 39.2154 24.4529 39.2154 25.0631 38.6051L27.1464 36.5218C27.7567 35.9116 27.7567 34.9224 27.1464 34.3122L25.0631 32.2289Z" fill="#327C61"/>
<path d="M23.9775 4.70862L23.9583 10.6136C23.9581 12.8992 23.9579 14.9192 24.1769 16.5473C24.4142 18.3122 24.959 20.0767 26.3992 21.517C27.8394 22.957 29.6037 23.5017 31.3687 23.739C32.9969 23.958 35.0167 23.9578 37.3023 23.9576H45.7446C45.7704 24.2817 45.7887 24.6272 45.8017 24.999H45.8333C45.8333 24.4417 45.8333 24.1632 45.8127 23.8351C45.6948 21.9715 44.9202 19.836 43.8156 18.3303C43.6212 18.0653 43.4881 17.9062 43.2223 17.588C41.5712 15.6117 39.3979 13.1499 37.5 11.4574C35.8108 9.95102 33.4973 8.30291 31.4794 6.95529C29.746 5.79748 28.8792 5.21856 27.6906 4.78829C27.3756 4.67423 26.96 4.54823 26.6346 4.46812C25.8346 4.27118 25.0558 4.20268 23.9583 4.17896L23.9775 4.70862Z" fill="#327C61"/>
</svg>
