<svg width="80" height="80" viewBox="0 0 80 80" fill="none" xmlns="http://www.w3.org/2000/svg">
<g id="dialog-svgrepo-com 1" clip-path="url(#clip0_101_392)">
<path id="Vector" d="M46.6666 17.5675C42.7443 15.2986 38.1903 14 33.3333 14C18.6057 14 6.66663 25.9391 6.66663 40.6667C6.66663 44.9323 7.66826 48.9643 9.44919 52.54C9.92246 53.49 10.08 54.5763 9.80559 55.6017L8.21733 61.5377C7.52783 64.1147 9.88533 66.472 12.4622 65.7827L18.3983 64.1943C19.4238 63.92 20.5099 64.0777 21.46 64.5507C25.0356 66.3317 29.0675 67.3333 33.3333 67.3333C48.061 67.3333 60 55.3943 60 40.6667C60 35.8097 58.7013 31.2557 56.4323 27.3333" stroke="#00A3FE" stroke-width="3" stroke-linecap="round"/>
<path id="Vector_2" d="M60 42.3394C60.2216 42.2471 60.4413 42.1511 60.659 42.0517C61.866 41.5004 63.2203 41.2941 64.502 41.6371L66.089 42.0617C69.31 42.9234 72.2566 39.9767 71.395 36.7557L70.9703 35.1687C70.6273 33.8871 70.8336 32.5327 71.385 31.3257C72.636 28.5867 73.3333 25.5415 73.3333 22.3334C73.3333 18.0865 72.1113 14.1249 70 10.7811M31.6666 13.9854C34.9353 6.16338 42.659 0.666748 51.6666 0.666748C55.962 0.666748 59.9656 1.91675 63.3333 4.07281" stroke="#00A3FE" stroke-width="3" stroke-linecap="round"/>
<path id="Vector_3" d="M21.7275 40.6667H21.7575M33.3633 40.6667H33.3933M44.9999 40.6667H45.0299" stroke="#00A3FE" stroke-width="3" stroke-linecap="round" stroke-linejoin="round"/>
</g>
<defs>
<clipPath id="clip0_101_392">
<rect width="80" height="80" fill="white"/>
</clipPath>
</defs>
</svg>
