<svg width="70" height="70" viewBox="0 0 70 70" fill="none" xmlns="http://www.w3.org/2000/svg">
<g id="user-check-rounded-svgrepo-com 1">
<path id="Vector" d="M35 29.1666C41.4434 29.1666 46.6667 23.9432 46.6667 17.4999C46.6667 11.0566 41.4434 5.83325 35 5.83325C28.5567 5.83325 23.3334 11.0566 23.3334 17.4999C23.3334 23.9432 28.5567 29.1666 35 29.1666Z" stroke="#00FE75" stroke-width="3"/>
<path id="Vector_2" d="M35 37.9167C42.6076 37.9167 49.2433 40.2944 52.7558 43.8201M45.4537 59.6068C42.3961 60.6504 38.8206 61.2501 35 61.2501C23.7242 61.2501 14.5834 56.0266 14.5834 49.5834C14.5834 45.6188 18.0441 42.1162 23.3334 40.008" stroke="#00FE75" stroke-width="3" stroke-linecap="round"/>
<path id="Vector_3" d="M52.5 53.9583C53.639 55.0972 54.2777 55.736 55.4167 56.8749L61.25 49.5833" stroke="#00FE75" stroke-width="3" stroke-linecap="round" stroke-linejoin="round"/>
</g>
</svg>
