<svg width="244" height="131" viewBox="0 0 244 131" fill="none" xmlns="http://www.w3.org/2000/svg">
<path id="Hero" d="M3.77009 20.7782C3.82941 20.2291 3.43236 19.7359 2.88327 19.6766C2.33418 19.6173 1.84097 20.0143 1.78166 20.5634L3.77009 20.7782ZM17.3107 85.9549L18.096 85.3358L17.3107 85.9549ZM105.505 109.291L105.176 108.346L105.505 109.291ZM143.503 44.8134L144.495 44.69L143.503 44.8134ZM106.873 1.06861L106.884 2.06855L106.873 1.06861ZM86.9016 18.4231L85.9181 18.6039L86.9016 18.4231ZM104.327 57.0835L105.155 56.5217L104.327 57.0835ZM166.589 118.081L166.096 118.951L166.589 118.081ZM227.711 125.426L227.337 124.499L227.711 125.426ZM243.855 114.623C243.97 114.082 243.625 113.551 243.085 113.437L234.28 111.57C233.74 111.456 233.209 111.801 233.095 112.341C232.98 112.881 233.325 113.412 233.865 113.527L241.691 115.186L240.032 123.012C239.918 123.552 240.263 124.083 240.803 124.198C241.343 124.312 241.874 123.967 241.989 123.427L243.855 114.623ZM238.516 116.533C238.095 116.891 238.044 117.522 238.402 117.943C238.759 118.364 239.39 118.415 239.811 118.057L238.516 116.533ZM232.39 124.009C232.849 123.701 232.971 123.08 232.663 122.621C232.355 122.163 231.734 122.041 231.275 122.349L232.39 124.009ZM222.436 126.156C221.904 126.303 221.592 126.854 221.739 127.386C221.887 127.918 222.438 128.23 222.97 128.083L222.436 126.156ZM212.367 129.901C212.918 129.859 213.33 129.378 213.287 128.827C213.245 128.277 212.764 127.865 212.214 127.907L212.367 129.901ZM201.798 127.875C201.247 127.832 200.766 128.244 200.723 128.794C200.68 129.345 201.092 129.826 201.642 129.869L201.798 127.875ZM191.049 128.325C191.59 128.439 192.121 128.094 192.235 127.554C192.35 127.014 192.004 126.483 191.464 126.368L191.049 128.325ZM181.385 123.589C180.862 123.411 180.294 123.69 180.116 124.213C179.938 124.736 180.217 125.304 180.74 125.482L181.385 123.589ZM170.84 121.432C171.337 121.672 171.935 121.463 172.175 120.966C172.415 120.469 172.206 119.871 171.709 119.631L170.84 121.432ZM162.394 114.425C161.925 114.134 161.308 114.277 161.016 114.746C160.725 115.215 160.868 115.831 161.337 116.123L162.394 114.425ZM152.179 109.917C152.625 110.244 153.25 110.148 153.577 109.702C153.904 109.257 153.808 108.631 153.363 108.304L152.179 109.917ZM144.789 101.543C144.367 101.186 143.736 101.24 143.38 101.662C143.024 102.084 143.077 102.714 143.499 103.071L144.789 101.543ZM135.282 95.6844C135.682 96.0657 136.315 96.051 136.696 95.6515C137.078 95.252 137.063 94.619 136.663 94.2377L135.282 95.6844ZM128.968 86.4714C128.59 86.0688 127.957 86.0489 127.554 86.4269C127.152 86.805 127.132 87.4378 127.51 87.8404L128.968 86.4714ZM120.159 79.6063C120.517 80.0271 121.148 80.0784 121.569 79.7207C121.989 79.3631 122.041 78.732 121.683 78.3111L120.159 79.6063ZM114.79 69.8115C114.452 69.3749 113.824 69.295 113.387 69.6332C112.951 69.9714 112.871 70.5995 113.209 71.0362L114.79 69.8115ZM106.643 62.1739C106.962 62.6245 107.586 62.7307 108.037 62.4112C108.487 62.0918 108.594 61.4676 108.274 61.0171L106.643 62.1739ZM102.248 52.0854C101.954 51.6183 101.336 51.4786 100.869 51.7733C100.402 52.0681 100.262 52.6856 100.557 53.1527L102.248 52.0854ZM95.1646 43.8529C95.4223 44.3414 96.0272 44.5285 96.5157 44.2708C97.0042 44.0131 97.1913 43.4082 96.9336 42.9197L95.1646 43.8529ZM92.4398 33.348C92.2306 32.8369 91.6467 32.592 91.1356 32.8012C90.6244 33.0103 90.3796 33.5942 90.5887 34.1054L92.4398 33.348ZM87.1132 23.8853C87.2558 24.4188 87.8039 24.7358 88.3375 24.5931C88.871 24.4505 89.188 23.9024 89.0453 23.3688L87.1132 23.8853ZM87.5773 14.576C87.5928 14.024 87.1578 13.5639 86.6057 13.5484C86.0536 13.5329 85.5935 13.9679 85.5781 14.52L87.5773 14.576ZM88.2845 6.69115C87.9416 7.1241 88.0146 7.75304 88.4475 8.09594C88.8804 8.43884 89.5094 8.36584 89.8523 7.9329L88.2845 6.69115ZM95.7545 3.86463C96.2703 3.66723 96.5284 3.08906 96.331 2.57327C96.1336 2.05746 95.5554 1.79935 95.0396 1.99675L95.7545 3.86463ZM102.889 0.273436C102.339 0.326145 101.936 0.814541 101.989 1.3643C102.041 1.91407 102.53 2.31701 103.08 2.26431L102.889 0.273436ZM112.069 2.32459C112.618 2.38756 113.114 1.99381 113.177 1.44513C113.24 0.896445 112.846 0.400602 112.297 0.337632L112.069 2.32459ZM122.822 3.26805C122.323 3.03042 121.726 3.24194 121.489 3.74049C121.251 4.23904 121.462 4.83582 121.961 5.07345L122.822 3.26805ZM130.182 11.1108C130.56 11.5136 131.193 11.5339 131.596 11.1561C131.999 10.7782 132.019 10.1454 131.641 9.74258L130.182 11.1108ZM137.769 18.747C137.524 18.2521 136.924 18.0496 136.43 18.2947C135.935 18.5398 135.732 19.1397 135.977 19.6347L137.769 18.747ZM139.625 29.4079C139.772 29.9402 140.323 30.2525 140.855 30.1053C141.387 29.9582 141.7 29.4073 141.552 28.875L139.625 29.4079ZM143.762 39.3952C143.676 38.8495 143.165 38.4763 142.619 38.5616C142.073 38.6469 141.7 39.1584 141.786 39.7041L143.762 39.3952ZM142.958 49.9397C142.989 50.4912 143.46 50.9137 144.011 50.8836C144.563 50.8534 144.986 50.3819 144.955 49.8304L142.958 49.9397ZM144.786 60.1509C144.835 59.6008 144.429 59.1149 143.879 59.0658C143.329 59.0166 142.843 59.4226 142.794 59.9727L144.786 60.1509ZM141.135 69.854C141 70.3897 141.325 70.933 141.861 71.0676C142.396 71.2022 142.94 70.8771 143.074 70.3415L141.135 69.854ZM139.704 80.125C139.93 79.6207 139.703 79.0293 139.199 78.8041C138.695 78.5788 138.103 78.805 137.878 79.3093L139.704 80.125ZM132.973 88.0044C132.657 88.4573 132.768 89.0806 133.221 89.3967C133.673 89.7128 134.297 89.6018 134.613 89.1489L132.973 88.0044ZM127.879 97.0303C128.277 96.6474 128.289 96.0144 127.906 95.6164C127.524 95.2184 126.891 95.2061 126.492 95.589L127.879 97.0303ZM118.675 101.794C118.212 102.095 118.082 102.715 118.384 103.178C118.686 103.64 119.305 103.77 119.768 103.468L118.675 101.794ZM110.656 108.354C111.163 108.134 111.395 107.544 111.175 107.038C110.955 106.531 110.366 106.299 109.859 106.519L110.656 108.354ZM100.684 109.671C100.148 109.803 99.8204 110.345 99.9523 110.881C100.084 111.418 100.626 111.745 101.162 111.613L100.684 109.671ZM91.5785 113.19C92.1284 113.139 92.5332 112.653 92.4825 112.103C92.4318 111.553 91.9449 111.148 91.3949 111.199L91.5785 113.19ZM81.9545 111.499C81.4023 111.485 80.9439 111.922 80.9306 112.474C80.9173 113.026 81.354 113.485 81.9061 113.498L81.9545 111.499ZM72.2699 112.784C72.8181 112.851 73.3168 112.461 73.3837 111.913C73.4507 111.365 73.0605 110.866 72.5123 110.799L72.2699 112.784ZM63.164 109.233C62.6238 109.119 62.0928 109.464 61.978 110.004C61.8631 110.544 62.208 111.075 62.7482 111.19L63.164 109.233ZM53.4016 108.782C53.9301 108.942 54.4886 108.644 54.6492 108.116C54.8097 107.587 54.5115 107.029 53.9831 106.868L53.4016 108.782ZM45.0467 103.715C44.5348 103.508 43.9518 103.755 43.7445 104.267C43.5373 104.779 43.7842 105.362 44.2961 105.569L45.0467 103.715ZM35.5252 101.501C36.0134 101.759 36.6185 101.573 36.8768 101.085C37.1352 100.597 36.9488 99.9915 36.4607 99.7332L35.5252 101.501ZM28.4013 94.8222C27.9498 94.5042 27.3259 94.6126 27.008 95.0641C26.69 95.5157 26.7984 96.1395 27.25 96.4575L28.4013 94.8222ZM19.7811 90.229C20.171 90.6202 20.8041 90.6212 21.1953 90.2314C21.5865 89.8415 21.5875 89.2083 21.1976 88.8171L19.7811 90.229ZM14.8057 80.7631C14.5031 80.3011 13.8832 80.1718 13.4212 80.4744C12.9592 80.7771 12.83 81.3969 13.1326 81.8589L14.8057 80.7631ZM7.63787 71.6473C7.85764 72.154 8.44654 72.3866 8.95321 72.1668C9.45989 71.947 9.69247 71.3581 9.47271 70.8515L7.63787 71.6473ZM5.81437 60.1869C5.67494 59.6525 5.1287 59.3323 4.5943 59.4718C4.05991 59.6112 3.73973 60.1575 3.87916 60.6918L5.81437 60.1869ZM1.72142 49.3314C1.78978 49.8794 2.28948 50.2683 2.83752 50.1999C3.38555 50.1315 3.7744 49.6318 3.70603 49.0838L1.72142 49.3314ZM2.93291 37.7825C2.92395 37.2303 2.46903 36.7899 1.91681 36.7989C1.3646 36.8078 0.924213 37.2628 0.933177 37.815L2.93291 37.7825ZM1.26654 26.2959C1.22741 26.8468 1.64228 27.3251 2.19317 27.3642C2.74407 27.4033 3.22238 26.9885 3.26152 26.4376L1.26654 26.2959ZM242.332 113.577C241.115 114.368 239.832 115.416 238.516 116.533L239.811 118.057C241.124 116.942 242.322 115.969 243.422 115.253L242.332 113.577ZM231.275 122.349C229.984 123.216 228.671 123.959 227.337 124.499L228.086 126.353C229.585 125.747 231.022 124.928 232.39 124.009L231.275 122.349ZM227.337 124.499C225.747 125.141 224.111 125.692 222.436 126.156L222.97 128.083C224.714 127.6 226.423 127.026 228.086 126.353L227.337 124.499ZM212.214 127.907C208.798 128.171 205.306 128.149 201.798 127.875L201.642 129.869C205.244 130.15 208.84 130.173 212.367 129.901L212.214 127.907ZM191.464 126.368C188.04 125.643 184.661 124.705 181.385 123.589L180.74 125.482C184.089 126.623 187.545 127.582 191.049 128.325L191.464 126.368ZM171.709 119.631C170.117 118.863 168.571 118.055 167.081 117.211L166.096 118.951C167.625 119.817 169.209 120.646 170.84 121.432L171.709 119.631ZM167.081 117.211C165.5 116.315 163.937 115.386 162.394 114.425L161.337 116.123C162.903 117.098 164.489 118.042 166.096 118.951L167.081 117.211ZM153.363 108.304C150.425 106.148 147.566 103.888 144.789 101.543L143.499 103.071C146.309 105.443 149.203 107.732 152.179 109.917L153.363 108.304ZM136.663 94.2377C134.012 91.7066 131.446 89.1106 128.968 86.4714L127.51 87.8404C130.011 90.5047 132.603 93.1267 135.282 95.6844L136.663 94.2377ZM121.683 78.3111C119.287 75.4923 116.989 72.6509 114.79 69.8115L113.209 71.0362C115.426 73.8981 117.743 76.7631 120.159 79.6063L121.683 78.3111ZM108.274 61.0171C107.205 59.5093 106.165 58.0095 105.155 56.5217L103.5 57.6453C104.518 59.144 105.566 60.6549 106.643 62.1739L108.274 61.0171ZM105.155 56.5217C104.165 55.0637 103.194 53.5839 102.248 52.0854L100.557 53.1527C101.515 54.6709 102.498 56.1696 103.5 57.6453L105.155 56.5217ZM96.9336 42.9197C95.2699 39.7662 93.7566 36.5664 92.4398 33.348L90.5887 34.1054C91.9327 37.3902 93.4743 40.6488 95.1646 43.8529L96.9336 42.9197ZM89.0453 23.3688C88.5872 21.6547 88.1982 19.9445 87.8851 18.2422L85.9181 18.6039C86.2414 20.3616 86.6423 22.1235 87.1132 23.8853L89.0453 23.3688ZM87.8851 18.2422C87.6448 16.9355 87.5454 15.7135 87.5773 14.576L85.5781 14.52C85.5418 15.8136 85.6556 17.1764 85.9181 18.6039L87.8851 18.2422ZM89.8523 7.9329C91.2002 6.23097 93.1627 4.85653 95.7545 3.86463L95.0396 1.99675C92.1882 3.08802 89.9008 4.65032 88.2845 6.69115L89.8523 7.9329ZM103.08 2.26431C104.282 2.14905 105.55 2.0833 106.884 2.06855L106.862 0.0686766C105.477 0.0839866 104.152 0.152349 102.889 0.273436L103.08 2.26431ZM106.884 2.06855C108.711 2.04836 110.437 2.13728 112.069 2.32459L112.297 0.337632C110.578 0.140273 108.768 0.0476153 106.862 0.0686766L106.884 2.06855ZM121.961 5.07345C125.199 6.61683 127.907 8.68469 130.182 11.1108L131.641 9.74258C129.208 7.14892 126.301 4.92667 122.822 3.26805L121.961 5.07345ZM135.977 19.6347C137.523 22.7551 138.704 26.0767 139.625 29.4079L141.552 28.875C140.607 25.453 139.384 22.0071 137.769 18.747L135.977 19.6347ZM141.786 39.7041C142.071 41.5335 142.306 43.2905 142.51 44.9368L144.495 44.69C144.289 43.0317 144.052 41.2525 143.762 39.3952L141.786 39.7041ZM142.51 44.9368C142.716 46.5918 142.866 48.2614 142.958 49.9397L144.955 49.8304C144.861 48.1056 144.707 46.3901 144.495 44.69L142.51 44.9368ZM142.794 59.9727C142.496 63.2981 141.95 66.6075 141.135 69.854L143.074 70.3415C143.917 66.9881 144.48 63.575 144.786 60.1509L142.794 59.9727ZM137.878 79.3093C136.53 82.3272 134.902 85.2401 132.973 88.0044L134.613 89.1489C136.617 86.2768 138.307 83.2532 139.704 80.125L137.878 79.3093ZM126.492 95.589C124.165 97.8276 121.565 99.9073 118.675 101.794L119.768 103.468C122.763 101.514 125.461 99.3564 127.879 97.0303L126.492 95.589ZM109.859 106.519C108.357 107.172 106.797 107.782 105.176 108.346L105.834 110.235C107.501 109.655 109.108 109.027 110.656 108.354L109.859 106.519ZM105.176 108.346C103.731 108.85 102.231 109.291 100.684 109.671L101.162 111.613C102.766 111.219 104.326 110.76 105.834 110.235L105.176 108.346ZM91.3949 111.199C88.3372 111.48 85.1759 111.577 81.9545 111.499L81.9061 113.498C85.1983 113.578 88.4374 113.48 91.5785 113.19L91.3949 111.199ZM72.5123 110.799C69.3975 110.419 66.269 109.893 63.164 109.233L62.7482 111.19C65.909 111.862 69.0953 112.397 72.2699 112.784L72.5123 110.799ZM53.9831 106.868C50.9278 105.94 47.9362 104.885 45.0467 103.715L44.2961 105.569C47.2428 106.762 50.2909 107.837 53.4016 108.782L53.9831 106.868ZM36.4607 99.7332C33.5867 98.2123 30.8841 96.5702 28.4013 94.8222L27.25 96.4575C29.8085 98.2589 32.5841 99.9446 35.5252 101.501L36.4607 99.7332ZM21.1976 88.8171C20.0683 87.684 19.0315 86.5225 18.096 85.3358L16.5253 86.574C17.5126 87.8264 18.6016 89.0456 19.7811 90.229L21.1976 88.8171ZM18.096 85.3358C16.9176 83.841 15.8224 82.3154 14.8057 80.7631L13.1326 81.8589C14.181 83.4595 15.3103 85.0326 16.5253 86.574L18.096 85.3358ZM9.47271 70.8515C7.96212 67.3688 6.75745 63.8014 5.81437 60.1869L3.87916 60.6918C4.84612 64.3978 6.08329 68.0632 7.63787 71.6473L9.47271 70.8515ZM3.70603 49.0838C3.23529 45.3104 2.99374 41.5294 2.93291 37.7825L0.933177 37.815C0.995042 41.6255 1.2408 45.4789 1.72142 49.3314L3.70603 49.0838ZM3.26152 26.4376C3.39723 24.5272 3.56913 22.6387 3.77009 20.7782L1.78166 20.5634C1.57826 22.4464 1.40411 24.3594 1.26654 26.2959L3.26152 26.4376Z" fill="white" fill-opacity="0.3"/>
</svg>
