<svg width="731" height="858" viewBox="0 0 731 858" fill="none" xmlns="http://www.w3.org/2000/svg">
<g opacity="0.1">
<path d="M259.169 156.149L259.39 169.888C261.029 271.758 380.08 331.052 481.649 280.585L495.873 273.517C591.318 226.094 703.075 282.279 703.811 378.057L704.048 408.935C704.584 478.71 778.492 525.127 853.223 502.622V502.622" stroke="url(#paint0_linear_73_148)" stroke-width="0.653416"/>
<path d="M253.984 163.982L254.205 177.721C255.844 279.591 374.894 338.885 476.464 288.418L490.688 281.35C586.133 233.927 697.889 290.112 698.625 385.89L698.863 416.768C699.399 486.543 773.306 532.96 848.037 510.455V510.455" stroke="url(#paint1_linear_73_148)" stroke-width="0.653416"/>
<path d="M248.797 171.816L249.018 185.554C250.656 287.425 369.707 346.718 471.277 296.251L485.501 289.184C580.945 241.76 692.702 297.945 693.438 393.723L693.675 424.602C694.211 494.377 768.119 540.793 842.85 518.289V518.289" stroke="url(#paint2_linear_73_148)" stroke-width="0.653416"/>
<path d="M243.61 179.648L243.831 193.386C245.47 295.257 364.521 354.55 466.09 304.084L480.314 297.016C575.759 249.592 687.516 305.778 688.252 401.556L688.489 432.434C689.025 502.209 762.933 548.625 837.664 526.121V526.121" stroke="url(#paint3_linear_73_148)" stroke-width="0.653416"/>
<path d="M238.423 187.482L238.644 201.22C240.283 303.09 359.334 362.384 460.903 311.917L475.127 304.85C570.572 257.426 682.329 313.611 683.064 409.389L683.302 440.268C683.838 510.042 757.746 556.459 832.477 533.954V533.954" stroke="url(#paint4_linear_73_148)" stroke-width="0.653416"/>
<path d="M233.237 195.314L233.458 209.053C235.097 310.923 354.147 370.217 455.717 319.75L469.941 312.682C565.386 265.258 677.142 321.444 677.878 417.222L678.115 448.1C678.652 517.875 752.559 564.291 827.29 541.787V541.787" stroke="url(#paint5_linear_73_148)" stroke-width="0.653416"/>
<path d="M228.05 203.147L228.271 216.886C229.909 318.756 348.96 378.05 450.529 327.583L464.754 320.515C560.198 273.091 671.955 329.277 672.691 425.055L672.928 455.933C673.464 525.708 747.372 572.124 822.103 549.62V549.62" stroke="url(#paint6_linear_73_148)" stroke-width="0.653416"/>
<path d="M222.865 210.98L223.086 224.718C224.725 326.588 343.775 385.882 445.345 335.415L459.569 328.348C555.014 280.924 666.77 337.109 667.506 432.887L667.744 463.766C668.28 533.54 742.187 579.957 816.918 557.452V557.452" stroke="url(#paint7_linear_73_148)" stroke-width="0.653416"/>
<path d="M217.677 218.813L217.898 232.551C219.537 334.421 338.587 393.715 440.157 343.248L454.381 336.181C549.826 288.757 661.582 344.942 662.318 440.72L662.556 471.599C663.092 541.373 736.999 587.79 811.73 565.285V565.285" stroke="url(#paint8_linear_73_148)" stroke-width="0.653416"/>
<path d="M212.491 226.646L212.712 240.384C214.351 342.254 333.402 401.548 434.971 351.081L449.195 344.014C544.64 296.59 656.397 352.775 657.133 448.553L657.37 479.432C657.906 549.206 731.814 595.623 806.545 573.118V573.118" stroke="url(#paint9_linear_73_148)" stroke-width="0.653416"/>
<path d="M207.304 234.478L207.525 248.217C209.164 350.087 328.215 409.381 429.784 358.914L444.008 351.846C539.453 304.423 651.21 360.608 651.946 456.386L652.183 487.264C652.719 557.039 726.627 603.455 801.358 580.951V580.951" stroke="url(#paint10_linear_73_148)" stroke-width="0.653416"/>
<path d="M202.119 242.311L202.34 256.05C203.979 357.92 323.029 417.214 424.599 366.747L438.823 359.679C534.267 312.256 646.024 368.441 646.76 464.219L646.997 495.097C647.533 564.872 721.441 611.288 796.172 588.784V588.784" stroke="url(#paint11_linear_73_148)" stroke-width="0.653416"/>
<path d="M196.933 250.144L197.154 263.883C198.793 365.753 317.844 425.047 419.413 374.58L433.637 367.512C529.082 320.089 640.839 376.274 641.575 472.052L641.812 502.93C642.348 572.705 716.256 619.122 790.987 596.617V596.617" stroke="url(#paint12_linear_73_148)" stroke-width="0.653416"/>
<path d="M191.746 257.978L191.967 271.716C193.606 373.586 312.657 432.88 414.226 382.413L428.45 375.346C523.895 327.922 635.652 384.107 636.387 479.885L636.625 510.764C637.161 580.538 711.069 626.955 785.8 604.45V604.45" stroke="url(#paint13_linear_73_148)" stroke-width="0.653416"/>
<path d="M186.559 265.811L186.78 279.549C188.419 381.419 307.469 440.713 409.039 390.246L423.263 383.179C518.708 335.755 630.464 391.94 631.2 487.718L631.437 518.597C631.974 588.371 705.881 634.788 780.612 612.283V612.283" stroke="url(#paint14_linear_73_148)" stroke-width="0.653416"/>
<path d="M181.495 273.458L181.716 287.197C183.355 389.067 302.405 448.361 403.975 397.894L418.199 390.826C513.644 343.402 625.4 399.588 626.136 495.366L626.374 526.244C626.91 596.019 700.817 642.435 775.548 619.931V619.931" stroke="url(#paint15_linear_73_148)" stroke-width="0.653416"/>
<path d="M176.432 281.106L176.653 294.844C178.292 396.715 297.342 456.008 398.912 405.541L413.136 398.474C508.581 351.05 620.337 407.235 621.073 503.013L621.311 533.892C621.847 603.667 695.754 650.083 770.485 627.579V627.579" stroke="url(#paint16_linear_73_148)" stroke-width="0.653416"/>
<path d="M171.367 288.753L171.588 302.491C173.227 404.362 292.278 463.656 393.847 413.189L408.071 406.121C503.516 358.697 615.273 414.883 616.009 510.661L616.246 541.539C616.782 611.314 690.69 657.73 765.421 635.226V635.226" stroke="url(#paint17_linear_73_148)" stroke-width="0.653416"/>
<path d="M166.305 296.401L166.526 310.139C168.165 412.009 287.216 471.303 388.785 420.836L403.009 413.769C498.454 366.345 610.211 422.53 610.946 518.308L611.184 549.187C611.72 618.961 685.627 665.378 760.359 642.873V642.873" stroke="url(#paint18_linear_73_148)" stroke-width="0.653416"/>
<path d="M161.241 304.048L161.462 317.787C163.101 419.657 282.152 478.951 383.721 428.484L397.945 421.416C493.39 373.993 605.147 430.178 605.882 525.956L606.12 556.834C606.656 626.609 680.564 673.026 755.295 650.521V650.521" stroke="url(#paint19_linear_73_148)" stroke-width="0.653416"/>
<path d="M156.176 311.696L156.397 325.434C158.036 427.305 277.087 486.599 378.656 436.132L392.88 429.064C488.325 381.64 600.082 437.826 600.818 533.604L601.055 564.482C601.591 634.257 675.499 680.673 750.23 658.169V658.169" stroke="url(#paint20_linear_73_148)" stroke-width="0.653416"/>
<path d="M151.113 319.343L151.334 333.082C152.973 434.952 272.024 494.246 373.593 443.779L387.817 436.711C483.262 389.287 595.019 445.473 595.755 541.251L595.992 572.129C596.528 641.904 670.436 688.32 745.167 665.816V665.816" stroke="url(#paint21_linear_73_148)" stroke-width="0.653416"/>
<path d="M146.049 326.991L146.27 340.729C147.909 442.599 266.96 501.893 368.529 451.426L382.753 444.359C478.198 396.935 589.955 453.12 590.691 548.898L590.928 579.776C591.464 649.551 665.372 695.968 740.103 673.463V673.463" stroke="url(#paint22_linear_73_148)" stroke-width="0.653416"/>
<path d="M140.986 334.638L141.207 348.377C142.845 450.247 261.896 509.541 363.465 459.074L377.689 452.006C473.134 404.582 584.891 460.768 585.627 556.546L585.864 587.424C586.4 657.199 660.308 703.615 735.039 681.111V681.111" stroke="url(#paint23_linear_73_148)" stroke-width="0.653416"/>
<path d="M135.923 342.286L136.144 356.024C137.782 457.895 256.833 517.188 358.402 466.721L372.626 459.654C468.071 412.23 579.828 468.415 580.564 564.193L580.801 595.072C581.337 664.847 655.245 711.263 729.976 688.759V688.759" stroke="url(#paint24_linear_73_148)" stroke-width="0.653416"/>
<path d="M130.857 349.933L131.078 363.672C132.717 465.542 251.767 524.836 353.337 474.369L367.561 467.301C463.006 419.878 574.762 476.063 575.498 571.841L575.735 602.719C576.272 672.494 650.179 718.911 724.91 696.406V696.406" stroke="url(#paint25_linear_73_148)" stroke-width="0.653416"/>
<path d="M125.795 357.581L126.016 371.319C127.655 473.19 246.705 532.483 348.275 482.016L362.499 474.949C457.943 427.525 569.7 483.71 570.436 579.488L570.673 610.367C571.209 680.142 645.117 726.558 719.848 704.054V704.054" stroke="url(#paint26_linear_73_148)" stroke-width="0.653416"/>
<path d="M120.731 365.229L120.952 378.967C122.591 480.837 241.641 540.131 343.211 489.664L357.435 482.597C452.879 435.173 564.636 491.358 565.372 587.136L565.609 618.015C566.145 687.789 640.053 734.206 714.784 711.701V711.701" stroke="url(#paint27_linear_73_148)" stroke-width="0.653416"/>
<path d="M115.667 372.876L115.888 386.614C117.527 488.485 236.577 547.778 338.147 497.312L352.371 490.244C447.816 442.82 559.572 499.006 560.308 594.784L560.546 625.662C561.082 695.437 634.989 741.853 709.72 719.349V719.349" stroke="url(#paint28_linear_73_148)" stroke-width="0.653416"/>
</g>
<defs>
<linearGradient id="paint0_linear_73_148" x1="408.581" y1="73.7995" x2="420.176" y2="593.221" gradientUnits="userSpaceOnUse">
<stop stop-color="#FE851D"/>
<stop offset="0.227" stop-color="#FEC200"/>
<stop offset="0.54" stop-color="#FE851D"/>
<stop offset="0.809" stop-color="#FE851D"/>
<stop offset="1" stop-color="#FEC200"/>
</linearGradient>
<linearGradient id="paint1_linear_73_148" x1="403.395" y1="81.6325" x2="414.991" y2="601.054" gradientUnits="userSpaceOnUse">
<stop stop-color="#FE851D"/>
<stop offset="0.227" stop-color="#FEC200"/>
<stop offset="0.54" stop-color="#FE851D"/>
<stop offset="0.809" stop-color="#FE851D"/>
<stop offset="1" stop-color="#FEC200"/>
</linearGradient>
<linearGradient id="paint2_linear_73_148" x1="398.208" y1="89.4659" x2="409.804" y2="608.887" gradientUnits="userSpaceOnUse">
<stop stop-color="#FE851D"/>
<stop offset="0.227" stop-color="#FEC200"/>
<stop offset="0.54" stop-color="#FE851D"/>
<stop offset="0.809" stop-color="#FE851D"/>
<stop offset="1" stop-color="#FEC200"/>
</linearGradient>
<linearGradient id="paint3_linear_73_148" x1="393.022" y1="97.298" x2="404.617" y2="616.72" gradientUnits="userSpaceOnUse">
<stop stop-color="#FE851D"/>
<stop offset="0.227" stop-color="#FEC200"/>
<stop offset="0.54" stop-color="#FE851D"/>
<stop offset="0.809" stop-color="#FE851D"/>
<stop offset="1" stop-color="#FEC200"/>
</linearGradient>
<linearGradient id="paint4_linear_73_148" x1="387.834" y1="105.132" x2="399.43" y2="624.553" gradientUnits="userSpaceOnUse">
<stop stop-color="#FE851D"/>
<stop offset="0.227" stop-color="#FEC200"/>
<stop offset="0.54" stop-color="#FE851D"/>
<stop offset="0.809" stop-color="#FE851D"/>
<stop offset="1" stop-color="#FEC200"/>
</linearGradient>
<linearGradient id="paint5_linear_73_148" x1="382.648" y1="112.964" x2="394.244" y2="632.386" gradientUnits="userSpaceOnUse">
<stop stop-color="#FE851D"/>
<stop offset="0.227" stop-color="#FEC200"/>
<stop offset="0.54" stop-color="#FE851D"/>
<stop offset="0.809" stop-color="#FE851D"/>
<stop offset="1" stop-color="#FEC200"/>
</linearGradient>
<linearGradient id="paint6_linear_73_148" x1="377.461" y1="120.797" x2="389.057" y2="640.219" gradientUnits="userSpaceOnUse">
<stop stop-color="#FE851D"/>
<stop offset="0.227" stop-color="#FEC200"/>
<stop offset="0.54" stop-color="#FE851D"/>
<stop offset="0.809" stop-color="#FE851D"/>
<stop offset="1" stop-color="#FEC200"/>
</linearGradient>
<linearGradient id="paint7_linear_73_148" x1="372.276" y1="128.63" x2="383.872" y2="648.051" gradientUnits="userSpaceOnUse">
<stop stop-color="#FE851D"/>
<stop offset="0.227" stop-color="#FEC200"/>
<stop offset="0.54" stop-color="#FE851D"/>
<stop offset="0.809" stop-color="#FE851D"/>
<stop offset="1" stop-color="#FEC200"/>
</linearGradient>
<linearGradient id="paint8_linear_73_148" x1="367.088" y1="136.463" x2="378.684" y2="655.884" gradientUnits="userSpaceOnUse">
<stop stop-color="#FE851D"/>
<stop offset="0.227" stop-color="#FEC200"/>
<stop offset="0.54" stop-color="#FE851D"/>
<stop offset="0.809" stop-color="#FE851D"/>
<stop offset="1" stop-color="#FEC200"/>
</linearGradient>
<linearGradient id="paint9_linear_73_148" x1="361.903" y1="144.296" x2="373.498" y2="663.717" gradientUnits="userSpaceOnUse">
<stop stop-color="#FE851D"/>
<stop offset="0.227" stop-color="#FEC200"/>
<stop offset="0.54" stop-color="#FE851D"/>
<stop offset="0.809" stop-color="#FE851D"/>
<stop offset="1" stop-color="#FEC200"/>
</linearGradient>
<linearGradient id="paint10_linear_73_148" x1="356.715" y1="152.128" x2="368.311" y2="671.55" gradientUnits="userSpaceOnUse">
<stop stop-color="#FE851D"/>
<stop offset="0.227" stop-color="#FEC200"/>
<stop offset="0.54" stop-color="#FE851D"/>
<stop offset="0.809" stop-color="#FE851D"/>
<stop offset="1" stop-color="#FEC200"/>
</linearGradient>
<linearGradient id="paint11_linear_73_148" x1="351.53" y1="159.961" x2="363.126" y2="679.383" gradientUnits="userSpaceOnUse">
<stop stop-color="#FE851D"/>
<stop offset="0.227" stop-color="#FEC200"/>
<stop offset="0.54" stop-color="#FE851D"/>
<stop offset="0.809" stop-color="#FE851D"/>
<stop offset="1" stop-color="#FEC200"/>
</linearGradient>
<linearGradient id="paint12_linear_73_148" x1="346.345" y1="167.794" x2="357.94" y2="687.216" gradientUnits="userSpaceOnUse">
<stop stop-color="#FE851D"/>
<stop offset="0.227" stop-color="#FEC200"/>
<stop offset="0.54" stop-color="#FE851D"/>
<stop offset="0.809" stop-color="#FE851D"/>
<stop offset="1" stop-color="#FEC200"/>
</linearGradient>
<linearGradient id="paint13_linear_73_148" x1="341.157" y1="175.628" x2="352.753" y2="695.049" gradientUnits="userSpaceOnUse">
<stop stop-color="#FE851D"/>
<stop offset="0.227" stop-color="#FEC200"/>
<stop offset="0.54" stop-color="#FE851D"/>
<stop offset="0.809" stop-color="#FE851D"/>
<stop offset="1" stop-color="#FEC200"/>
</linearGradient>
<linearGradient id="paint14_linear_73_148" x1="335.97" y1="183.461" x2="347.566" y2="702.882" gradientUnits="userSpaceOnUse">
<stop stop-color="#FE851D"/>
<stop offset="0.227" stop-color="#FEC200"/>
<stop offset="0.54" stop-color="#FE851D"/>
<stop offset="0.809" stop-color="#FE851D"/>
<stop offset="1" stop-color="#FEC200"/>
</linearGradient>
<linearGradient id="paint15_linear_73_148" x1="330.906" y1="191.108" x2="342.502" y2="710.53" gradientUnits="userSpaceOnUse">
<stop stop-color="#FE851D"/>
<stop offset="0.227" stop-color="#FEC200"/>
<stop offset="0.54" stop-color="#FE851D"/>
<stop offset="0.809" stop-color="#FE851D"/>
<stop offset="1" stop-color="#FEC200"/>
</linearGradient>
<linearGradient id="paint16_linear_73_148" x1="325.843" y1="198.756" x2="337.439" y2="718.177" gradientUnits="userSpaceOnUse">
<stop stop-color="#FE851D"/>
<stop offset="0.227" stop-color="#FEC200"/>
<stop offset="0.54" stop-color="#FE851D"/>
<stop offset="0.809" stop-color="#FE851D"/>
<stop offset="1" stop-color="#FEC200"/>
</linearGradient>
<linearGradient id="paint17_linear_73_148" x1="320.778" y1="206.403" x2="332.374" y2="725.825" gradientUnits="userSpaceOnUse">
<stop stop-color="#FE851D"/>
<stop offset="0.227" stop-color="#FEC200"/>
<stop offset="0.54" stop-color="#FE851D"/>
<stop offset="0.809" stop-color="#FE851D"/>
<stop offset="1" stop-color="#FEC200"/>
</linearGradient>
<linearGradient id="paint18_linear_73_148" x1="315.716" y1="214.051" x2="327.312" y2="733.472" gradientUnits="userSpaceOnUse">
<stop stop-color="#FE851D"/>
<stop offset="0.227" stop-color="#FEC200"/>
<stop offset="0.54" stop-color="#FE851D"/>
<stop offset="0.809" stop-color="#FE851D"/>
<stop offset="1" stop-color="#FEC200"/>
</linearGradient>
<linearGradient id="paint19_linear_73_148" x1="310.652" y1="221.698" x2="322.248" y2="741.12" gradientUnits="userSpaceOnUse">
<stop stop-color="#FE851D"/>
<stop offset="0.227" stop-color="#FEC200"/>
<stop offset="0.54" stop-color="#FE851D"/>
<stop offset="0.809" stop-color="#FE851D"/>
<stop offset="1" stop-color="#FEC200"/>
</linearGradient>
<linearGradient id="paint20_linear_73_148" x1="305.587" y1="229.346" x2="317.183" y2="748.768" gradientUnits="userSpaceOnUse">
<stop stop-color="#FE851D"/>
<stop offset="0.227" stop-color="#FEC200"/>
<stop offset="0.54" stop-color="#FE851D"/>
<stop offset="0.809" stop-color="#FE851D"/>
<stop offset="1" stop-color="#FEC200"/>
</linearGradient>
<linearGradient id="paint21_linear_73_148" x1="300.524" y1="236.993" x2="312.12" y2="756.415" gradientUnits="userSpaceOnUse">
<stop stop-color="#FE851D"/>
<stop offset="0.227" stop-color="#FEC200"/>
<stop offset="0.54" stop-color="#FE851D"/>
<stop offset="0.809" stop-color="#FE851D"/>
<stop offset="1" stop-color="#FEC200"/>
</linearGradient>
<linearGradient id="paint22_linear_73_148" x1="295.461" y1="244.641" x2="307.056" y2="764.062" gradientUnits="userSpaceOnUse">
<stop stop-color="#FE851D"/>
<stop offset="0.227" stop-color="#FEC200"/>
<stop offset="0.54" stop-color="#FE851D"/>
<stop offset="0.809" stop-color="#FE851D"/>
<stop offset="1" stop-color="#FEC200"/>
</linearGradient>
<linearGradient id="paint23_linear_73_148" x1="290.397" y1="252.288" x2="301.993" y2="771.71" gradientUnits="userSpaceOnUse">
<stop stop-color="#FE851D"/>
<stop offset="0.227" stop-color="#FEC200"/>
<stop offset="0.54" stop-color="#FE851D"/>
<stop offset="0.809" stop-color="#FE851D"/>
<stop offset="1" stop-color="#FEC200"/>
</linearGradient>
<linearGradient id="paint24_linear_73_148" x1="285.334" y1="259.936" x2="296.93" y2="779.358" gradientUnits="userSpaceOnUse">
<stop stop-color="#FE851D"/>
<stop offset="0.227" stop-color="#FEC200"/>
<stop offset="0.54" stop-color="#FE851D"/>
<stop offset="0.809" stop-color="#FE851D"/>
<stop offset="1" stop-color="#FEC200"/>
</linearGradient>
<linearGradient id="paint25_linear_73_148" x1="280.268" y1="267.583" x2="291.864" y2="787.005" gradientUnits="userSpaceOnUse">
<stop stop-color="#FE851D"/>
<stop offset="0.227" stop-color="#FEC200"/>
<stop offset="0.54" stop-color="#FE851D"/>
<stop offset="0.809" stop-color="#FE851D"/>
<stop offset="1" stop-color="#FEC200"/>
</linearGradient>
<linearGradient id="paint26_linear_73_148" x1="275.206" y1="275.231" x2="286.802" y2="794.652" gradientUnits="userSpaceOnUse">
<stop stop-color="#FE851D"/>
<stop offset="0.227" stop-color="#FEC200"/>
<stop offset="0.54" stop-color="#FE851D"/>
<stop offset="0.809" stop-color="#FE851D"/>
<stop offset="1" stop-color="#FEC200"/>
</linearGradient>
<linearGradient id="paint27_linear_73_148" x1="270.142" y1="282.879" x2="281.738" y2="802.3" gradientUnits="userSpaceOnUse">
<stop stop-color="#FE851D"/>
<stop offset="0.227" stop-color="#FEC200"/>
<stop offset="0.54" stop-color="#FE851D"/>
<stop offset="0.809" stop-color="#FE851D"/>
<stop offset="1" stop-color="#FEC200"/>
</linearGradient>
<linearGradient id="paint28_linear_73_148" x1="265.078" y1="290.526" x2="276.674" y2="809.948" gradientUnits="userSpaceOnUse">
<stop stop-color="#FE851D"/>
<stop offset="0.227" stop-color="#FEC200"/>
<stop offset="0.54" stop-color="#FE851D"/>
<stop offset="0.809" stop-color="#FE851D"/>
<stop offset="1" stop-color="#FEC200"/>
</linearGradient>
</defs>
</svg>
