<svg width="50" height="50" viewBox="0 0 50 50" fill="none" xmlns="http://www.w3.org/2000/svg">
<g id="sql-svgrepo-com 1">
<path id="Vector" d="M13.3782 23.8375C17.1094 25.149 21.0458 25.7804 25 25.7016C28.9544 25.7799 32.8907 25.148 36.6219 23.8359C39.5344 22.7 40.5672 21.4375 40.5672 20.7109V15.1562C39.549 15.8382 38.4566 16.4022 37.311 16.8375C33.3632 18.2511 29.1927 18.9403 25 18.8719C20.8078 18.939 16.6376 18.2509 12.6891 16.8406C11.543 16.4053 10.4504 15.8401 9.43286 15.1562V20.7031C9.43286 21.4438 10.4688 22.7 13.3782 23.8375Z" fill="#FFDA44"/>
<path id="Vector_2" d="M13.3782 34.3141C14.6963 34.8168 16.0556 35.2042 17.4407 35.4719C19.9314 35.9538 22.4632 36.1908 25 36.1797C27.5368 36.1913 30.0687 35.9548 32.5594 35.4735C33.9445 35.2057 35.3038 34.8183 36.6219 34.3157C39.5344 33.1797 40.5672 31.9172 40.5672 31.1907V25.8938C39.7255 26.4003 38.8409 26.8316 37.9235 27.1829C33.7763 28.6512 29.3988 29.362 25 29.2813C20.6008 29.3595 16.2234 28.6461 12.0766 27.1751C11.1596 26.8229 10.275 26.3916 9.43286 25.886V31.1875C9.43286 31.9157 10.4688 33.1735 13.3782 34.3141Z" fill="#FFDA44"/>
<path id="Vector_3" d="M25 46.8751C33.5938 46.8751 40.5672 44.1501 40.5672 40.7907V36.3579C39.8015 36.8195 38.9994 37.2177 38.1688 37.5485L37.9235 37.647C33.7771 39.1197 29.3996 39.8347 25 39.7579C20.6004 39.8369 16.2225 39.1219 12.0766 37.647C11.9922 37.6157 11.911 37.5798 11.8313 37.5485C11.0007 37.2177 10.1986 36.8195 9.43286 36.3579V40.7907C9.43286 44.1501 16.4063 46.8751 25 46.8751Z" fill="#FFDA44"/>
<path id="Vector_4" d="M25 15.2937C33.5976 15.2937 40.5672 12.5697 40.5672 9.20937C40.5672 5.84907 33.5976 3.125 25 3.125C16.4025 3.125 9.43286 5.84907 9.43286 9.20937C9.43286 12.5697 16.4025 15.2937 25 15.2937Z" fill="#FFDA44"/>
</g>
</svg>
