<svg width="70" height="70" viewBox="0 0 70 70" fill="none" xmlns="http://www.w3.org/2000/svg">
<g id="speech-to-text-svgrepo-com 1" clip-path="url(#clip0_101_419)">
<g id="Product Icons">
<g id="colored-32/speech">
<path id="Vector" d="M37.9167 5.83325H32.0834V64.1666H37.9167V5.83325Z" fill="#4285F4"/>
<g id="Group">
<path id="Rectangle-path" d="M26.25 23.3333H20.4166V46.6666H26.25V23.3333Z" fill="#4285F4"/>
<path id="Rectangle-path_2" d="M49.5833 23.3333H43.75V46.6666H49.5833V23.3333Z" fill="#4285F4"/>
<path id="Rectangle-path_3" d="M14.5833 14.5833H8.75V55.4166H14.5833V14.5833Z" fill="#4285F4"/>
<path id="Rectangle-path_4" d="M61.25 14.5833H55.4166V55.4166H61.25V14.5833Z" fill="#4285F4"/>
<path id="Rectangle-path_5" d="M37.9167 5.83325H32.0834V34.9999H37.9167V5.83325Z" fill="#669DF6"/>
<path id="Rectangle-path_6" d="M26.25 23.3333H20.4166V34.9999H26.25V23.3333Z" fill="#669DF6"/>
<path id="Rectangle-path_7" d="M49.5833 23.3333H43.75V34.9999H49.5833V23.3333Z" fill="#669DF6"/>
<path id="Rectangle-path_8" d="M14.5833 14.5833H8.75V34.9999H14.5833V14.5833Z" fill="#669DF6"/>
<path id="Rectangle-path_9" d="M61.25 14.5833H55.4166V34.9999H61.25V14.5833Z" fill="#669DF6"/>
</g>
</g>
</g>
</g>
<defs>
<clipPath id="clip0_101_419">
<rect width="70" height="70" fill="white"/>
</clipPath>
</defs>
</svg>
