<svg width="50" height="50" viewBox="0 0 50 50" fill="none" xmlns="http://www.w3.org/2000/svg">
<g id="tools-svgrepo-com 1">
<path id="Vector" d="M9.24997 36.3264C8.69797 36.9188 8.39746 37.7023 8.41174 38.5119C8.42603 39.3215 8.75399 40.094 9.32655 40.6665C9.8991 41.2391 10.6715 41.567 11.4811 41.5813C12.2907 41.5956 13.0742 41.2951 13.6666 40.7431L23.9166 30.4931L19.5 26.0764L9.24997 36.3264Z" fill="#00FE47"/>
<path id="Vector_2" d="M34.8611 17.3334L39.3263 15.0209L41.6666 10.507L39.4861 8.32642L34.9722 10.6667L32.6597 15.125L27.2291 20.5625L29.4305 22.7709L34.8611 17.3334Z" fill="#00FE47"/>
<path id="Vector_3" d="M35.8403 29.1667H35.4167C34.6785 29.1709 33.947 29.3073 33.257 29.5695L20.4514 16.7292C20.7048 16.0422 20.8341 15.3156 20.8333 14.5834L20.7917 14.1667C20.7338 13.1522 20.4266 12.1677 19.8975 11.3003C19.3683 10.4328 18.6334 9.70922 17.7579 9.19353C16.8824 8.67783 15.8933 8.38595 14.878 8.34372C13.8628 8.30149 12.8528 8.51021 11.9375 8.95142L16.1042 13.1181C16.3136 13.3313 16.4746 13.5871 16.5764 13.8681C16.6926 14.1858 16.7297 14.527 16.6844 14.8622C16.6392 15.1975 16.513 15.5167 16.3168 15.7922C16.1206 16.0677 15.8602 16.2914 15.5582 16.4437C15.2561 16.5961 14.9216 16.6726 14.5833 16.6667C14.3451 16.6593 14.11 16.6099 13.8889 16.5209C13.6099 16.4183 13.3547 16.26 13.1389 16.0556L8.97223 11.8889C8.52684 12.8041 8.31434 13.815 8.3536 14.832C8.39286 15.8491 8.68267 16.8406 9.19729 17.7187C9.71191 18.5968 10.4354 19.3342 11.3035 19.8654C12.1717 20.3967 13.1575 20.7053 14.1736 20.7639L14.5833 20.8334C15.3215 20.8292 16.053 20.6927 16.7431 20.4306L29.5833 33.2222C29.3123 33.9224 29.1711 34.666 29.1667 35.4167L29.2083 35.8334C29.3238 37.4031 30.0272 38.8715 31.1781 39.9452C32.329 41.0189 33.8427 41.6188 35.4167 41.625C36.344 41.6241 37.2587 41.4103 38.0903 41L33.9236 36.8334C33.7288 36.6247 33.5776 36.3791 33.4792 36.1111C33.3688 35.799 33.3344 35.4651 33.3788 35.137C33.4232 34.809 33.5452 34.4962 33.7346 34.2247C33.924 33.9531 34.1753 33.7307 34.4679 33.5757C34.7604 33.4207 35.0856 33.3376 35.4167 33.3334C35.6549 33.3408 35.89 33.3901 36.1111 33.4792C36.3944 33.5729 36.6514 33.7323 36.8611 33.9445L41.0278 38.1111C41.4881 37.1943 41.7129 36.1773 41.682 35.1518C41.6511 34.1264 41.3654 33.1248 40.8507 32.2373C40.336 31.3499 39.6085 30.6045 38.7338 30.0684C37.8591 29.5324 36.8647 29.2225 35.8403 29.1667Z" fill="#00FE47"/>
</g>
</svg>
