<svg width="50" height="50" viewBox="0 0 50 50" fill="none" xmlns="http://www.w3.org/2000/svg">
<g id="workflow-svgrepo-com 1">
<path id="Vector" d="M7.29163 32.2917H17.7083V42.7084H7.29163V32.2917ZM36.7708 20.1042L30.9375 14.2709C30.5208 13.8542 30.5208 13.2292 30.9375 12.8126L36.7708 6.97925C37.1875 6.56258 37.8125 6.56258 38.2291 6.97925L44.0625 12.8126C44.4791 13.2292 44.4791 13.8542 44.0625 14.2709L38.2291 20.1042C37.8125 20.5209 37.1875 20.5209 36.7708 20.1042Z" fill="#00BCD4"/>
<path id="Vector_2" d="M6.25 13.5417C6.25 15.1994 6.90848 16.7891 8.08058 17.9612C9.25268 19.1333 10.8424 19.7917 12.5 19.7917C14.1576 19.7917 15.7473 19.1333 16.9194 17.9612C18.0915 16.7891 18.75 15.1994 18.75 13.5417C18.75 11.8841 18.0915 10.2944 16.9194 9.12233C15.7473 7.95023 14.1576 7.29175 12.5 7.29175C10.8424 7.29175 9.25268 7.95023 8.08058 9.12233C6.90848 10.2944 6.25 11.8841 6.25 13.5417Z" fill="#3F51B5"/>
<path id="Vector_3" d="M31.25 37.5C31.25 39.1576 31.9085 40.7473 33.0806 41.9194C34.2527 43.0915 35.8424 43.75 37.5 43.75C39.1576 43.75 40.7473 43.0915 41.9194 41.9194C43.0915 40.7473 43.75 39.1576 43.75 37.5C43.75 35.8424 43.0915 34.2527 41.9194 33.0806C40.7473 31.9085 39.1576 31.25 37.5 31.25C35.8424 31.25 34.2527 31.9085 33.0806 33.0806C31.9085 34.2527 31.25 35.8424 31.25 37.5Z" fill="#448AFF"/>
<path id="Vector_4" d="M11.4584 25H13.5417V30.2083H11.4584V25Z" fill="#90A4AE"/>
<path id="Vector_5" d="M12.5 21.875L9.375 26.0417H15.625L12.5 21.875Z" fill="#90A4AE"/>
<path id="Vector_6" d="M20.8334 12.5H26.0417V14.5833H20.8334V12.5Z" fill="#90A4AE"/>
<path id="Vector_7" d="M29.1667 13.5417L25 10.4167V16.6667L29.1667 13.5417Z" fill="#90A4AE"/>
<path id="Vector_8" d="M36.4584 21.875H38.5417V27.0833H36.4584V21.875Z" fill="#90A4AE"/>
<path id="Vector_9" d="M37.5 30.2084L40.625 26.0417H34.375L37.5 30.2084Z" fill="#90A4AE"/>
</g>
</svg>
