<svg width="40" height="40" fill="none" xmlns="http://www.w3.org/2000/svg"><path fill-rule="evenodd" clip-rule="evenodd" d="M32.077 15h1.55a2557.336 2557.336 0 0 1 0 2.047h.712l.646.001v1.312h-1.357c-.001.889-.001 1.777 0 2.665.006.181.022.407.14.555.114.148.324.194.5.207.138.002.277.002.416.001H35v1.35c-.13-.002-.263 0-.397 0-.415.004-.844.008-1.226-.097-.389-.105-.75-.316-.973-.66-.235-.356-.312-.817-.327-1.237v-2.79h-.445v-1.306h.444V15Zm-23.209.03h-.983c-.028-.008-.039.027-.048.058a3486.36 3486.36 0 0 1-1.319 3.737c-.507 1.436-1.014 2.87-1.518 4.306h1.641l.307-.875.242-.69h3.098l.23.666.31.9h.41l1.232-.001c-.839-2.402-1.68-4.804-2.523-7.205v-.002l-.314-.894h-.765Zm.6 4.051h-.001c-.242-.79-.485-1.58-.73-2.369-.213.693-.427 1.386-.642 2.078l-.493 1.596h2.266l-.4-1.305Zm12.72-2.08c.549.063 1.075.27 1.505.619.441.352.744.846.893 1.389.116.445.148.923.059 1.376-.8.002-1.6.002-2.399.002H20.19c.019.303.06.59.198.864.124.25.343.444.59.567.28.134.61.163.914.121.264-.033.516-.138.715-.317a1.18 1.18 0 0 0 .37-.642h1.64c-.092.496-.325.961-.673 1.326-.339.36-.782.622-1.254.762a3.55 3.55 0 0 1-1.305.128 3.08 3.08 0 0 1-1.558-.553 2.766 2.766 0 0 1-1.025-1.47 4.108 4.108 0 0 1-.122-1.506c.058-.604.255-1.184.637-1.66.328-.417.778-.697 1.275-.867.508-.169 1.067-.2 1.596-.14Zm-.743 1.214c.326-.043.662-.017.96.128.241.12.458.305.58.55.13.252.155.523.152.803H20.191c.026-.34.104-.67.315-.946.225-.295.574-.483.939-.535ZM18.359 15h-1.55V16.173c-.001.704-.002 1.408.002 2.112a2.105 2.105 0 0 0-1.107-1.134c-.409-.178-.854-.203-1.292-.164a2.56 2.56 0 0 0-1.35.55c-.394.316-.67.766-.835 1.24-.14.416-.202.859-.197 1.298-.008.548.084 1.121.316 1.621.208.444.525.84.94 1.106.42.276.922.41 1.423.404.422.008.863-.082 1.227-.302.39-.236.702-.596.872-1.02V23.131h1.551V15Zm-2.522 3.442a1.787 1.787 0 0 0-.935-.095 1.47 1.47 0 0 0-.841.427c-.266.266-.401.635-.44 1.003-.043.383-.014.8.138 1.158.136.325.394.59.71.744.332.158.727.189 1.086.122.376-.071.71-.29.934-.599.231-.316.32-.71.32-1.098a2.009 2.009 0 0 0-.2-.95 1.512 1.512 0 0 0-.772-.712ZM25 16.959H26.55v.475l-.001.852a2.033 2.033 0 0 1 1.462-1.256c.463-.1.962-.088 1.418.045.503.148.946.46 1.262.876.366.475.549 1.043.611 1.634.059.592.021 1.214-.164 1.78-.147.436-.39.86-.73 1.172-.401.364-.916.594-1.455.648-.447.04-.89.008-1.307-.172a2.059 2.059 0 0 1-1.096-1.148v3.277H24.999v-8.183Zm2.841 1.388c.313-.057.65-.032.947.084.37.146.667.449.816.817.149.362.173.782.128 1.168-.047.38-.188.738-.472 1.004-.408.397-1.03.494-1.567.355a1.515 1.515 0 0 1-.985-.85 2.107 2.107 0 0 1-.165-.82c.001-.38.069-.747.271-1.071.23-.362.604-.614 1.027-.687Z" fill="#fff"/></svg>