<svg width="40" height="40" fill="none" xmlns="http://www.w3.org/2000/svg"><path d="m17.924 20.714-1.465 1.365 1.784 1.662.56-2.209-.879-.818ZM18.506 23.987l1.465 1.365 1.464-1.365-1.464-1.365-1.465 1.365ZM19.246 19.77l-5.369-5.005 1.253 3.345 1.781 1.66h2.335ZM19.808 17.563l-7.502-6.992 1.253 3.346 5.802 5.408.447-1.762ZM13.37 7.826l-.885 2.36 2.719 2.534-1.834-4.894ZM21.14 21.532l.559 2.209 1.783-1.662-1.465-1.365-.878.819ZM23.03 19.77l1.781-1.66 1.253-3.345-5.369 5.004h2.335ZM20.134 17.563l.446 1.762 5.802-5.408 1.253-3.346-7.501 6.992ZM26.571 7.826l-1.834 4.894 2.719-2.533-.885-2.361ZM19.158 21.043c0-.576.364-1.044.814-1.044.448 0 .813.468.813 1.044 0 .577-.365 1.044-.813 1.044-.45 0-.814-.467-.814-1.044ZM8.413 28.742H9v1.202c0 .132.01.228.047.309.075.165.224.21.344.21a.356.356 0 0 0 .282-.117c.1-.12.103-.312.103-.414v-1.19h.589v1.11c0 .248-.005.509-.096.689-.18.36-.614.392-.876.392-.367 0-.575-.066-.699-.162-.257-.162-.282-.497-.282-.668v-1.36ZM10.523 30.307h.538v.551h-.538v-.551ZM11.96 29.288c0 .03.008.057.02.075.04.066.205.114.296.138.113.032.227.06.34.092.072.018.142.04.212.075.22.105.29.315.29.507 0 .14-.038.27-.087.362-.138.267-.416.384-.86.384-.166 0-.495-.018-.689-.24a.773.773 0 0 1-.173-.452l.582-.021c.02.138.13.243.364.243a.37.37 0 0 0 .206-.051c.04-.03.082-.09.082-.162 0-.1-.063-.141-.11-.162-.073-.03-.444-.114-.526-.138a1.446 1.446 0 0 1-.189-.066c-.063-.03-.327-.15-.327-.536a.69.69 0 0 1 .133-.414c.185-.246.516-.27.699-.27.2 0 .4.036.502.081.308.126.348.423.364.537l-.579.042c-.014-.07-.042-.195-.29-.195-.077 0-.26.015-.26.17ZM13.31 30.307h.537v.551h-.537v-.551ZM15.992 30.046h-.383l.19-.716.193.716Zm-1.243.812h.647l.089-.345h.63l.09.345h.642l-.715-2.116h-.673l-.71 2.116ZM17.658 28.742v2.116h-.592v-2.116h.592ZM18.688 29.222h.49c.045 0 .106.006.152.06a.21.21 0 0 1 .042.135c0 .188-.15.191-.24.191h-.444v-.386Zm-.591 1.636h.59v-.77h.316l.339.77h.654l-.413-.845c.07-.024.182-.054.275-.198a.758.758 0 0 0 .105-.401c0-.213-.074-.42-.193-.537-.138-.129-.316-.132-.46-.135h-1.213v2.116ZM20.878 28.742h1.617v.477h-1.026v.404h.942v.474h-.942v.761h-.591v-2.116ZM23.819 29.135c.404.006.483.431.483.662 0 .213-.063.489-.245.606a.421.421 0 0 1-.238.06c-.358 0-.496-.339-.496-.666 0-.29.124-.668.496-.662Zm-.035-.47c-.293.005-.685.074-.916.494a1.387 1.387 0 0 0-.152.662c0 .243.044.447.156.638.122.213.358.474.933.474.299 0 .565-.054.79-.282a.966.966 0 0 0 .196-.284c.081-.174.119-.378.119-.576 0-.362-.133-.806-.512-1.004-.19-.099-.409-.126-.614-.123ZM25.83 29.222h.491c.044 0 .105.006.152.06a.21.21 0 0 1 .042.135c0 .188-.15.191-.24.191h-.445v-.386Zm-.59 1.636h.59v-.77h.316l.339.77h.654l-.414-.845c.07-.024.182-.054.276-.198a.76.76 0 0 0 .105-.401c0-.213-.075-.42-.194-.537-.138-.129-.315-.132-.46-.135h-1.213v2.116ZM27.998 29.8c0 .32.147.654.486.654a.469.469 0 0 0 .453-.354l.563.075c-.018.078-.04.156-.093.264-.194.383-.572.491-.934.491a1.27 1.27 0 0 1-.473-.078c-.338-.135-.619-.468-.619-1.049 0-.41.168-1.15 1.108-1.15.801 0 .927.467.981.668l-.547.126c-.023-.06-.051-.141-.137-.213a.457.457 0 0 0-.283-.096c-.266 0-.505.212-.505.662ZM31.498 28.742v.477H30.35v.344h1.061v.48h-1.063v.335h1.173v.48h-1.762v-2.116h1.739Z" fill="#fff"/></svg>