<svg width="40" height="40" fill="none" xmlns="http://www.w3.org/2000/svg"><path d="m26.067 18.271-.774 1.034c-.056-.007-.11-.016-.164-.02-.289-.022-.552.041-.767.248a.982.982 0 0 0-.274.524 1.68 1.68 0 0 0-.028.35v2.8h-1.12v-4.923h1.039v.491l.055-.05c.161-.16.34-.295.546-.39.243-.111.5-.152.766-.147.231.004.46.035.687.072.008.001.016.005.034.011Zm-13.456-1.736h2.212v6.678H9.331c-.88 0-.783 1.334-2.12 1.334H5V17.87h5.492c.88 0 .783-1.335 2.12-1.335Zm.484 1.744h-1.922c-.774 0-.878 1.32-2.155 1.32l-2.295.001.005 3.203H8.65c.774 0 .878-1.32 2.155-1.32H13.1l-.005-3.204Zm9.305 2.916c.027.373-.041.728-.223 1.055-.258.463-.651.749-1.155.886-.176.048-.357.07-.54.07h-3.19v-6.672h3.153c.636 0 1.124.278 1.477.801.245.363.353.77.32 1.21-.04.53-.29.94-.728 1.235-.028.02-.057.037-.094.06.022.014.04.024.057.033.185.098.356.214.503.365.258.266.394.587.42.957Zm-3.987-1.89h1.891c.335-.003.585-.168.748-.46.187-.336.093-.768-.145-1.03a.691.691 0 0 0-.527-.242h-1.967v1.733Zm2.849 1.765a.934.934 0 0 0-.893-.72h-1.956v1.815h1.898c.028 0 .055 0 .082-.004.322-.048.575-.208.755-.48a.758.758 0 0 0 .114-.611Zm8.812.79c-.184.637-.592 1.062-1.205 1.29a2.58 2.58 0 0 1-1.036.146 2.376 2.376 0 0 1-.85-.19c-.54-.238-.908-.644-1.128-1.19a2.88 2.88 0 0 1-.193-.852 3.636 3.636 0 0 1 .04-.945c.071-.385.206-.744.439-1.06a2.065 2.065 0 0 1 1.333-.829 2.45 2.45 0 0 1 1.218.068c.621.2 1.052.616 1.315 1.214.124.284.194.582.216.892.01.142.012.285.01.428 0 .116-.029.228-.063.345h-3.355a.81.81 0 0 0 .022.244c.099.412.36.67.756.786a1.167 1.167 0 0 0 1.293-.415l1.203.004c-.005.023-.009.044-.015.064Zm-3.246-1.634h2.205v-.063c-.017-.356-.18-.628-.492-.79-.42-.217-.845-.2-1.255.039a.917.917 0 0 0-.396.469.86.86 0 0 0-.062.345Zm6.333.541L35 18.28h-1.297l-1.197 1.604-1.195-1.604h-1.297l1.83 2.482-1.829 2.443h1.321l1.165-1.554 1.162 1.554H35l-.004-.006-1.834-2.432Z" fill="#fff"/></svg>