<svg width="40" height="40" fill="none" xmlns="http://www.w3.org/2000/svg"><path fill-rule="evenodd" clip-rule="evenodd" d="M6.801 17.288a2.198 2.198 0 0 0-.558-.207 3.04 3.04 0 0 0-1.464.017 2.36 2.36 0 0 0-1.019.583c-.41.395-.662.939-.735 1.5a3.14 3.14 0 0 0-.008.72c.05.494.249.972.586 1.338.251.277.574.482.924.613.277.1.567.16.862.178.252.006.5.01.75-.023.392-.054.79-.162 1.14-.351-.035-.07-.072-.139-.11-.207a8.9 8.9 0 0 1-.107-.204l-.006-.013a.401.401 0 0 0-.044-.073 3.127 3.127 0 0 1-.965.26 3.28 3.28 0 0 1-.817-.006 1.911 1.911 0 0 1-.865-.34 1.637 1.637 0 0 1-.56-.74 1.928 1.928 0 0 1-.13-.6 1.42 1.42 0 0 1 .001-.324c.023-.36.135-.725.335-1.028.14-.213.327-.395.548-.524.244-.147.531-.227.813-.253.283-.018.562-.006.836.07l.003.001c.113.033.218.064.31.14a.442.442 0 0 0-.105.517.418.418 0 0 0 .29.215c.117.027.244.02.35-.04a.528.528 0 0 0 .248-.337.669.669 0 0 0-.065-.473 1.079 1.079 0 0 0-.438-.409ZM36 17.25v-.13H34.06v.161c0 .084-.001.169.001.253l.007.01c.055.015.114.021.171.028l.024.002.01.007c.099.012.196.029.294.045l.135.023v1.368l-.001 2.375-.164.026c-.16.025-.32.05-.478.08V21.918H36v-.422c-.102-.018-.204-.034-.306-.05-.113-.019-.227-.037-.34-.058V17.65h.006c.212-.037.425-.073.638-.102.003-.099.002-.198.002-.297Zm-5.083-.144c-.101-.001-.202-.002-.303.002-.016.024-.028.05-.04.077l-.01.02-.76 1.6-1.224 2.583c-.085.019-.17.036-.254.052-.09.018-.182.036-.273.057v.13l.001.291h1.766V21.494l-.12-.02c-.16-.028-.32-.056-.479-.086l.207-.447v-.001h.001v-.001l.15-.324.01-.022a.634.634 0 0 1 .037-.072.793.793 0 0 1 .107-.004h2.392c.103.211.204.423.305.635l.113.236c-.097.02-.195.036-.292.053-.103.018-.207.035-.31.057 0 .041.003.083.005.124l.005.095c-.007.067-.01.133-.006.2h1.803V21.494l-.055-.011-.467-.094c-.356-.735-.71-1.472-1.065-2.21l-.001-.001-.855-1.776a10.926 10.926 0 0 1-.041-.085c-.034-.072-.068-.143-.104-.213h-.243Zm.001.864c-.021-.046-.042-.09-.066-.134l-.371.809-.001.001-.002.004v.002l-.001.001-.33.722c-.033.074-.068.147-.102.22a6.18 6.18 0 0 0-.153.346h1.96c-.051-.118-.107-.235-.163-.351l-.105-.22-.318-.67a1375.121 1375.121 0 0 0-.348-.73Zm-3.143.491a.74.74 0 0 0-.465-.14c-.193 0-.38.058-.544.157-.22.127-.398.305-.57.489l-.022.025a.581.581 0 0 1-.085.086l-.093-.462-.047-.233c-.225.007-.449.02-.673.035-.122.007-.243.015-.365.021v.456c.13.016.258.035.387.055l.226.034v2.42l-.24.042-.282.05V21.916h1.952V21.496c-.155-.02-.31-.036-.466-.054-.114-.012-.23-.025-.344-.039v-1.611c0-.022 0-.042.015-.062.137-.209.295-.409.478-.58a1.69 1.69 0 0 1 .398-.28.515.515 0 0 1 .142-.042.437.437 0 0 0 .04.432c.114.154.348.191.512.1.178-.093.268-.305.251-.5a.527.527 0 0 0-.205-.4Zm-13.11-.14a.749.749 0 0 1 .48.142.525.525 0 0 1 .201.366.628.628 0 0 1-.021.248.483.483 0 0 1-.235.288.422.422 0 0 1-.37.005.36.36 0 0 1-.193-.22.496.496 0 0 1 .015-.321.847.847 0 0 0-.32.15c-.267.183-.49.447-.67.713a.35.35 0 0 1-.011.016c-.014.021-.029.042-.028.068a275.891 275.891 0 0 0 0 1.628l.4.046c.137.015.274.03.41.047V21.918c-.373-.002-.746-.001-1.119-.001h-.838V21.495l.236-.04.29-.052v-2.42l-.612-.091v-.454c.135-.007.269-.015.403-.024.211-.013.423-.026.634-.032.048.235.095.47.14.705.185-.212.39-.43.63-.581a1.08 1.08 0 0 1 .578-.186Zm8.08.01c.19.02.375.058.55.136.22.094.414.242.556.434.218.29.316.66.31 1.02a1.44 1.44 0 0 1-.076.505c-.54.002-1.08.002-1.62.002H21.32c.02.19.062.373.162.538.125.215.333.38.567.461.282.105.603.11.898.067.265-.042.534-.122.766-.257a.34.34 0 0 1 .062-.029l.066.1c.066.101.133.202.195.306a2.587 2.587 0 0 1-1.322.422.997.997 0 0 1-.232 0c-.428-.013-.875-.149-1.2-.436a1.615 1.615 0 0 1-.5-.83c-.07-.26-.07-.519-.057-.786.03-.316.128-.636.304-.902.175-.27.43-.485.725-.611.31-.14.656-.169.992-.14Zm-.248.52c.21-.006.423.025.612.118a.8.8 0 0 1 .365.342c.097.18.135.393.108.596H21.33c.035-.254.133-.496.305-.69.215-.242.54-.374.863-.367Zm-3.504-.365a1.975 1.975 0 0 0-.862-.164 1.69 1.69 0 0 0-1.221.521 16.764 16.764 0 0 1-.105-.46c-.227.007-.454.021-.681.035l-.359.021v.455c.133.017.265.037.397.057l.217.033v3.979c-.093.018-.186.033-.28.049l-.241.04v.425h1.815V23.053l-.107-.015c-.129-.019-.258-.037-.388-.049l-.01-.007a1.216 1.216 0 0 1-.17-.02v-1.137c.234.095.483.171.735.194l.011.007c.177.008.357.017.533-.005a1.946 1.946 0 0 0 1.022-.452c.284-.242.49-.576.585-.936.057-.226.079-.465.055-.698a1.86 1.86 0 0 0-.25-.835 1.54 1.54 0 0 0-.696-.615Zm.062.799a1.073 1.073 0 0 0-.574-.37 1.406 1.406 0 0 0-.938.078c-.217.095-.39.247-.544.423v1.809c.246.15.524.242.811.264.24.024.487-.008.712-.096.248-.101.462-.282.6-.513.165-.266.222-.602.19-.911a1.27 1.27 0 0 0-.257-.684Zm-9.333-.961c.333.016.66.081.94.271.165.113.297.27.381.451.099.206.134.44.134.666v1.69c.091.017.183.03.274.044.11.016.22.032.33.053V21.916h-.968c-.04-.096-.083-.19-.126-.286l-.044-.098c-.318.302-.78.455-1.21.473-.083.01-.165.007-.247-.002a1.61 1.61 0 0 1-.6-.145 1.01 1.01 0 0 1-.523-.547 1.231 1.231 0 0 1-.025-.779c.065-.215.207-.398.39-.526.279-.197.622-.273.957-.297.395-.023.799.034 1.174.158v-.107a1.104 1.104 0 0 0-.04-.374.637.637 0 0 0-.348-.385c-.246-.119-.55-.14-.818-.13-.31.022-.629.117-.9.27l-.064-.116c-.036-.066-.072-.132-.11-.198a.936.936 0 0 1-.065-.13c.128-.08.26-.153.403-.205.353-.14.727-.184 1.105-.17Zm.533 1.962c.103.024.204.052.303.088v.332a27.98 27.98 0 0 0 .001.316c0 .03 0 .055-.027.077-.268.245-.614.35-.97.376a1.526 1.526 0 0 1-.62-.065.539.539 0 0 1-.293-.24.659.659 0 0 1-.074-.35.52.52 0 0 1 .214-.402c.152-.113.33-.155.515-.181.314-.039.641-.012.951.05Z" fill="#fff"/></svg>