<svg width="40" height="40" fill="none" xmlns="http://www.w3.org/2000/svg"><path d="M22.658 10.19c-.232-.071-.43-.171-.682-.137-.34-.03-.703.26-.954.463-.078.052-.153.105-.232.155l-.03-.007a.558.558 0 0 1 .116-.114c.321-.206.517-.456.917-.527.268-.05.657-.029.865.167ZM17.21 10.022c.476.064.745.362 1.117.622 1.103.778 2.248 1.623 3.349 2.4l.03.064c-.102-.032-.18-.096-.267-.152-.17-.151-.374-.271-.552-.417-.306-.203-.586-.45-.9-.639-.152-.129-.323-.239-.484-.356-.269-.174-.508-.393-.784-.555a2.84 2.84 0 0 0-.412-.299c-.21-.161-.427-.335-.657-.466a.663.663 0 0 0-.308-.115c-.271-.103-.518-.023-.78.062-.137.043-.224.155-.358.203.219-.279.668-.378 1.006-.352Z" fill="#fff"/><path d="M17.342 10.109c-.116.085-.132.053-.144.222-.173.014-.122.069-.174.199-.141-.01-.092.013-.121.13-.127.015-.242-.004-.365.042-.105.13-.213.301-.374.37-.054.048-.067.109-.09.174-.2.137-.274.387-.563.375-.064.141-.13.267-.299.295-.03.107-.004.2-.095.051-.02.085.007.103-.096.113-.107-.007-.05.17-.15.17-.104.016-.13.07-.157.162-.052-.008-.159-.091-.13.017.044.17-.177.042-.204.217-.144.067-.267.12-.36.257-.08.179-.41.01-.449.232-.025.105-.168.064-.193.188-.048.149-.06.124-.205.148-.036.197-.13.223-.294.299-.03.2-.082.128-.243.169-.052.16-.055.14-.197.215-.068.172-.186.216-.357.26-.031.082-.04.09-.122.12-.028.062-.034.135-.049.2-.108-.058-.128-.068-.16.063-.117.043-.24.038-.36.077-.068.1-.229.359-.378.323-.134-.153-.023.1-.126.148-.107.1-.099.118-.075.258-.108-.032-.095-.375-.184-.32-.119-.355.032-.794.288-1.055.295-.246.624-.46.934-.688 1.16-.833 2.253-1.622 3.408-2.46.307-.238.67-.44.946-.706.134-.048.221-.16.358-.203.262-.085.509-.165.78-.062ZM21.976 10.053c-.124.075-.263.082-.395.134.014.167-.128.001-.218.14-.129.14.08.039.136.024.09.064.07.103.18.034.145.098.304.177.455.267-.008.212.204.204.35.303.1.046.17.075.174-.068.082.044.17.064.198.163.03.123.163.118.22.22.096.201.28.319.498.357.013.076.014.156.034.232a.884.884 0 0 1 .388.17c.06.063.037-.093.056-.123.085-.034.114.108.154.157.079.031.207-.015.246.073.043.065.049.134.129.166.155.044.12.235.287.248.115-.001.092.14.134.215.126.039.25.1.355.178.059.039.03.146.087.18.108.085.243.06.34.16.098.063.204-.019.257.124.018.144.19.031.266.122.127.152.245.404.471.415.063.059.064.128.09.204.129.06.257.095.371.185.116.037.236.024.283.164.126.083.286.086.416.173.044.06.025.128.108.155.127.047.17.141.216.258.061.043.124.084.184.129.038-.18-.067-.332.012-.496.076.276.04.542-.061.805-.04.029-.078.058-.122.082.005-.058.016-.115.02-.173-.094-.006-.014.126-.116.113-.153-.002-.41-.134-.44-.293.008-.144-.135-.048-.213-.141-.124-.14-.236-.024-.252-.252-.178-.008-.3-.082-.467-.121-.023-.183-.14-.127-.196-.279-.038-.088-.174-.047-.254-.067-.008-.052-.01-.104-.02-.157-.167 0-.265-.109-.42-.145-.061-.23-.262-.297-.459-.39-.081-.007-.046-.144-.066-.202-.132-.021-.202.03-.268-.114-.11-.028-.157.018-.183-.117-.043-.09-.153-.046-.182-.171-.049-.113-.165-.062-.265-.084-.008-.052-.01-.105-.02-.156-.14-.011-.244-.084-.37-.137-.101-.031-.107-.181-.195-.243a1.569 1.569 0 0 0-.313-.16c-.133-.02.03-.27-.147-.236-.159.014-.206-.124-.363-.14-.178-.245-.43-.146-.48-.463-.16-.012-.265-.129-.424-.14-.072-.005.012-.193-.094-.165-.19.029-.19-.122-.365-.138-.038-.148-.33-.23-.294-.448-.161-.017-.091.009-.06.113-.186.037-.25-.133-.428-.03.025-.05.054-.1.08-.15.252-.204.616-.493.955-.464Z" fill="#fff"/><path d="M21.976 10.053c.252-.034.45.066.682.137.669.544 1.415 1.028 2.105 1.552.75.537 1.519 1.087 2.265 1.628.248.16.474.373.736.505l.031.025c.293.23.557.442.663.816-.078.164.026.316-.012.496-.06-.045-.123-.086-.184-.129-.046-.117-.09-.21-.216-.258-.083-.027-.064-.095-.108-.155-.13-.087-.29-.09-.416-.173-.047-.14-.167-.127-.283-.164-.114-.09-.242-.125-.372-.185-.025-.076-.026-.145-.089-.204-.226-.011-.344-.263-.471-.415-.076-.09-.248.022-.266-.122-.053-.143-.16-.061-.257-.125-.097-.1-.232-.074-.34-.16-.058-.033-.028-.14-.087-.178a1.17 1.17 0 0 0-.355-.179c-.042-.075-.02-.216-.134-.215-.167-.013-.132-.204-.287-.248-.08-.032-.085-.101-.129-.165-.039-.089-.167-.043-.246-.074-.04-.049-.069-.191-.154-.157-.019.03.003.186-.056.123a.884.884 0 0 0-.388-.17c-.02-.076-.02-.156-.034-.232a.651.651 0 0 1-.497-.358c-.058-.1-.192-.096-.22-.219-.029-.099-.117-.119-.199-.163-.005.143-.074.114-.174.068-.146-.1-.358-.091-.35-.303-.15-.09-.31-.169-.455-.267-.11.069-.09.03-.18-.034-.056.015-.265.116-.136-.024.09-.139.232.027.218-.14.132-.052.27-.06.395-.134ZM17.342 10.109a.663.663 0 0 1 .308.115c.065.113.207.164.294.264-.126.106-.256.217-.428.22-.014.062-.008.138-.04.193-.09.06-.17.074-.195.193-.113.032-.237.031-.351.056-.097.322-.427.303-.59.562-.08.086-.188.185-.312.191-.11.002-.01.144-.132.16-.152.017-.065.138-.194.161-.122.014-.033.271-.16.281-.108.025-.222.031-.332.053-.033.164-.025.279-.178.382-.085.053-.225.04-.32.06-.027.135-.145.189-.254.251-.059.1-.123.253-.266.214-.11-.027-.09.104-.151.165-.09.101-.24.137-.344.231.202.04-.12.04-.135.116-.057.157-.224.142-.27.292-.019.107-.215.073-.297.112-.027.098-.006.12-.114.154-.076.253-.231.293-.472.323-.011.249-.164.224-.269.41-.119.036-.238.034-.359.051-.02.19-.235.34-.419.353.103.144-.127.06-.164.183-.043.111-.145.189-.255.105.025.084.12.197-.009.247-.11-.304-.227-.612-.306-.925.09-.054.075.289.184.321-.024-.14-.032-.159.075-.258.103-.047-.008-.3.126-.148.15.036.31-.224.378-.323.12-.04.243-.034.36-.077.032-.131.052-.121.16-.063.015-.065.021-.138.049-.2.083-.03.09-.038.122-.12.171-.044.29-.088.357-.26.142-.074.145-.054.197-.215.161-.041.213.032.243-.17.165-.075.258-.101.294-.298.146-.024.157 0 .205-.149.025-.123.168-.082.193-.187.038-.222.368-.053.449-.232.093-.136.216-.19.36-.257.027-.175.248-.046.205-.217-.03-.108.077-.025.13-.017.026-.093.052-.146.156-.162.1 0 .043-.177.15-.17.103-.01.076-.028.096-.113.09.148.065.056.095-.05.17-.029.235-.155.3-.296.288.012.362-.238.563-.375.022-.066.035-.126.089-.175.16-.068.27-.24.373-.37.124-.045.24-.026.366-.041.029-.117-.02-.14.121-.13.052-.13 0-.185.174-.199.012-.169.028-.137.144-.222Z" fill="#fff"/><path d="M22.658 10.19c.102.027.176.09.256.156.191.145.399.268.59.413.742.558 1.495 1.072 2.24 1.625.643.478 1.419.98 2.02 1.49-.262-.13-.488-.344-.736-.504-.746-.54-1.516-1.091-2.265-1.628-.69-.524-1.436-1.008-2.105-1.552ZM17.65 10.224c.23.13.448.305.658.466.038.06.088.108.138.157-.1-.002-.163-.064-.255-.091-.005.123.08.172-.093.189.055.071.13.073.206.11-.082.12-.098.073-.208.025-.09.054-.13.091-.248.102-.117.302-.377.271-.563.5a.585.585 0 0 1-.356.234c-.021.15-.055.122-.175.177-.032.19-.177.101-.288.215-.126.1-.115.222-.308.225-.045.173-.152.084-.202.21-.154.115-.218.284-.444.29-.067.186-.263.242-.34.433-.067-.185-.05.043-.195.04-.066.21-.226.151-.38.265-.075.14-.135.314-.293.383-.11.056-.185.058-.232.186-.16.092-.3-.028-.31.217-.208.101-.191.302-.447.286.173.13-.043.114-.138.16-.052.172-.233.15-.241.325-.069.038-.133.014-.203.028-.096.126-.204.286-.375.305-.104-.012.016.169-.06.17-.112 0-.29.11-.318.21.14.038.214-.193.308-.162.117.146-.102.074-.15.21-.065.097-.09-.039-.17.034-.075.078-.112-.136-.193-.017-.058.205-.16.203-.318.302-.008.188-.067.126-.155.243a.56.56 0 0 0-.053-.166c-.026.077-.061.158-.068.239.06.02.052.018.05.08-.046.003-.09-.052-.124-.077a4.003 4.003 0 0 1-.173-.52c.128-.05.034-.163.009-.247.11.084.212.006.255-.105.037-.122.267-.04.164-.183.184-.013.399-.163.42-.353.12-.017.239-.015.358-.051.105-.186.258-.161.269-.41.241-.03.396-.07.472-.323.108-.034.087-.056.114-.154.082-.039.278-.005.297-.112.046-.15.213-.135.27-.292.015-.075.337-.077.136-.116.104-.094.253-.13.343-.23.061-.062.041-.193.151-.166.143.04.207-.115.266-.214.11-.062.227-.116.254-.251.095-.02.235-.007.32-.06.153-.103.145-.218.178-.382.11-.022.223-.027.333-.053.126-.01.037-.267.159-.28.129-.024.042-.145.194-.163.122-.015.023-.157.132-.159.124-.006.232-.105.312-.19.163-.26.493-.241.59-.563.114-.025.238-.024.351-.056.026-.12.106-.132.195-.193.032-.055.026-.131.04-.193.172-.003.302-.114.428-.22-.087-.1-.23-.15-.294-.264Z" fill="#fff"/><path d="M16.204 10.374c-.277.266-.639.468-.946.706a966.556 966.556 0 0 1-3.408 2.46c-.31.229-.639.442-.934.688-.256.26-.407.7-.288 1.054.079.313.196.62.306.925.043.175.106.351.173.52.005.052.055.27.118.249 1.087-.788 2.145-1.55 3.221-2.327.24-.176.492-.316.757-.452l.177-.06-.035.056c-.3.13-.603.294-.865.49-.71.515-1.473 1.064-2.191 1.584-.364.25-.71.54-1.086.772-.077.015-.1-.195-.131-.249l-.47-1.41a1.175 1.175 0 0 1 .284-1.181c.325-.276.694-.51 1.037-.764 1.074-.777 2.157-1.567 3.237-2.337.351-.227.67-.54 1.044-.724ZM21.022 10.517c-.027.05-.056.1-.08.15.177-.103.24.067.426.03-.03-.104-.1-.13.06-.113-.035.217.257.3.295.448.176.016.175.167.365.138.106-.028.022.16.094.166.159.01.263.127.424.139.05.317.302.218.48.463.157.016.204.153.363.14.176-.034.014.216.147.237.107.04.218.096.313.16.088.06.094.21.196.242.125.053.23.125.37.137.008.051.01.104.02.156.099.022.215-.03.264.084.029.125.139.08.182.17.026.136.074.09.183.118.066.143.136.093.268.114.02.058-.015.195.067.201.196.094.397.161.458.391.155.036.253.145.42.146.01.052.012.104.02.156.08.02.216-.02.254.067.055.152.173.096.196.279.167.039.289.113.467.121.016.228.128.113.252.252.078.093.221-.003.213.141.03.159.287.29.44.293.102.013.022-.119.116-.113-.005.058-.016.115-.02.173.044-.024.082-.053.122-.082-.077.171-.093.36-.18.525-.131.057-.086.193-.139.309-.055.123-.114.223-.113.364-.037-.135-.102-.26-.087-.402.027-.084.116-.127.006-.193-.058.072-.01.144-.135.12.037-.255-.33-.218-.444-.384.001-.226-.238-.183-.375-.301-.15-.016-.19-.127-.298-.209-.07-.016-.148-.01-.22-.018-.025-.116.22.02.165-.13-.11-.043-.227.002-.244-.146-.052-.088-.303-.007-.283-.157.015-.101-.157-.026-.168-.095-.005-.227-.468-.191-.497-.395-.07-.015-.144-.01-.215-.015.008-.047.183-.016.23-.031a1.152 1.152 0 0 0-.424-.217c-.031-.102-.056-.088-.148-.12-.127-.155-.3-.335-.499-.385-.094-.07-.155-.153-.28-.167a2.788 2.788 0 0 0-.505-.287c-.13-.117-.202-.188-.392-.18.06-.02.155-.016.187-.077-.102-.07-.264-.05-.292-.189-.106-.037-.206-.041-.265-.15-.028-.074-.126.007-.138-.064-.02-.204-.295-.244-.45-.316-.04-.258-.252-.307-.473-.354-.033-.131-.057-.109-.167-.16-.102-.122-.168-.207-.322-.266-.058-.124-.168-.068-.264-.148-.056-.027-.07-.139-.14-.112-.013.064-.007.143-.043.198-.24-.07-.129-.27-.351-.381.086-.118.346-.176.356-.317.079-.05.154-.103.232-.154Z" fill="#fff"/><path d="M20.76 10.664c-.163.172-.37.274-.553.425-.047.037-.27.158-.157.223.733.513 1.447 1.056 2.18 1.565.612.462 1.223.827 1.744 1.378.495.591.87 1.257 1.014 2.02.15.762.089 1.514-.126 2.258-.106.185-.15.411-.211.614-.183.548-.344 1.073-.537 1.623-.166.487-.297.993-.49 1.47l-.004-.031c.11-.5.318-.99.46-1.484.284-.885.603-1.78.856-2.674.059-.34.101-.66.08-1.008.015-.873-.324-1.753-.845-2.45-.54-.72-1.232-1.114-1.95-1.65-.727-.537-1.496-1.066-2.225-1.607-.083-.06-.057-.094.002-.16.24-.18.496-.377.761-.512Z" fill="#fff"/><path d="m20.76 10.664.03.007c-.01.14-.27.199-.356.317.222.11.112.312.351.381.036-.055.03-.134.043-.198.07-.027.084.085.14.112.096.08.206.024.264.148.154.06.22.144.322.265.11.052.134.03.167.161.22.047.433.096.473.354.155.072.43.112.45.316.012.071.11-.01.138.064.06.109.16.113.265.15.028.139.19.119.292.189-.032.061-.126.056-.187.078.19-.009.262.062.392.18.166.073.358.177.506.286.124.014.185.098.279.167.2.05.372.23.5.384.09.033.116.019.147.121.15.043.305.115.425.217-.047.015-.223-.016-.23.03.07.007.145.001.214.016.03.204.492.168.497.395.01.07.183-.006.168.095-.02.15.23.07.283.157.017.149.135.103.244.147.055.149-.19.013-.165.129.072.008.15.002.22.018.108.082.148.193.298.209.137.118.376.075.375.301.113.166.48.129.444.385.124.023.077-.05.135-.12.11.066.02.108-.006.192-.015.143.05.267.087.402 0-.141.058-.24.113-.364.053-.116.008-.252.139-.31-.081.31-.2.606-.297.91-.117.013-.003.145-.14.132.003.054.012.107.013.16-.094-.01-.114-.111-.206-.041-.065-.084.046-.068.096-.1-.13-.104-.207-.157-.38-.162-.01-.071-.008-.145-.016-.217-.07-.01-.144-.005-.213-.02-.026-.155-.18-.111-.265-.21-.074-.13-.269-.061-.3-.234-.149-.033-.155.018-.17-.153-.102-.111-.411-.137-.454-.312-.059-.18-.199-.112-.345-.24-.18-.012-.203-.197-.376-.217-.096-.011-.154-.072-.218-.136-.042-.071.02-.19-.087-.21-.102-.031-.066.038-.09.105a1.172 1.172 0 0 0-.218-.28l-.05.065c-.175-.194-.297-.504-.527-.63-.521-.551-1.132-.916-1.743-1.378-.734-.509-1.448-1.052-2.18-1.566-.114-.064.109-.185.156-.222.183-.151.39-.253.552-.425ZM18.308 10.69c.147.087.282.188.411.299.154.25-.07.416-.276.52-.25.109-.26.344-.529.386-.105.01-.07.066-.097.143-.122.058-.158.016-.179.173-.214.02-.247.139-.403.25.051.024.104.042.152.07-.164.005-.17.125-.299.189-.108-.04-.155-.117-.19.047-.15.015-.114.095-.22.165.2.075-.053.107-.113.191-.017-.102 0-.115-.115-.1-.095.286-.506.353-.62.624-.093.04-.269.067-.334.14.022.108.06.142.006.25-.07.004-.12-.044-.163.032-.046.086-.095-.016-.142-.044-.048.119.107.073.006.172a5.563 5.563 0 0 0-.757.452c-1.076.778-2.134 1.54-3.22 2.327-.064.022-.114-.197-.12-.25.036.026.079.08.125.077.002-.061.01-.059-.05-.079.007-.081.042-.162.068-.239a.56.56 0 0 1 .053.166c.088-.117.147-.055.155-.243.158-.1.26-.097.318-.302.081-.119.118.095.192.017.08-.073.106.063.171-.034.048-.136.267-.064.15-.21-.094-.03-.169.2-.308.162.029-.1.206-.21.318-.21.076-.001-.044-.182.06-.17.171-.019.279-.179.375-.305.07-.014.134.01.203-.028.008-.175.189-.153.241-.324.095-.047.31-.031.138-.161.256.016.239-.185.446-.286.01-.245.152-.125.312-.217.046-.128.12-.13.23-.186.159-.07.219-.242.294-.383.154-.114.314-.055.38-.265.145.003.128-.225.195-.04.077-.19.273-.247.34-.434.226-.005.29-.174.444-.289.05-.126.157-.037.202-.21.193-.003.182-.125.308-.225.111-.114.256-.025.288-.215.12-.055.153-.028.175-.177a.585.585 0 0 0 .356-.234c.186-.229.445-.198.563-.5.119-.01.157-.048.248-.102.11.048.126.095.208-.025-.077-.037-.151-.039-.206-.11.174-.017.088-.066.093-.19.092.028.155.09.255.092-.05-.05-.1-.097-.139-.156Z" fill="#fff"/><path d="M18.72 10.989c.275.162.514.38.783.555-.095.143-.275.268-.388.397-.01.169-.177.083-.28.165-.095.058-.09.175-.177.233-.144.071-.23.188-.393.227-.057.204-.252.169-.289.363-.056.08-.227.063-.295.146-.162.126-.15.304-.372.366-.13.033 0 .052.043.095-.162.034-.314.088-.42.222-.346.029-.738.055-1.06.195-.163.064-.33.116-.492.184l-.177.06c.101-.099-.054-.053-.006-.171.047.027.096.129.142.043.043-.076.094-.028.163-.031.055-.11.016-.143-.006-.25.065-.074.24-.1.334-.14.114-.272.525-.339.62-.625.116-.015.098-.002.115.1.06-.084.312-.116.114-.191.105-.07.069-.15.218-.165.037-.164.083-.087.191-.047.13-.064.135-.184.3-.188-.05-.03-.102-.047-.153-.071.156-.111.189-.23.403-.25.02-.157.057-.115.179-.174.028-.077-.008-.133.097-.142.27-.042.28-.277.53-.386.204-.104.43-.27.275-.52Z" fill="#fff"/><path d="M19.503 11.544c.161.117.332.227.484.356.07.123.211.158.27.296-.062.128-.126-.003-.194-.045-.057-.032-.167-.028-.198.043.107.055.273.072.24.235-.086-.03-.13-.095-.23-.084-.206-.076-.235.234-.365.31-.198.025-.364.116-.432.311-.02.083-.137.02-.154.11-.044.126-.232.12-.328.175-.16.134-.352.418-.58.424-.009.064-.009.13-.016.194-.336-.108-.725-.083-1.068-.111.106-.134.258-.188.42-.222-.042-.043-.173-.062-.043-.095.223-.062.21-.24.372-.366.068-.083.24-.066.295-.146.037-.194.232-.16.289-.363.164-.039.249-.156.393-.227.087-.058.082-.175.176-.233.104-.082.27.004.28-.165.114-.129.294-.254.389-.397Z" fill="#fff"/><path d="M19.987 11.9c.314.19.594.436.9.639.067.118-.023.078-.04.191-.036.065-.119-.078-.17-.06-.186.222-.473.493-.785.574-.05.097-.036.186-.032.289-.14.07-.232.162-.4.164-.081-.006-.052.096-.1.134-.046.037-.098.063-.144.097.047.038.128.03.182.063-.034.086-.161.011-.235.029-.005.047.084.082.114.114a8.293 8.293 0 0 0-.655-.051 4.526 4.526 0 0 0-2.3-.215c-.15.026-.298.076-.45.085.322-.14.714-.166 1.06-.195.343.028.732.003 1.068.11.007-.064.007-.129.017-.193.227-.006.42-.29.579-.425.096-.055.284-.048.328-.174.017-.09.134-.027.154-.11.068-.195.234-.286.432-.311.13-.076.159-.386.365-.31.1-.011.144.054.23.084.033-.163-.133-.18-.24-.235.031-.07.141-.075.198-.043.068.042.133.173.193.045-.058-.138-.198-.173-.269-.296Z" fill="#fff"/><path d="M20.887 12.539c.178.146.383.266.552.417.043.1.133.13.215.192.022.059.022.128.017.19-.067.012-.281-.036-.145-.117.081-.043-.058-.133-.08-.053-.053.148-.189.325-.36.325-.145.06-.241.26-.408.272-.108.043-.149.17-.273.166-.085-.011-.05.104-.075.157-.154.073-.32.139-.458.238.242.006-.008.185.087.357-.138-.014-.245-.1-.386-.107-.308-.2-.607-.36-.95-.493.22.01.435.024.654.05-.03-.03-.119-.066-.114-.113.074-.018.201.057.235-.029-.054-.034-.135-.024-.182-.063.046-.034.098-.06.143-.097.05-.038.02-.14.1-.134.169-.002.26-.095.4-.164-.003-.103-.017-.192.033-.289.312-.081.599-.352.784-.575.052-.017.136.126.17.061.018-.113.108-.073.041-.191Z" fill="#fff"/><path d="M21.44 12.956c.087.056.164.12.265.152.172.144.37.248.534.403.038.136.257.147.287.295-.095.133-.238-.017-.344.096-.078.082-.14.042-.237.034-.174.152-.23.173-.218.424a5.674 5.674 0 0 1-.462.046c.001.144.018.28-.013.425-.143.022-.283.02-.427.012 0 .163-.019.42-.25.319-.136.068-.18-.094-.326-.113-.24-.131-.446-.323-.676-.473.14.007.248.093.386.107-.095-.172.155-.351-.087-.357.138-.1.304-.165.458-.238.026-.053-.01-.168.075-.156.124.003.165-.124.273-.167.167-.013.263-.213.408-.272.171 0 .307-.177.36-.325.021-.08.161.01.08.053-.136.081.078.129.145.117a.459.459 0 0 0-.017-.19c-.082-.063-.172-.091-.215-.192Z" fill="#fff"/><path d="M21.676 13.044a.805.805 0 0 1 .147.09c.657.525 1.522.974 1.995 1.663.553.734.827 1.639.8 2.55-.042.249-.017.553-.136.778-.181-.07-.324-.229-.49-.328a1106.715 1106.715 0 0 1-4.37-3.123c-.755-.539-1.715-.866-2.65-.804-.571-.038-1.097.128-1.627.323l.035-.056c.161-.068.33-.12.493-.184.151-.008.299-.06.449-.085a4.526 4.526 0 0 1 2.3.215c.344.133.643.292.95.493.23.15.437.341.677.473.442.36.928.674 1.393 1.003.239.185.492.355.738.53.694.496 1.393 1.003 2.097 1.485.04-.274.091-.525.083-.807-.038-.209.002-.418-.025-.624-.073-.366-.155-.77-.341-1.097a3.344 3.344 0 0 0-.611-.94c-.356-.442-.88-.767-1.344-1.088-.164-.155-.362-.259-.534-.403a4.16 4.16 0 0 0-.03-.064Z" fill="#fff"/><path d="M22.239 13.51c.464.322.988.647 1.344 1.089-.09.216-.3.284-.518.239-.179.009-.166.271-.31.284-.204.052-.273.192-.328.38a3.696 3.696 0 0 0-.338.184c.036.04.079.063.088.119-.107.032-.16-.069-.256-.05a.687.687 0 0 0-.083.157c.086.037.202.11.251.19-.195-.02-.241-.201-.447-.05-.465-.329-.951-.644-1.393-1.003.145.019.19.18.326.113.231.1.25-.156.25-.319.144.007.284.01.427-.012.031-.144.014-.281.013-.425.155-.01.308-.024.462-.046-.013-.251.044-.272.218-.424.097.008.159.048.237-.034.106-.113.249.037.345-.096-.031-.148-.25-.159-.288-.295ZM27.795 13.9c.403.152.73.591.743 1.027.036.363-.146.727-.246 1.078-.333.96-.626 1.938-.962 2.897l-.03-.006c.096-.386.267-.756.353-1.146.122-.25.17-.534.267-.795.098-.304.215-.6.297-.91.087-.165.103-.353.18-.524.102-.263.137-.53.061-.805-.106-.374-.37-.586-.663-.816ZM18.76 14.62c.105.041.387.162.392.267-1.244.919-2.508 1.818-3.757 2.733-.649.497-1.427.941-1.919 1.59-.6.736-.91 1.65-.942 2.591l-.027.001c-.012-.18.016-.356.023-.535.017-.144.055-.284.074-.428.105-.37.248-.71.41-1.058.246-.347.447-.71.772-.998.07-.068.138-.136.205-.205.27-.214.56-.401.828-.617.546-.378 1.09-.783 1.627-1.175.739-.524 1.473-1.07 2.208-1.599.145-.114.295-.185.424-.32-.304-.238-.76-.363-1.13-.469-1.18-.267-2.478.007-3.406.79-.119.07-.233.13-.326.234-.4.262-.779.558-1.17.833-.22.13-.42.349-.655.438a.65.65 0 0 1 .153-.143c.362-.259.718-.52 1.083-.774.748-.521 1.33-1.086 2.225-1.347a4.107 4.107 0 0 1 2.907.19Z" fill="#fff"/><path d="M23.974 14.255c.23.126.352.436.527.63l.05-.065c.092.08.155.177.218.28.024-.067-.012-.136.09-.105.107.02.045.139.087.21.064.064.122.125.218.136.173.02.197.205.376.217.146.128.286.06.345.24.043.175.351.2.453.312.016.172.022.12.17.153.032.173.227.105.301.235.085.098.239.054.264.21.07.015.143.01.214.019.008.072.006.146.015.217.174.005.25.058.38.162-.049.032-.16.015-.095.1.092-.07.112.03.206.042-.001-.054-.01-.107-.014-.161.139.013.024-.119.14-.132-.095.261-.144.546-.266.795-.058.089-.09.186-.13.284-.05-.032-.115-.133-.068-.002.096.143-.001.233-.046.372-.138-.126.126-.28-.088-.361-.05-.088-.035-.292-.04-.404-.15-.027-.282-.012-.396-.13-.134-.068-.066-.187-.163-.279-.079-.13-.245-.024-.363-.108-.01-.052-.012-.104-.022-.155-.09-.016-.17-.026-.244-.083-.131-.117-.293-.121-.388-.29-.052-.068-.14-.229-.234-.125-.1.033-.072-.29-.153-.24-.064.162.06.312.054.445-.184-.039-.092.073-.128.195-.056-.133-.007-.29-.035-.433-.022-.093.021-.216-.098-.242-.023.059.038.23-.07.184l-.053-.103c-.144-.763-.52-1.429-1.014-2.02ZM17.949 14.398c.369.106.825.231 1.13.47-.13.134-.28.205-.425.32-.735.528-1.47 1.074-2.208 1.598-.04-.073-.082-.078-.018-.152-.053-.003-.105-.004-.159-.01-.016-.14.004-.287-.012-.427-.093-.01-.19-.003-.284-.013-.02-.297.009-.598-.013-.895-.054-.008-.109-.01-.164-.018-.017-.14.005-.285-.012-.424-.067-.008-.134-.008-.2-.016a.147.147 0 0 1 .177-.115c.105.031.23-.13.292-.002-.043.034-.217.085-.2.149.122.022.262 0 .286-.143a.67.67 0 0 1-.033-.233c-.057.017-.103.09-.162.053-.14-.078-.226.141-.39.1-.094-.023.008.091-.08.067-.413.075-.583.334-.932.48.928-.782 2.226-1.056 3.407-.789Z" fill="#fff"/><path d="M16.106 14.487a.67.67 0 0 0 .032.233c-.023.143-.163.165-.285.143-.017-.064.157-.115.2-.15-.062-.126-.187.034-.292.003a.147.147 0 0 0-.178.115c.067.008.134.008.2.016.018.14-.004.284.013.424.055.007.11.01.165.018.02.297-.008.598.012.895.094.01.191.003.284.013.016.14-.004.286.012.427.054.006.106.007.16.01-.065.074-.023.08.017.152-.537.392-1.08.797-1.627 1.175.02-.114.277-.176.187-.276.045-.021.105-.002.153-.007.08-.066.136-.151.228-.205-.046-.053-.093-.104-.126-.168.07.018.132.048.203.06-.016-.057-.079-.07-.121-.113.024-.037.086-.074.088-.12-.064-.006-.085.042-.133.073-.092-.118-.2-.058-.33-.08-.018-.16.006-.326-.012-.486-.066-.008-.13-.008-.195-.016-.017-.315 0-.634-.007-.95-.065.068-.107.004-.07-.048.152-.08-.015-.242.155-.317-.143.021-.207.057-.325-.05-.11.052-.17.147-.298.164.093-.103.207-.164.326-.234.349-.147.519-.406.932-.481.088.024-.014-.09.08-.067.164.041.25-.178.39-.1.06.036.105-.036.162-.053ZM23.583 14.599c.249.272.468.6.61.94.011.075.038.147.05.223-.07.005-.117.034-.176.068 0-.085.055-.13.093-.2-.062-.062-.13-.1-.162-.188-.118.072-.184.147-.293.236-.027.133-.137.072-.17.186-.038.146-.158.036-.195.188-.111.054-.135.064-.173.186-.087.031-.263-.03-.292.083-.025.154-.235.139-.343.226-.057.048-.079.045-.152.035-.246-.175-.5-.345-.738-.53.206-.151.252.03.447.05a.598.598 0 0 0-.251-.19.687.687 0 0 1 .083-.157c.095-.019.149.082.256.05-.01-.056-.052-.078-.088-.12.111-.065.221-.13.338-.184.055-.187.123-.327.327-.379.145-.013.132-.275.31-.284.22.045.428-.023.519-.24Z" fill="#fff"/><path d="M14.514 15.257c.118.108.182.072.325.05-.17.076-.003.239-.155.318-.037.052.005.116.07.049.007.316-.01.634.007.95.065.007.13.007.195.015.018.16-.006.325.012.485.13.023.238-.037.33.08.048-.03.069-.078.133-.071-.002.045-.064.082-.088.119.042.042.105.056.121.113-.07-.012-.133-.042-.203-.06.033.064.08.115.126.168-.092.054-.148.14-.228.205-.048.005-.108-.015-.153.007.09.1-.167.162-.187.276-.267.216-.558.403-.828.617.078-.215.281-.218.408-.384-.09-.074-.184-.06-.292-.072-.004-.065.122-.057.167-.09.014-.128.013-.267.003-.397-.07-.068-.142-.11-.169-.213-.028-.117-.132-.174-.123-.29-.005-.154.011-.31-.006-.462-.054-.008-.11-.01-.164-.019-.02-.16.006-.326-.013-.487-.093-.02-.106.097-.197.082-.018-.089.087-.071.072-.172-.034-.115.212-.2.02-.234-.102.12-.25.147-.34.28-.213.099-.42.268-.614.406-.148.1-.277.217-.442.284a2.19 2.19 0 0 0 .09-.117c.235-.09.434-.307.655-.438.391-.275.77-.571 1.17-.833.128-.017.188-.112.298-.165ZM23.998 15.442c.032.088.1.126.162.189-.038.07-.092.114-.093.199.059-.034.107-.063.176-.069-.012-.075-.039-.147-.05-.222.187.327.27.731.342 1.097.027.206-.013.415.025.624.008.282-.044.533-.083.807-.704-.482-1.403-.989-2.097-1.485.073.01.095.013.152-.035.108-.087.318-.072.343-.226.03-.113.205-.052.292-.083.038-.122.062-.132.173-.186.037-.152.157-.042.194-.188.034-.114.144-.053.171-.186.109-.089.175-.164.293-.236Z" fill="#fff"/><path d="M13.697 15.84c.192.034-.054.12-.02.233.015.102-.09.084-.072.173.091.015.104-.103.197-.082.019.16-.006.327.013.487.055.008.11.01.164.019.018.152.001.308.006.461-.01.117.095.174.123.291.027.103.1.145.17.213.009.13.01.27-.004.398-.045.032-.171.024-.167.089.108.011.202-.002.292.072-.127.166-.33.17-.408.384-.067.069-.136.137-.205.205-.325.289-.526.65-.772.998.076-.312.388-.596.536-.88-.006-.146-.007-.153.14-.137-.032-.24-.256.003-.298.104-.034-.077-.155-.221-.082-.298.095.028.065.22.158.082 0-.042-.152-.163-.216-.107-.133-.07-.091-.263-.18-.386.201-.262-.258-.465-.213-.735-.025-.121-.072-.184-.037-.315-.107-.073-.208-.002-.226-.185-.021-.166.056-.096.17-.125a.456.456 0 0 0-.023-.273c.194-.138.4-.307.614-.406.09-.133.238-.16.34-.28ZM25.111 16.194c.12.026.076.149.098.242.028.143-.02.3.035.433.036-.122-.056-.234.128-.195.005-.133-.118-.283-.054-.445.081-.05.053.273.153.24.093-.104.182.057.234.126.095.168.257.172.388.289.074.057.154.067.244.083.01.051.012.103.022.155.118.084.284-.021.363.108.097.092.03.211.163.278.114.119.246.104.395.131.006.112-.008.316.04.404.215.08-.05.235.09.36-.032.074.001.119-.092.062-.008.072.004.147.006.219-.09-.199-.445-.028-.534-.14-.048-.162-.175-.112-.227-.246-.145-.062-.238-.25-.35-.353-.073-.032-.09-.048-.123-.118-.128-.054-.135-.049-.171-.187-.085-.02-.187.004-.267-.024-.066-.06-.11-.183-.218-.16-.176.037-.08-.277-.148-.32-.01.164.016.312-.053.467.006-.187-.045-.327-.096-.5.037-.08.131-.245-.03-.243-.04-.159-.023-.322-.066-.482.108.046.047-.125.07-.184Z" fill="#fff"/><path d="m24.988 16.275.053.103c.043.16.026.323.067.482-.01.235.016.455-.026.683-.027.17.035.337-.054.478-.055.08.124.085.129.172.065.214.328.139.395.317.058.078.106.148.143.239.117.028.214.246.253.004.194-.055.247.237.315.343.319.096.465.354.56.649-.013.084.114.076.122.004.09-.17.123-.382.23-.536-.152.544-.352 1.082-.524 1.623-.286-.04-.07.361-.244.47-.11-.06-.056-.158.014-.224.081-.197-.13-.26-.075-.486-.038-.103.146-.157.059-.216-.167.035-.353.006-.524.006-.01-.083-.004-.17-.013-.253-.141-.016-.287.005-.428-.012a5.889 5.889 0 0 1-.046-.458c-.195-.037-.443.064-.583-.096-.072-.067-.053-.143-.07-.23-.083 0-.05.14-.137.143.02-.184.08-.415.233-.534-.16-.018.056-.315.025-.413.215-.744.277-1.496.126-2.258ZM12.743 16.526a.456.456 0 0 1 .024.273c-.115.029-.192-.04-.171.125.018.183.119.112.226.185-.035.131.012.194.037.315-.045.27.414.473.212.735.09.123.048.316.181.386.064-.056.215.065.216.107-.093.139-.063-.054-.159-.082-.072.077.049.221.083.298.042-.101.266-.344.298-.104-.147-.016-.146-.01-.14.136-.149.285-.46.569-.536.881a6.992 6.992 0 0 0-.41 1.058c-.028-.144.025-.246.065-.378.034-.081-.065-.125-.038-.206.048-.04.19-.074.17-.154-.023-.16-.205-.027-.201-.18-.004-.137-.061-.225-.161-.314-.039-.205.058-.568-.144-.71-.19-.232-.126-.512-.346-.713.096-.174.006-.331-.005-.524.01-.091-.132-.085-.145-.15.017-.055.045-.105.058-.162-.086.014-.172-.006-.255.004-.125.083-.24.182-.365.267-.153.104-.304.236-.478.304.488-.395 1.027-.752 1.542-1.113.165-.067.294-.185.442-.284Z" fill="#fff"/><path d="M12.39 16.693a2.19 2.19 0 0 1-.089.117c-.514.36-1.054.718-1.542 1.113-.08.046-.158.097-.234.15l-.032-.009c.227-.202.492-.375.734-.56.39-.265.762-.567 1.164-.811ZM25.108 16.86c.16-.002.066.162.03.242.05.174.1.314.095.5.07-.154.044-.302.053-.465.069.041-.028.356.148.32.108-.024.152.1.218.159.08.028.182.004.267.024.036.138.043.133.171.187.033.07.05.086.122.118.113.102.206.291.35.353.053.134.18.084.228.247.089.11.443-.06.534.139-.002-.072-.014-.147-.006-.22.093.058.06.013.091-.06.045-.14.142-.229.046-.372-.047-.131.017-.03.068.002.04-.098.072-.195.13-.284-.086.39-.257.76-.352 1.146a2.712 2.712 0 0 1-.125.317c-.108.154-.141.367-.231.536-.008.072-.135.08-.123-.004-.094-.295-.24-.553-.56-.649-.067-.106-.12-.398-.314-.343-.04.242-.136.024-.253-.004a1.058 1.058 0 0 0-.143-.24c-.067-.177-.33-.102-.395-.316-.005-.087-.184-.092-.13-.172.09-.142.028-.308.055-.478.042-.228.016-.448.026-.683ZM11.602 17.352c.083-.01.17.01.255-.004-.013.057-.04.108-.057.163.012.064.153.058.144.149.011.193.1.35.005.523.22.201.157.482.346.714.202.142.105.505.144.71.1.089.157.177.161.314-.004.152.178.02.201.18.02.08-.122.114-.17.154-.027.081.072.125.038.206-.04.132-.094.234-.065.378-.019.144-.057.284-.074.428-.11.292-.027.661-.052.973-.07-.153.005-.335-.057-.499-.01-.12.026-.345.005-.446-.127-.1-.01.188-.115.147-.046-.227-.17-.428-.19-.669.004-.133-.098-.22-.15-.33-.033-.373-.234-.54-.285-.885-.061-.166-.02-.312-.155-.458-.009-.149-.09-.228-.124-.379-.087-.12-.036-.262-.154-.372.01-.115-.134-.233.007-.272-.062-.012-.123.002-.167-.047.087-.043.354-.173.194-.28-.01-.054-.007-.09-.05-.131.125-.085.24-.184.365-.267Z" fill="#fff"/><path d="M11.237 17.619c.043.042.04.077.05.13.16.108-.107.238-.194.28.044.05.105.036.167.048-.14.039.003.157-.007.272.118.11.067.251.154.372.035.15.115.23.124.38.134.145.094.291.155.457.051.345.252.512.284.886.053.11.155.197.151.33.02.24.144.441.19.668.104.04-.012-.247.115-.147.021.101-.015.325-.005.446.062.164-.013.346.057.5.12.897.458 1.634.713 2.497.236.722.483 1.45.716 2.173-.02.067-.008.121-.099.119-.474-.001-.951.01-1.426-.007.157-.04.31-.01.473-.03.271.02.562.013.826-.05a1.05 1.05 0 0 1-.194-.288c-.141.12-.067-.06-.13-.141-.035-.099.068-.178-.06-.238-.222-.144-.097-.347-.17-.567-.033-.09-.047-.225-.137-.274-.116-.108-.085-.238-.13-.371-.056-.174-.133-.335-.164-.515-.118-.123-.1-.277-.114-.435.014-.074-.122-.033-.132-.111a1.083 1.083 0 0 1-.007-.556c.013-.048-.046-.056-.076-.076-.017.032.006.132-.052.09-.09-.126-.046-.274-.136-.393-.086-.11-.03-.241-.11-.355a.57.57 0 0 1-.127-.353c-.007-.198-.173-.34-.178-.529-.005-.103-.105-.189-.112-.294-.023-.113-.016-.225-.114-.302-.046-.15-.034-.3-.117-.442-.075-.125-.088-.253-.107-.394-.04-.062-.099-.122-.129-.19-.019-.09 0-.242-.074-.31-.215-.209-.022-.51-.268-.73-.033-.22-.125-.454-.176-.651-.11-.102-.113-.216-.12-.357-.097.013-.143.113-.263.112.073-.076.165-.128.241-.2.076-.053.153-.105.234-.15.174-.068.325-.2.478-.304ZM28.21 17.777c.354.213.684.482 1.023.718.341.235.654.45.786.865.155.475-.01.849-.156 1.293-.627 1.902-1.233 3.719-1.852 5.623a1.16 1.16 0 0 1-.714.759 6.93 6.93 0 0 1-.095-.013L27.22 27a.707.707 0 0 0 .204-.088c.266-.13.488-.418.555-.703.623-1.863 1.254-3.801 1.878-5.676.088-.335.26-.617.165-.967-.05-.371-.27-.67-.591-.86a1.459 1.459 0 0 0-.277-.205l-.082-.05c-.09-.097-.209-.17-.322-.238-.152-.127-.32-.23-.481-.346-.077-.073-.093.057-.127.106-.122.376-.24.756-.37 1.13l-.015-.1c.094-.33.22-.65.316-.98.033-.08.046-.212.137-.246Z" fill="#fff"/><path d="M28.269 17.867c.16.115.33.219.481.346-.127.038-.288-.272-.381-.134.008.146-.077.249-.055.389-.154.05-.16.043-.141.204-.113-.023-.153.158-.23.224.048.076.278.154.108.222-.03.446-.14.737-.195 1.186 0 .098-.053.168-.107.246-.083.099-.032.283-.132.367-.105.08-.023.227-.078.338-.065.132-.043.279-.115.409-.054.101.073.14.022.23-.076.163.012.308-.13.44-.082-.045-.137.092-.163.147-.001.258-.06.504-.099.758-.002.042-.055.067-.08.098-.014.224.01.513-.111.712-.041.03-.128.033-.148.083-.01.187-.127.277-.04.47-.054.213-.066.431-.152.636-.085.274.05.562-.255.715-.055.166-.136.341-.072.51-.081.172.033.422-.232.403.056.06.381.064.18.133.156.01.295-.012.447.023a2.831 2.831 0 0 1-.473.001c-.21-.047-.437-.006-.65-.024-.003-.066.236.021.194-.078-.066-.008-.133-.008-.2-.015.003-.084.142-.053.147-.14.049-.26.084-.475.187-.725.17-.169.151-.363.163-.584.113-.1.096-.203.111-.34-.042-.34.085-.71.235-1.011-.162-.053.044-.037.095-.08.037-.157-.055-.385.084-.492.065-.054.025-.16.072-.234.05-.08-.054-.114-.029-.204.04-.122.087-.246.139-.364.06-.064.102-.091.1-.188-.07.051-.193.144-.266.165-.04-.192.268-.128.169-.3.043-.169.18-.394.256-.556.041-.228.169-.403.153-.646.23-.7.447-1.409.694-2.104.13-.374.248-.754.37-1.13.034-.049.05-.179.127-.106Z" fill="#fff"/><path d="M28.75 18.213c.113.068.232.14.322.238-.097-.031-.186-.097-.286-.115.016.212-.118.388-.112.606-.182.059-.098.365-.162.514-.123.262-.06.578-.202.823-.029.158-.09.303-.1.465.005.1-.11.112-.115.206-.03.166-.024.325-.107.478-.046.269-.063.537-.155.796-.092.138-.055.268-.073.42-.218.07-.136.294-.178.472-.232.177.004.631-.188.809-.013.188-.136.29-.101.492.013.128-.084.059-.137.127-.023.19-.01.369-.104.545-.056.098-.054.188-.057.297-.116.342-.095.603-.26.97-.209.07.017.4-.165.513-.117.082.174.018.065.117-.016.038.165.006.206.012.126.007.252-.002.379.002l-.018.022a.89.89 0 0 1-.345.032c-.087-.022-.176-.026-.266-.032-.152-.035-.29-.014-.448-.023.202-.07-.123-.073-.178-.133.264.02.15-.231.23-.403-.063-.169.018-.344.073-.51.305-.153.17-.441.255-.715.086-.205.098-.422.153-.636-.087-.193.03-.283.04-.47.019-.05.106-.053.147-.083.122-.199.097-.488.11-.712.026-.031.08-.056.081-.098.038-.254.098-.5.099-.758.026-.055.081-.192.162-.148.143-.131.055-.276.131-.438.05-.09-.076-.13-.022-.231.072-.13.05-.277.115-.409.055-.111-.027-.258.078-.337.1-.085.05-.269.133-.368.053-.078.106-.148.106-.246.054-.45.165-.74.195-1.186.17-.068-.06-.146-.107-.222.076-.066.116-.247.229-.224-.02-.162-.013-.155.141-.204-.022-.14.063-.243.055-.389.093-.138.255.172.381.134ZM10.493 18.064l.032.01c-.076.071-.168.123-.24.2-.073.043-.143.089-.212.139-.245.197-.57.349-.762.599a.93.93 0 0 0-.174.297c-.163.363-.058.69.068 1.043.638 1.933 1.27 3.87 1.906 5.803.048.171.116.334.234.471.14.223.457.374.711.417.598.04 1.21.008 1.811.017.098.02.051-.096.04-.15-.233-.722-.48-1.45-.716-2.172-.255-.863-.593-1.6-.713-2.498.025-.312-.058-.681.052-.973-.007.18-.035.354-.023.535-.005.203-.004.397.051.594.057.564.306 1.137.468 1.68.322.967.63 1.92.948 2.878.009.035.03.124-.013.142-.68-.03-1.371.03-2.048-.033-.489-.138-.77-.527-.882-1.003-.546-1.641-1.116-3.395-1.659-5.051-.123-.415-.309-.818-.372-1.246.002-.386.147-.72.454-.965.338-.253.679-.514 1.04-.734Z" fill="#fff"/><path d="M10.547 18.161c.007.14.01.255.12.357.05.197.143.43.176.65.246.222.053.522.268.731.074.067.055.22.074.31.03.068.089.128.13.19.018.141.03.27.107.394.082.142.07.292.116.442.098.077.091.189.114.302.007.105.107.191.112.294.005.19.171.331.178.529 0 .131.047.25.127.353.08.114.024.245.11.355.09.12.046.267.136.393.058.042.035-.058.052-.09.03.02.09.028.076.076-.04.184-.05.373.007.556.01.078.147.037.132.11.014.16-.004.313.114.436.03.18.107.341.164.515.045.133.014.263.13.371.09.05.104.184.138.274.072.22-.053.423.168.567.129.06.026.14.061.238.063.082-.011.261.13.141.053.111.11.198.194.288-.264.063-.555.07-.825.05.084-.03.23.007.276-.076-.188-.11-.187-.325-.368-.458a.64.64 0 0 0-.132-.432c.01-.246-.064-.45-.117-.68-.102-.09-.096-.208-.226-.273.047-.218-.121-.358-.107-.57.02-.186-.131-.308-.125-.497a.721.721 0 0 0-.241-.314c.047-.218-.121-.358-.107-.57.011-.184-.123-.337-.126-.526-.06-.11-.09-.226-.215-.282-.04-.168.003-.323-.127-.46.014-.234-.097-.422-.108-.657-.13-.084-.118-.22-.233-.296-.005-.042.005-.085.006-.127-.196-.22-.034-.49-.21-.758-.092-.058-.02-.2-.095-.287-.065-.188-.222-.144-.169-.364-.183-.346-.041-.724-.359-.953.069-.05.14-.096.211-.14.12.001.166-.099.263-.112ZM28.786 18.336c.1.018.189.084.286.115l.082.05c-.057.02-.028.113-.05.162-.079.195-.214.364-.184.583.033.275-.077.565-.19.81-.04.142.025.349-.113.446-.23.437-.09.858-.314 1.301-.054.124-.072.276-.091.41-.002.145-.139.232-.152.381-.104.26-.05.59-.189.835-.019.214-.124.384-.103.606 0 .087.004.113-.066.17-.178.299-.186.6-.215.935-.13.143-.05.288-.163.424-.047.13-.033.294-.037.43-.274.259-.15.562-.261.888-.015.084-.148.034-.185.116-.041-.006-.222.026-.206-.012.109-.099-.182-.035-.065-.117.182-.113-.044-.444.165-.513.165-.367.144-.628.26-.97.003-.11 0-.199.057-.297.093-.176.08-.354.104-.545.053-.068.15.001.137-.127-.035-.203.088-.304.1-.492.193-.178-.043-.632.19-.81.041-.177-.041-.402.177-.47.018-.153-.019-.283.073-.42.092-.26.11-.528.155-.797.083-.153.076-.312.107-.478.004-.094.12-.105.115-.206.01-.162.071-.307.1-.465.142-.245.079-.56.202-.823.064-.15-.02-.455.162-.514-.006-.218.128-.394.112-.606Z" fill="#fff"/><path d="M10.073 18.413c.318.23.176.607.359.953-.053.22.104.176.169.364.075.087.002.229.095.287.176.269.014.538.21.758 0 .042-.01.085-.007.127.116.076.105.212.234.296.011.235.122.423.108.658.13.136.087.291.127.46.125.055.154.17.215.281.003.19.137.342.126.527-.014.21.154.351.107.57.108.068.192.2.241.313-.006.189.145.311.125.498-.014.21.154.351.107.57.13.064.124.183.226.271.053.23.128.435.117.681a.64.64 0 0 1 .132.432c.181.133.18.348.368.458-.046.083-.192.047-.277.077-.164.018-.316-.01-.473.029-.108.008-.217.01-.325.02-.255-.043-.572-.194-.712-.417.187.116.316.268.537.332.158.064.318.05.482.025.113-.02.213.012.3-.07-.072-.054-.152-.066-.233-.102-.072-.074-.013-.222-.076-.305-.07-.124-.18-.238-.176-.386-.01-.152-.122-.255-.17-.383.007-.256-.128-.431-.1-.694-.177-.068-.178-.215-.222-.374-.049-.177-.173-.279-.156-.458.008-.126-.063-.227-.063-.353-.014-.071-.002-.207-.08-.24-.195-.166-.133-.356-.262-.564-.066-.112-.013-.241-.084-.357-.106-.169.046-.436-.206-.501-.065-.156-.016-.31-.136-.453-.136-.138-.046-.28-.122-.436-.088-.144-.034-.279-.06-.435-.092-.05-.154-.09-.189-.193.003-.277-.242-.408-.19-.7-.04-.137-.1-.156-.06-.321-.034-.195-.226-.259-.235-.47-.015-.14-.024-.171-.148-.24-.008-.104.202-.078.267-.092-.036-.066-.257-.24-.225-.057-.184-.056-.251.157-.427.213.191-.25.517-.402.762-.6ZM29.154 18.5c.101.06.192.126.277.207-.202-.06-.06.098-.144.217.056-.006.135-.06.188-.033-.162.165-.16.477-.253.69-.093.173-.053.372-.126.545-.16.204-.177.516-.177.765-.098.33-.247.675-.24 1.024-.06.082-.126.15-.156.252-.015.244-.101.48-.131.722.008.123-.095.177-.093.293-.018.173-.102.32-.088.5.02.142-.095.184-.13.313a6.69 6.69 0 0 0-.174.8c-.053.108-.049.203-.06.32-.1.144-.116.212-.11.39.025.16-.118.208-.14.355-.026.186-.06.367-.14.539-.033.047.127.103.046.133-.116.058-.22.163-.13.292-.127.11-.067.065.05.088a.707.707 0 0 1-.203.088c-.127-.004-.253.005-.38-.002.038-.082.17-.032.186-.116.111-.326-.013-.629.261-.887.004-.137-.01-.3.037-.431.114-.136.033-.281.163-.424.029-.335.037-.637.216-.935.069-.057.066-.082.065-.17-.021-.222.084-.392.103-.606.138-.245.085-.574.189-.835.013-.149.15-.236.152-.38.019-.134.037-.287.091-.411.225-.443.085-.864.314-1.3.138-.098.073-.305.113-.447.113-.245.223-.535.19-.81-.03-.22.105-.388.184-.583.022-.05-.007-.141.05-.162ZM24.862 18.533c.03.098-.184.395-.025.413-.154.119-.213.35-.233.534.087-.002.054-.143.137-.144.017.088-.002.164.07.23.14.16.387.06.583.097.01.153.024.306.046.457.14.018.287-.003.428.013.01.083.004.17.013.253.17 0 .357.03.524-.006.087.06-.097.113-.06.216-.054.226.157.29.076.486-.07.066-.124.164-.014.225.175-.11-.042-.51.244-.471-.12.385-.224.803-.445 1.145-.086.06-.107.152-.169.229-.117-.187-.07-.274-.012-.463-.041.03-.077.07-.121.096-.145-.079-.33-.021-.497-.047-.017-.151.005-.307-.012-.458-.142-.017-.29.004-.431-.012-.017-.141.004-.288-.012-.429a2.75 2.75 0 0 0-.429 0c.012.165.102.437-.177.373.073-.266-.165-.283-.232-.5.193-.55.354-1.075.537-1.623.061-.203.105-.43.21-.614Z" fill="#fff"/><path d="M29.43 18.707c.322.19.541.488.592.86-.104-.107-.088-.29-.187-.407-.07-.08-.121-.212-.228-.24.018.069.106.136.049.202-.315.477-.219 1.133-.458 1.63-.058.125.008.241-.079.363-.235.426-.161.81-.299 1.261-.08.138-.096.283-.126.436-.107.283-.257.617-.223.924-.081.34-.263.606-.205.969-.226.213-.165.486-.293.74-.142.11.086.244.028.409-.085-.005-.033-.118-.137-.14-.044.122-.023.223-.009.347-.052.176-.178.379-.159.564.164-.1.153-.332.283-.416a1.105 1.105 0 0 1-.555.703c-.118-.023-.178.022-.05-.088-.091-.129.013-.234.129-.292.08-.03-.079-.086-.046-.133.08-.172.114-.353.14-.539.022-.147.165-.195.14-.356-.005-.177.01-.245.11-.39.011-.116.007-.21.06-.32a6.69 6.69 0 0 1 .174-.799c.035-.129.15-.171.13-.312-.014-.18.07-.328.088-.5-.002-.117.1-.171.093-.294.03-.243.116-.478.131-.722.03-.101.096-.17.156-.252-.007-.35.142-.693.24-1.024 0-.249.017-.56.177-.765.073-.173.033-.372.126-.546.093-.212.091-.524.253-.69-.053-.026-.132.028-.188.034.085-.12-.058-.277.144-.217ZM9.963 18.856c-.065.014-.275-.012-.267.091.124.07.133.102.148.24.01.212.201.276.236.471-.04.165.019.184.06.322-.053.291.192.422.19.699.034.104.096.142.188.193.026.156-.028.29.06.435.075.155-.014.298.123.436.119.143.07.297.135.453.252.065.1.332.206.501.07.116.018.245.084.357.13.208.067.398.261.564.079.034.067.169.082.24 0 .125.07.227.062.353-.017.18.107.281.156.458.044.159.045.306.221.374-.027.263.108.438.101.694.048.128.16.23.17.384-.004.147.105.26.176.385.063.083.004.23.076.305.082.036.16.048.234.102-.088.082-.188.05-.3.07-.165.026-.325.039-.483-.025.218-.038.092-.164-.048-.153-.04-.133.04-.242-.131-.282.053-.132.023-.174-.042-.293-.043-.166.06-.281-.143-.363a10.53 10.53 0 0 1-.113-.77c-.144.082-.066.005-.042-.087-.247-.083-.152-.303-.208-.482-.193-.028-.09-.168-.196-.299.058-.152-.005-.33.004-.517-.044.005-.08.026-.118.045.011-.08.014-.09.088-.125-.21.004-.185-.286-.224-.425-.02-.127-.159-.029-.155-.172-.001-.123-.075.044-.143-.031.032-.091.127-.17.143-.262-.07-.134-.056-.255-.063-.401-.133.033-.16-.037-.032-.084-.233-.08-.191-.277-.206-.477-.101-.072-.162-.05-.193-.191-.12-.077-.057-.182-.022-.288-.022-.124-.052-.238-.047-.366-.174.095-.052-.032-.004-.09-.315-.014-.028-.469-.335-.498-.03-.278-.116-.529-.107-.803-.176.12-.001-.178-.233-.11.09-.108.097-.23.135-.36-.158-.123-.177.176-.31.235a.93.93 0 0 1 .174-.297c.176-.056.243-.269.427-.213-.032-.183.189-.01.225.057ZM14.43 18.951c.553 1.714 1.157 3.452 1.689 5.164l-.03.012c-.173-.465-.299-.952-.472-1.42-.089-.252-.147-.525-.26-.766-.043-.252-.167-.487-.24-.733-.222-.712-.463-1.42-.696-2.128-.025-.054-.008-.16-.099-.117-.525.44-.882 1.017-1.109 1.658-.102.22-.124.45-.18.683l-.028-.012c.1-.862.575-1.7 1.195-2.304.059-.055.18-.16.23-.037ZM27.3 18.896l.03.006c-.136.55-.364 1.081-.516 1.628-.178.455-.269.932-.488 1.369a4 4 0 0 1-1.817 1.868c-.444.228-.951.346-1.445.41-.05.009-.075-.022-.102-.057.154-.453.313-.922.458-1.378.05-.177.095-.38.2-.533l.005.031c-.163.61-.39 1.203-.577 1.805-.019.045.007.067.05.076.938-.09 1.799-.533 2.46-1.195.24-.282.517-.597.648-.945.221-.342.326-.76.445-1.145.172-.54.372-1.079.525-1.623.05-.102.088-.21.125-.317Z" fill="#fff"/><path d="M29.607 18.92c.107.028.158.16.228.24.099.117.083.3.187.406.094.35-.077.632-.165.967-.624 1.875-1.255 3.813-1.878 5.676-.13.084-.12.317-.283.416-.019-.185.107-.388.16-.564-.015-.124-.036-.225.008-.348.104.023.052.136.137.141.058-.165-.17-.298-.028-.409.128-.254.067-.527.293-.74-.058-.363.124-.63.205-.969-.034-.307.116-.64.223-.924.03-.153.046-.298.126-.436.138-.452.064-.835.3-1.26.085-.123.02-.239.078-.363.239-.498.143-1.154.458-1.63.057-.067-.03-.134-.05-.204ZM14.322 18.963c.09-.044.074.063.099.117.233.709.474 1.416.696 2.128.004.089.02.177.019.265-.197.037-.35-.082-.45.145-.433.025-.876-.01-1.31.015-.022.08.005.137-.092.163-.038-.15-.08-.298-.11-.45l-.09-.026c.029-.233.12-.465.13-.699.226-.641.583-1.217 1.108-1.658ZM27.757 19.004l.015.1c-.247.695-.463 1.402-.694 2.103-.159.472-.311.933-.584 1.357-.13.232-.314.42-.464.637-.434.44-.905.786-1.46 1.064-.444.164-.874.314-1.35.367l-.157-.011.004-.026a4.475 4.475 0 0 0 2.1-.734 4.337 4.337 0 0 0 1.67-2.106c.316-.91.595-1.846.92-2.751ZM9.447 19.073c-.038.13-.045.253-.135.361.232-.068.057.23.233.11-.01.274.077.525.107.803.307.03.02.484.335.498-.048.058-.17.185.004.09-.005.128.025.242.047.366-.035.106-.099.21.022.288.031.141.092.119.193.191.015.2-.027.397.206.477-.129.047-.101.117.032.084.007.146-.007.267.063.401-.016.092-.111.17-.143.262.068.075.142-.092.143.03-.004.144.135.046.155.173.04.139.014.43.224.425-.074.034-.077.045-.088.125.039-.019.074-.04.118-.045-.009.188.054.365-.004.517.105.131.003.271.196.299.056.18-.04.4.208.482-.024.092-.102.17.043.086.027.254.066.521.112.771.203.082.1.197.143.363.065.12.095.16.042.293.172.04.091.149.13.282.14-.011.267.115.049.153-.221-.064-.35-.215-.537-.332a1.203 1.203 0 0 1-.234-.471c-.636-1.934-1.268-3.87-1.906-5.803-.126-.352-.23-.68-.068-1.043.133-.06.152-.358.31-.236Z" fill="#fff"/><path d="M13.213 20.621c-.01.235-.1.466-.13.7l.09.025c.03.152.073.3.111.45.097-.026.07-.083.093-.163.433-.024.876.01 1.31-.015.098-.227.252-.108.449-.145.002-.088-.015-.176-.02-.265.074.246.198.481.24.733.063.218-.07.28-.135.472-.024.04-.059.096-.112.092-.592.008-1.187-.006-1.78.007-.027-.004-.053-.012-.08-.018-.01.13.018.243-.039.364a.583.583 0 0 1-.11-.117c-.066-.395-.132-.776-.07-1.18.014-.085.01-.17.003-.257.056-.233.078-.462.18-.683ZM24.114 20.77c.067.217.305.234.232.5.279.064.19-.208.177-.373.14-.01.29-.012.429 0 .016.141-.005.288.012.429.142.016.29-.005.431.012.017.15-.005.307.012.458.166.026.352-.032.497.047.044-.026.08-.065.12-.096-.058.189-.104.276.013.463.062-.077.083-.168.169-.229-.131.348-.408.662-.648.945-.661.662-1.522 1.106-2.46 1.195-.043-.01-.069-.03-.05-.076.187-.602.414-1.196.577-1.805.192-.477.323-.983.49-1.47ZM27.078 21.207c.016.243-.112.418-.153.646-.075.162-.213.387-.256.556.1.172-.208.108-.169.3.073-.02.195-.114.266-.165.002.097-.04.124-.1.188a4.202 4.202 0 0 0-.139.364c-.025.09.08.123.029.204-.047.074-.007.18-.072.234-.14.107-.047.335-.085.493-.05.042-.256.026-.094.079-.15.301-.277.672-.235 1.01-.015.138.002.24-.11.34-.013.222.006.416-.164.585-.103.25-.138.465-.187.726-.005.086-.144.055-.147.14.067.006.134.006.2.014.043.1-.197.012-.195.078.214.018.442-.023.651.024-.377.017-.75.016-1.124-.025.034-.148-.281-.105-.053-.158.016-.204.308-.217.144-.427.134-.063.027-.19.15-.255.074-.117-.057-.21-.001-.35-.005-.106.075-.236.04-.33.22-.038.109-.296.186-.445.04-.163.101-.315.138-.479.099-.054.052-.15.108-.243.041-.077.02-.136-.016-.207.112-.029.014-.11-.007-.175-.02-.08-.125.067-.17-.006-.08-.055.049-.065.086-.088.1-.021.06-.163.072-.237.095-.123.342-.246.36-.397.15-.217.332-.405.463-.637.273-.424.425-.885.584-1.357Z" fill="#fff"/><path d="M13.005 21.291c-.025.413-.041.803.006 1.216a.338.338 0 0 1-.061-.205c.002-.294 0-.589 0-.883-.004-.055.025-.085.055-.128Z" fill="#fff"/><path d="m13.005 21.291.028.013c.007.086.01.172-.003.258-.062.403.004.784.07 1.18l-.009.064c-.033-.098-.049-.2-.08-.3-.047-.412-.03-.802-.006-1.215ZM12.507 21.802h.027c-.012.202.054.391.024.594a1.945 1.945 0 0 1-.05-.594ZM15.356 21.94c.114.242.172.515.26.767-.025.159.083.261.034.419-.034.074.103-.06.076 0-.036.127.05.222.032.348-.082-.012-.14-.18-.16-.252-.326-.025-.663-.002-.991-.01-.14.01-.265-.044-.37.072-.112.044-.273-.01-.39.029-.164.09-.392.027-.575.049-.067-.184-.123-.37-.181-.556l.01-.065a.583.583 0 0 0 .11.117c.056-.121.028-.235.038-.364.027.006.053.014.08.018.593-.013 1.188 0 1.78-.007.053.004.088-.052.112-.092.065-.192.198-.254.135-.472Z" fill="#fff"/><path d="M13.011 22.507c.031.099.047.2.08.3.058.186.114.371.18.555.017.068.041.132.07.196.163.553.346 1.116.552 1.654.042.217.116.422.198.626.087.264.157.538.27.792.193.688.445 1.367.655 2.052.017.05.038.099.058.148.03.123.082.228.092.356a.14.14 0 0 1-.063-.093c-.59-1.792-1.142-3.496-1.754-5.31-.106-.412-.334-.85-.338-1.276Z" fill="#fff"/><path d="M15.617 22.707c.173.468.3.955.472 1.42-.002.065-.002.13-.01.195-.241.036-.464-.036-.703-.024-.518.007-1.042-.01-1.559.008-.048.18-.18.058-.176-.061.002-.071.049-.116-.031-.16-.159-.105-.147-.384-.27-.527a1.179 1.179 0 0 1-.068-.196c.183-.022.411.04.575-.05.117-.037.278.016.39-.028.105-.116.23-.061.37-.072.328.008.665-.015.99.01.022.071.079.24.16.252.019-.126-.067-.221-.03-.348.026-.06-.111.074-.077 0 .049-.158-.06-.26-.033-.419ZM26.03 23.201c-.017.15-.264.274-.359.397-.161.144-.325.27-.5.395.065.026.134.001.14.091-.05.007-.103.01-.154.018-.014.226-.174.333-.384.37-.21.113.108.038.179.038.01.307.01.621 0 .928-.074.008-.15.006-.225.014-.024.177.03.331-.054.498-.008.211-.015.371-.082.574-.106.046.014-.27-.1-.222-.02.17.008.346-.014.516-.081.049-.196.034-.29.046.098.087.249.008.328.097-.046.012-.113.004-.15.036.21.011.42.005.629 0 .374.042.747.043 1.124.026.158.014.315.012.473-.001.09.006.178.01.266.032-.679.01-1.362.013-2.04-.001-.181-.046-.375-.006-.562-.03-.172-.043-.361-.01-.539-.024.178-.059-.012-.09-.082-.127.267-.042.067-.335.166-.489.19-.048.023-.345.126-.432.178-.014.071-.164.17-.273.162-.207.063-.404.098-.642a.604.604 0 0 0 .023-.473c-.083-.118.186-.011.085-.129.036-.058.204-.095.269-.169a5.455 5.455 0 0 0 1.46-1.064Z" fill="#fff"/><path d="M13.34 23.558c.123.143.111.422.27.527.08.044.033.089.031.16-.004.12.128.242.176.06.517-.016 1.041 0 1.559-.007.24-.012.462.06.703.024.008-.064.008-.13.01-.195l.03-.012c-.01.219.125.438.18.648-.002.197.166.396.135.586-.084.06-.156-.01-.242-.032.033-.076.054-.138.037-.223-.113-.014-.08.184-.174.172-.255.01-.511-.005-.766.005-.084-.002-.056.126-.15.114-.266.003-.533.001-.799 0-.074.01-.083-.054-.138-.089-.027.069.032.215-.088.168-.168-.01-.136-.143-.221-.252a22.567 22.567 0 0 1-.553-1.654ZM25.671 23.598c-.013.074.027.216-.072.237-.037.023-.165.033-.086.088.045.073.15-.074.17.006.021.064.12.146.007.175.035.071.057.13.016.207-.056.094-.01.19-.108.243-.037.164-.098.316-.138.48-.077.148.033.406-.186.445.035.093-.045.223-.04.33-.056.139.075.232 0 .35-.122.064-.015.191-.149.254.164.21-.128.223-.144.427-.228.053.087.01.053.158-.209.004-.42.01-.628-.001.036-.032.103-.024.149-.036-.08-.09-.23-.01-.328-.097.094-.012.209.003.29-.046.022-.17-.005-.346.013-.516.115-.047-.005.268.101.222.067-.203.074-.363.082-.574.085-.167.03-.321.054-.498.074-.008.15-.006.225-.014.01-.307.01-.621 0-.928-.071 0-.388.075-.179-.039.21-.036.37-.143.384-.37.051-.008.103-.01.154-.017-.006-.09-.075-.065-.14-.09.175-.126.339-.252.5-.396Z" fill="#fff"/><path d="M16.119 24.115c.152.355.243.727.44 1.065.654 1.264 1.938 2.089 3.338 2.294l.005.027-.059.002a4.48 4.48 0 0 1-2.327-1.041 4.616 4.616 0 0 1-1.217-1.7c-.055-.21-.19-.428-.18-.647ZM24.57 24.265c-.064.074-.232.111-.268.17.1.117-.168.01-.085.128a.604.604 0 0 1-.023.473c-.035.238.064.435-.098.642-.099.11.008.259-.17.273-.103.087.064.384-.126.432-.1.154.1.447-.166.489.07.037.26.068.082.127.178.014.367-.019.539.024a5.582 5.582 0 0 1-.65 0c-.215-.061-.396.039-.594-.087-.1-.028.072-.05.052-.112-.01-.295.034-.578.04-.872.078-.045.161-.032.252-.046.017-.14-.007-.285.014-.423.052-.023.106-.034.16-.052.017-.103.017-.28 0-.383-.058-.03-.235-.03-.135-.128.045-.11.195-.009.17-.142-.241-.035-.468-.073-.712-.086.123-.018.245-.04.367-.06.477-.053.907-.203 1.352-.367Z" fill="#fff"/><path d="M16.854 24.593c2.07.001 4.142-.003 6.213.002l-.004.026a5.063 5.063 0 0 0-.11.01c-2.018-.02-4.049-.005-6.069-.008-.161.011-.064.143-.008.212a3.984 3.984 0 0 0 2.522 2.085l-.013.031-.056.004c-1.161-.33-2.146-1.183-2.594-2.301.019-.065.063-.058.119-.061Z" fill="#fff"/><path d="M16.884 24.623c2.02.003 4.05-.012 6.07.008-.527.047-1.073.007-1.604.02-.58.012-1.17-.028-1.745.032-.503-.056-1.001-.023-1.509-.031-.417.057-.832.014-1.259.032.012.05.027.1.04.15-.057-.068-.154-.2.007-.21Z" fill="#fff"/><path d="m22.953 24.631.11-.01.156.01c-.122.021-.244.043-.367.06-.372-.02-.751-.01-1.125-.004-.41-.014-.823 0-1.235-.008-.077.008-.161-.022-.208.055.21.022.565-.025.742.086-.21.034-.412-.003-.623.008-.496.063-1.005.008-1.504.035a.581.581 0 0 0 0 .076c.588.016 1.182 0 1.771.007.063.005.156.017.199.067a2.4 2.4 0 0 1 .002.427h-.048c-.015-.14.004-.287-.011-.427-.074.006-.15.017-.224.03-.022.269.005.541-.011.81.006.07-.121.055-.166.074-.024.296.008.597-.014.892-.218.028-.469-.03-.673.045.107.098.346.124.478.058.085-.037.107.092.2.08.274 0 .548.003.82-.004.418.009.835 0 1.252.004.373.047.755.03 1.13.021.216.014.435.012.65 0 .188.024.382-.015.563.03-.672.018-1.346.003-2.018.008-.51-.007-1.025.013-1.533-.01-.523-.06-1.065.038-1.597-.084-.09-.022-.18-.04-.271-.046a3.984 3.984 0 0 1-2.522-2.086l-.039-.15c.427-.019.842.024 1.26-.033.507.008 1.005-.025 1.508.031.575-.06 1.165-.02 1.745-.031.53-.014 1.077.026 1.603-.021Z" fill="#fff"/><path d="M20.492 24.68c.412.006.824-.007 1.235.007.119.075.233.025.338.137.146-.016.372-.043.496.048-.198.105-.376.014-.587.05-.033.162.198.04.174.199-.003.408.009.82-.006 1.228-.074.008-.15.005-.224.014-.02.168.008.342-.014.51-.163.018-.297.092-.465.07-.067.008-.193-.03-.216.055-.273.007-.547.004-.82.004-.094.012-.115-.117-.2-.08-.133.066-.372.04-.48-.058.205-.075.456-.017.674-.045.022-.295-.01-.596.014-.892.045-.02.172-.004.166-.074.016-.269-.01-.541.01-.81.074-.013.15-.024.225-.03.015.14-.004.286.01.427h.049a2.4 2.4 0 0 0-.002-.427c-.043-.05-.136-.062-.199-.067-.589-.007-1.183.009-1.77-.007a.581.581 0 0 1 0-.076c.498-.027 1.007.028 1.503-.035.21-.01.413.026.623-.008-.177-.111-.531-.064-.742-.086.047-.077.13-.047.208-.055Z" fill="#fff"/><path d="M21.727 24.687c.374-.006.753-.016 1.125.005.244.013.47.05.712.087.025.132-.125.032-.17.141-.1.098.077.098.135.128.017.102.017.28 0 .383-.054.018-.108.03-.16.052-.02.138.003.284-.014.423-.09.014-.174.001-.253.046-.005.294-.049.577-.039.872.02.062-.152.084-.052.112.198.126.379.026.593.087-.375.01-.757.026-1.13-.021-.417-.003-.834.005-1.251-.004.023-.084.15-.047.216-.055.168.022.302-.052.465-.07.022-.168-.006-.342.014-.51.074-.009.15-.006.224-.014.015-.408.003-.82.006-1.228.024-.159-.207-.037-.174-.199.21-.036.389.055.587-.05-.123-.091-.35-.064-.496-.048-.105-.112-.22-.062-.338-.137ZM16.299 24.763a4.616 4.616 0 0 0 1.217 1.699c-.172.01-.328.043-.486-.043-.317.01-.619-.062-.934-.027-.022.052.013.154-.07.138-.28-.01-.547.04-.825.036a.625.625 0 0 1-.43.039c-.047-.072-.083-.153-.137-.22-.056-.042-.16.002-.225.006.042.127.141.191-.047.239-.114-.254-.184-.528-.271-.792a3.423 3.423 0 0 1-.198-.626c.085.11.053.243.221.252.12.047.061-.1.088-.168.055.035.064.099.138.09.266 0 .533.002.8-.001.093.012.065-.116.149-.114.255-.01.51.006.766-.005.095.012.06-.186.174-.172.017.085-.004.147-.037.223.086.023.158.091.242.032.03-.19-.137-.389-.136-.586Z" fill="#fff"/><path d="M16.183 25.367c.08-.037.039.057.05.102-.085-.032-.097-.013-.05-.102ZM14.634 26.385c.054.067.09.148.137.22a.625.625 0 0 0 .43-.04c.278.005.546-.044.824-.035.084.016.05-.086.072-.138.314-.035.616.037.933.027.158.086.314.053.486.043a4.48 4.48 0 0 0 2.327 1.041l-.003.026c-.1 0-.2.007-.3.01a2.299 2.299 0 0 0-.605-.188c.035.07.1.153.1.231-.103.066-.108-.017-.176-.076-.538-.034-1.055.04-1.59.025-.514.006-1.05-.013-1.56.009-.14.12-.282.071-.451.08-.167.002-.334-.01-.5.005-.006.177.09.363.141.532.042.185.142.326.118.525-.21-.685-.463-1.364-.655-2.052.188-.048.09-.112.047-.239.065-.004.169-.047.225-.006ZM13.908 26.91c.01.054.057.17-.04.15-.601-.01-1.214.023-1.812-.017.109-.01.218-.012.326-.02.475.017.952.006 1.426.007.091.002.078-.052.1-.12ZM19.398 26.92c.092.007.181.025.271.047.532.122 1.074.023 1.597.084.508.023 1.023.003 1.533.01.672-.005 1.346.01 2.018-.008.678.014 1.361.011 2.04 0a.89.89 0 0 0 .345-.03l.095.012-.148.06c-1.923-.01-3.847-.002-5.77-.005-.49-.017-.999.044-1.48-.052-.173-.014-.341-.062-.514-.087l.013-.03Z" fill="#fff"/><path d="m19.329 26.955.056-.004c.173.025.34.073.514.087.481.096.99.035 1.48.052 1.923.003 3.847-.005 5.77.004-.194.056-.422.012-.624.025H20.64c-.422.016-.914-.017-1.311-.164ZM11.913 27.063c.677.064 1.368.004 2.048.033-.049.027-.098.023-.152.025-.523-.003-1.045-.002-1.568-.001-.121-.004-.226.025-.328-.057ZM18.935 27.35c.2.037.425.097.605.189.1-.003.2-.01.3-.01.122-.004.232.01.35.04.535.047 1.093.007 1.633.02.826 0 1.656.002 2.482 0-.057.033-.137.033-.188.072-.033.078-.038.165-.114.213-.186.034-.352-.035-.526.063-.548.01-1.105.005-1.654.003-.233-.086-.54-.003-.768.032l-1.067-.001c-.113-.013-.153.097-.264.088H17.92c-.511.011-1.03-.026-1.537.03-.258-.025-.438.112-.708.054-.156-.087-.313-.033-.482-.081-.164.08.093-.322-.037-.254a.77.77 0 0 1-.256.349c-.05-.169-.147-.355-.141-.532.166-.014.333-.003.5-.006.169-.008.31.04.45-.08.51-.021 1.047-.002 1.56-.008.536.015 1.053-.059 1.591-.025.067.06.073.142.176.076 0-.078-.065-.162-.1-.231Z" fill="#fff"/><path d="M19.897 27.474c1.46-.006 2.92.001 4.38-.003.06.006.166-.016.21.029-1.451.009-2.907-.01-4.357.01a2.85 2.85 0 0 0-.228-.01l-.005-.026Z" fill="#fff"/><path d="m19.843 27.503.06-.002c.075 0 .151.002.227.008.506.05 1.034.008 1.545.022.91.003 1.84-.007 2.747.004.103.017.023.084.01.143-.018-.08.023-.124-.086-.113-1.384-.006-2.773-.013-4.157.004a1.268 1.268 0 0 0-.349-.04l.003-.026Z" fill="#fff"/><path d="M20.13 27.51c1.45-.02 2.905-.001 4.356-.01.041.064.027.112 0 .178-.22.55-.331 1.15-.578 1.687-.173.349-.525.565-.902.633-2.247.003-4.526-.002-6.773.002-.438.012-1.01-.363-1.067-.814l.03-.004c.102.345.366.58.694.713.433.14.927.048 1.379.074.46-.005.923.01 1.383-.008 1.291.018 2.588.003 3.88.008.226-.009.429.033.627-.053a.927.927 0 0 0 .235-.114c.19-.072.343-.245.442-.417.209-.352.272-.792.416-1.175.07-.174.111-.357.18-.532.013-.059.093-.127-.01-.143-.908-.01-1.836-.001-2.747-.004-.51-.014-1.039.028-1.545-.022Z" fill="#fff"/><path d="M20.19 27.569c1.383-.017 2.771-.01 4.156-.004l-.041.023c-.826.003-1.656 0-2.482.002-.54-.014-1.098.026-1.634-.021Z" fill="#fff"/><path d="M24.346 27.565c.109-.011.068.034.086.113-.069.175-.11.358-.18.532-.144.383-.207.823-.416 1.175.025-.199.16-.393.175-.597.053-.1.064-.21.097-.317.02-.099.133-.19.028-.271-.093-.083-.06-.153-.052-.262-.073.033-.031.215-.081.29-.434.02-.857.05-1.293.039-.297.122-.674.016-.994.07-.16.032-.315.011-.474.009-.098.102-.208.058-.336.067-.69-.002-1.38 0-2.07 0a2.891 2.891 0 0 0-.532.027c-.852.007-1.722-.006-2.572.006-.175.085-.341.041-.526.06-.02.08.02.214-.06.26-.016-.172.027-.316-.122-.444.002.17.045.337.05.508-.02-.05-.04-.098-.057-.148.024-.199-.076-.34-.118-.525a.77.77 0 0 0 .257-.349c.129-.067-.128.334.036.254.168.048.325-.006.482.08.27.059.45-.078.708-.053.506-.056 1.026-.019 1.537-.03h1.805c.11.009.151-.101.264-.088.356 0 .71 0 1.067.002.229-.036.535-.119.768-.033.549.002 1.106.007 1.654-.003.174-.098.34-.03.526-.063.076-.048.08-.135.114-.213.05-.04.13-.039.188-.073l.04-.023Z" fill="#fff"/><path d="M24.084 27.938c-.008.109-.041.18.052.262.105.08-.009.172-.028.271-.086-.205-.079.034-.109.11-.435.022-.876-.005-1.312.012-.039.034-.072.106-.128.108-.51.022-1.03-.026-1.534.035-.454.031-.884-.077-1.33-.003-.095.015-.244-.031-.31.049-.056.063-.147.036-.224.043-.679 0-1.362-.006-2.04.002-.204.051-.411-.018-.594.08-.402.011-.809.002-1.211.005-.086.01-.105-.067-.175-.086-.012.128.102.234.055.356l-.03.004c-.01-.128-.061-.233-.092-.357-.005-.17-.048-.337-.05-.507.149.128.106.272.122.444.08-.046.04-.18.06-.26.185-.019.35.025.526-.06.85-.012 1.72 0 2.572-.006.181-.026.349-.035.532-.028h2.07c.128-.008.238.036.336-.066.16.002.314.023.474-.01.32-.053.697.053.994-.07.436.011.86-.018 1.293-.038.05-.075.008-.257.081-.29Z" fill="#fff"/><path d="M24.108 28.471c-.033.107-.044.216-.097.317-.169.039-.155.136-.211.271-.115-.065-.061-.204-.197-.26-.066.053-.05.09-.048.165-.742.015-1.492.001-2.236.007-.081-.009-.104.082-.177.086-.585.022-1.15-.06-1.74-.023-.058.03-.08.087-.151.083-.678.001-1.364 0-2.042 0-.362.055-.723.015-1.086.034-.052.124-.376.116-.45.024-.074-.07-.112-.004-.169.042-.059.073-.12-.13-.158-.04-.146.124.058.301.14.403.265.265.592.334.954.36.69-.003 1.382.003 2.071-.002.325-.05.645-.02.976-.028 1.164.005 2.332-.01 3.496.008-.505.05-1.034.007-1.544.022h-2.13c-.216.01-.445-.024-.657.021-.46.018-.923.003-1.383.008-.452-.026-.946.065-1.379-.074-.328-.133-.592-.368-.694-.713.047-.122-.067-.228-.055-.356.07.02.089.095.175.085.402-.002.81.007 1.21-.004.184-.098.39-.029.594-.08.68-.008 1.362-.003 2.041-.003.077-.006.168.021.224-.042.066-.08.215-.034.31-.049.446-.074.876.034 1.33.003.503-.06 1.025-.013 1.534-.035.056-.002.09-.075.128-.108.436-.017.877.01 1.312-.013.03-.075.023-.314.11-.109Z" fill="#fff"/><path d="M23.603 28.799c.136.056.082.195.197.26.056-.135.042-.232.211-.27-.015.203-.15.397-.175.596-.1.172-.251.345-.442.417.025-.102.161-.14.214-.23.067-.15.241-.117.188-.323-.156-.022-.065-.077-.113-.183-.059.003-.052.175-.066.22-.076.024-.028-.06-.036-.102-.822.084-1.633.04-2.468.05-.16.014-.3-.05-.421.082-.311.042-.68-.055-.968.064-.57.01-1.143-.013-1.711.011-.344.069-.748-.05-1.07.077-.303.015-.617-.024-.918.025-.23.058-.387-.114-.539.087-.082-.102-.286-.279-.14-.403.037-.09.1.113.158.04.057-.046.095-.112.169-.042.074.092.398.1.45-.024.363-.02.724.02 1.086-.034.678 0 1.364.001 2.042 0 .072.004.093-.054.151-.083.59-.036 1.155.045 1.74.023.073-.004.096-.095.177-.086.744-.006 1.494.008 2.236-.007-.002-.074-.018-.112.048-.165Z" fill="#fff"/><path d="M23.683 29.066c.048.106-.043.16.113.183.053.206-.12.173-.188.322-.053.091-.189.13-.214.23a.927.927 0 0 1-.235.115c-.058 0-.117 0-.176.002-1.164-.017-2.332-.003-3.496-.008-.331.008-.65-.022-.976.028-.689.005-1.381 0-2.07.003-.363-.027-.69-.096-.955-.361.152-.201.31-.029.54-.087.3-.05.614-.01.918-.025.32-.128.725-.008 1.069-.077.567-.024 1.142 0 1.71-.01.289-.12.658-.023.969-.065.12-.133.26-.067.421-.081.835-.01 1.646.033 2.468-.05.008.041-.04.126.036.101.014-.045.007-.217.066-.22Z" fill="#fff"/><path d="M22.983 29.918c.059-.003.117-.002.176-.002-.198.086-.4.044-.626.053-1.293-.005-2.59.01-3.881-.008.212-.045.44-.011.657-.021h2.13c.51-.015 1.039.029 1.544-.022Z" fill="#fff"/></svg>