<svg width="40" height="40" fill="none" xmlns="http://www.w3.org/2000/svg"><path d="M31.774 19.051c.261-1.017.935-1.383 1.478-1.383.598 0 1.182.346 1.257 1.383h-2.735Zm1.732 3.912a2.73 2.73 0 0 0 1.739-.583l-.124-.176a2.34 2.34 0 0 1-1.43.474c-1.072 0-2.02-.644-2.02-2.549 0-.366.027-.692.055-.82h3.56c-.227-1.377-1.1-1.878-2.034-1.878-1.086 0-2.488.949-2.488 2.732 0 1.898 1.388 2.8 2.742 2.8Zm-6.289-.088h1.863v-.19c-.516-.122-.53-.285-.53-1.661v-1.926l.585-.63c.192-.217.282-.285.453-.285.241 0 .413.217.701.217.269 0 .42-.217.42-.522 0-.237-.172-.4-.474-.4-.4 0-.633.217-1.1.719l-.584.623v-1.39l-1.348.712v.197c.482.04.482.075.482 1.553v1.132c0 1.376-.014 1.539-.468 1.661v.19Zm-3.972-3.824c.26-1.017.934-1.383 1.477-1.383.598 0 1.182.346 1.258 1.383h-2.735Zm1.732 3.912a2.73 2.73 0 0 0 1.739-.583l-.124-.176a2.34 2.34 0 0 1-1.43.474c-1.072 0-2.02-.644-2.02-2.549 0-.366.027-.692.055-.82h3.56c-.227-1.377-1.1-1.878-2.035-1.878-1.085 0-2.488.949-2.488 2.732 0 1.898 1.389 2.8 2.743 2.8Zm-9.794-4.02c.323 0 .57-.245.57-.563a.555.555 0 0 0-.57-.556.548.548 0 0 0-.557.556c0 .318.24.563.557.563Zm0 4.04c.323 0 .57-.23.57-.549a.551.551 0 0 0-.57-.556.544.544 0 0 0-.557.556c0 .319.24.55.557.55Zm-3.822-.237c-.872 0-1.642-.678-1.642-2.515 0-1.83.77-2.57 1.642-2.57.887 0 1.664.74 1.664 2.57 0 1.837-.777 2.515-1.664 2.515Zm0 .224c1.155 0 2.585-.97 2.585-2.74 0-1.769-1.43-2.8-2.585-2.8-1.14 0-2.57 1.031-2.57 2.8 0 1.77 1.43 2.74 2.57 2.74Zm-4.687-.02c.811 0 1.395-.306 1.753-.753l-.117-.143c-.337.367-.825.61-1.45.61-1.162 0-1.96-.718-1.96-2.549 0-1.77.853-2.434 1.808-2.434.427 0 .708.156.777.428.041.176.11.508.46.508.282 0 .454-.183.454-.468 0-.481-.845-.705-1.704-.705C5.444 17.444 4 18.495 4 20.176c0 1.736 1.272 2.773 2.674 2.773Zm9.828-.075h1.835v-.19c-.494-.122-.508-.285-.508-1.661v-2.075l.385-.346c.687-.623 1.1-.813 1.47-.813.468 0 .75.271.75.997v2.237c0 1.376-.02 1.539-.516 1.661v.19h1.842v-.19c-.46-.122-.46-.285-.46-1.661v-2.19c0-.983-.509-1.376-1.361-1.376-.543 0-1.072.27-1.725.874l-.385.346V14l-1.334.678v.183c.468.02.468.054.468 1.39v4.773c0 1.376-.014 1.539-.46 1.661v.19Z" fill="#fff"/></svg>