<svg width="40" height="40" fill="none" xmlns="http://www.w3.org/2000/svg"><g clip-path="url(#clip0_2338_4912)" fill="#fff"><path d="m33.179 21.31.793-.005c0 1.403.003 2.808-.003 4.212a130.44 130.44 0 0 1-.792-.01c.005-1.399.003-2.797.002-4.197Z"/><path fill-rule="evenodd" clip-rule="evenodd" d="m56.368 16.349.42-.565c-.61-.407-1.241-.655-1.968-.384a1.133 1.133 0 0 0-.578 1.627c.176.33.536.504.89.676.387.189.767.373.886.752-.046.196-.216.315-.38.432a2.342 2.342 0 0 0-.176.132 43.743 43.743 0 0 1-1.036-.515c-.142.197-.284.393-.424.59.627.424 1.267.7 2.029.44.66-.234 1.04-.98.698-1.628-.195-.385-.609-.583-1.002-.771-.316-.152-.618-.297-.784-.527-.24-.308.172-.631.474-.631.28.063.555.19.82.311l.13.06Zm-6.44-.758c-.15-.16-.295-.312-.54-.302-.036.836-.03 1.675-.023 2.515.005.583.01 1.167 0 1.749l.786.015c.005-.904.002-1.807-.003-2.711.312.357.63.708.949 1.059.335.37.67.738.997 1.115.232.273.513.485.8.696.04-1.472.027-2.953.006-4.426l-.227.032c-.175.024-.352.048-.527.08a19.926 19.926 0 0 0-.016 1.705c.005.28.01.56.01.84l-.574-.613a135.865 135.865 0 0 1-1.503-1.618 2.759 2.759 0 0 1-.134-.136Zm-12.143-.226c.89-.018 1.782-.017 2.675-.006l.002.356a105 105 0 0 1 .004.356c-.633.01-1.268.01-1.9.01v.001l.002.967c.53.001 1.059.003 1.588.007l.01.728c-.533.006-1.065.006-1.598.004v1.048h.19c.57 0 1.141 0 1.712.01l-.014.712c-.889.01-1.78.012-2.672-.007.01-1.395.011-2.79 0-4.186Zm6.61-.001a86.943 86.943 0 0 0-2.677-.005c.004 1.4.004 2.8 0 4.2l.788.005c.002-.543-.001-1.086-.008-1.628h.268c.444-.001.89-.002 1.334-.009l-.005-.727c-.53-.005-1.061-.005-1.592-.005 0-.37-.001-.741-.006-1.112h.19a88.553 88.553 0 0 0 1.718-.015l-.01-.704Zm1.056-.002c.65-.019 1.3-.013 1.952-.008l.714.005v.715c-.634.008-1.269.008-1.903.008l.006.968c.532 0 1.066.002 1.6.006l-.011.73c-.53.004-1.062.004-1.592.004 0 .35 0 .699-.002 1.046.634 0 1.269 0 1.903.008 0 .238-.001.477-.003.715-.623.005-1.248.005-1.873.006h-.803c-.001-.35-.004-.7-.007-1.05a75.664 75.664 0 0 1 .02-3.153Zm14.234-.01c-.554 0-1.108.002-1.661.005.006 1.4.007 2.802-.002 4.202.555.004 1.109.005 1.663.005l.997.003v-.008c.005-.242.01-.481.01-.723h-1.887c.003-.348.003-.697.001-1.044l.318-.001h.002c.427-.001.853-.002 1.28-.007l-.005-.72c-.442-.009-.884-.012-1.327-.016l-.265-.002c-.001-.322-.003-.642-.006-.964h.945c.314 0 .629 0 .943-.002 0-.244-.003-.486-.009-.73l-.997.002Zm-25.862 0c-.222.007-.442.014-.655.008.01 1.399.006 2.797.002 4.196.215-.006.438.001.664.009.79.026 1.614.054 2.226-.494.991-.819.999-2.405 0-3.222-.619-.55-1.443-.523-2.237-.497Zm.444.733c-.109-.002-.217-.003-.321-.01.014.924.014 1.843 0 2.766.102-.006.209-.008.316-.01.44-.007.903-.014 1.24-.317.63-.53.632-1.578.006-2.112-.339-.304-.8-.31-1.24-.317Zm1.887 5.623a2.197 2.197 0 0 0-.677-.53c-.079.906-.067 1.822-.056 2.736.007.534.014 1.067.003 1.597h.797c.005-.892.002-1.785-.004-2.678.35.353.68.731 1.01 1.11.543.62 1.087 1.241 1.72 1.756.05-.96.044-1.922.037-2.885a91.439 91.439 0 0 1-.002-1.509l-.787.005.002.914v.001c.001.56.002 1.118.01 1.677-.69-.727-1.376-1.457-2.053-2.194Zm6.055 1.14c.324.355.647.71.982 1.05-.01-.865-.012-1.73-.006-2.594l.787.006c-.01.575-.007 1.15-.004 1.725.005.885.01 1.77-.031 2.653-.663-.54-1.232-1.192-1.8-1.843a28.09 28.09 0 0 0-.94-1.044c.011.645.011 1.29.012 1.934v.773H41.2c-.259.004-.516.007-.774.008-.004-.586-.004-1.171-.005-1.757 0-.65 0-1.301-.006-1.952.012-.071.01-.144.007-.213-.006-.167-.012-.315.195-.383.564.505 1.079 1.071 1.592 1.636Zm27.82-.929c-.26-.287-.507-.56-.868-.75-.084.906-.071 1.825-.058 2.743.008.535.015 1.07.004 1.6h.782c-.002-.284-.002-.57-.003-.855 0-.618-.002-1.236-.012-1.854.336.346.657.712.978 1.079.558.636 1.117 1.274 1.76 1.812.07-.954.061-1.914.053-2.874v-.002c-.005-.504-.009-1.006-.002-1.508l-.793-.005v.192c-.004.805-.007 1.61.023 2.413a123.931 123.931 0 0 1-1.684-1.795c-.062-.065-.12-.131-.18-.196Zm10.159-.705c.28.049.442.223.617.411.042.045.085.091.13.136.385.427.778.845 1.172 1.264.274.291.548.583.82.878-.009-.69-.01-1.379-.01-2.068l-.001-.518.787-.022.005.702v.01c.01 1.222.019 2.446-.016 3.666-.29-.203-.569-.413-.799-.685a69.526 69.526 0 0 0-1.105-1.236 90.763 90.763 0 0 1-.846-.94l.002.337v.002c.003.788.005 1.576 0 2.365-.26-.001-.521-.005-.782-.008.01-.59.006-1.18.001-1.771v-.001a47.955 47.955 0 0 1 .025-2.522Zm-29.623.084c-.284.004-.566.01-.85.018.3.672.607 1.342.914 2.012v.002c.279.608.557 1.216.83 1.826.029.039.054.094.08.151.066.146.142.31.29.282.16-.247.287-.527.41-.798l.022-.048c.251-.57.512-1.135.773-1.701.266-.575.53-1.15.787-1.73h-.014l-.839-.011c-.372.81-.731 1.63-1.09 2.447l-.113.26c-.388-.91-.79-1.812-1.2-2.71Zm7.425.012c.958-.008 1.916-.01 2.873.001l.008.352.008.351c-.346.011-.693.019-1.038.026h-.012v.772c0 .9 0 1.799.005 2.698l-.397.003-.396.003-.002-.497c-.003-.995-.006-1.99.011-2.983l-1.025-.006a88.292 88.292 0 0 1-.018-.367v-.002c-.005-.117-.01-.234-.017-.351Zm4.82-.015-.789.024c.005 1.392.006 2.786 0 4.179l.788.03c.016-1.41.014-2.823 0-4.233Zm13.7.01h.005c.01.395.006.79.002 1.185v.001c-.005.485-.01.97.01 1.454.013.372.202.653.55.789.48.195 1.087-.14 1.14-.665.042-.54.034-1.086.027-1.63-.005-.379-.01-.757 0-1.134l.803.006c-.01.405-.007.81-.003 1.214.005.525.01 1.05-.015 1.574-.048.839-.822 1.489-1.647 1.48-.835.013-1.597-.636-1.66-1.477-.048-.592-.04-1.19-.032-1.786.004-.335.009-.67.003-1.005l.818-.006Zm9.458 0-.792.005c.003 1.4.005 2.798-.001 4.197l.783.01h.01c.006-1.404.004-2.809 0-4.212Zm1.15.002c.341.008.685.002 1.03-.004.606-.01 1.214-.02 1.814.043.021.23.026.456.03.687l-1.063.004c.005.605.005 1.21.005 1.817 0 .552 0 1.103.005 1.654-.264.003-.53.007-.793.008-.008-1.16-.01-2.323.001-3.483l-1.03-.006v-.72Zm-40.473-.012c1.25-.309 2.538.594 2.65 1.878.153 1.2-.76 2.306-1.959 2.396a2.154 2.154 0 0 1-2.313-1.773c-.205-1.118.51-2.242 1.622-2.501Zm-.04.852c.699-.323 1.515.041 1.81.732.315.71-.072 1.55-.788 1.82-.698.282-1.497-.124-1.76-.807-.27-.676.092-1.45.739-1.745Zm21.501.874a2.167 2.167 0 0 0-2.551-1.743 2.17 2.17 0 0 0-1.722 2.365c.096 1.19 1.234 2.08 2.412 1.919 1.225-.136 2.093-1.33 1.861-2.541Zm-.892-.197c-.326-.67-1.144-1.002-1.827-.657-.685.335-.99 1.2-.622 1.879.346.663 1.197.953 1.859.57.628-.344.927-1.137.59-1.792Zm-11.441-1.65c.233.244.378.537.51.843.256.593.525 1.179.795 1.764.266.58.532 1.158.786 1.743l-.106-.002h-.001a6.879 6.879 0 0 1-.667-.032c-.129-.174-.231-.372-.332-.567l-.087-.166c-.586-.01-1.171-.01-1.758-.004-.124.26-.249.519-.374.777l-.03-.002c-.254-.01-.51-.02-.763-.032.255-.535.5-1.078.744-1.62v-.001c.41-.91.82-1.821 1.283-2.7Zm.02 1.58.003.008.605 1.304-1.197.001v-.001c.13-.287.26-.573.387-.859l.202-.453Z"/><path d="M13.34 11.894h2.65c.224.078.445.163.666.249.038.867.041 1.735.028 2.603l-.534-.01a10.35 10.35 0 0 0-.718-.626c-.647.662-1.265 1.348-1.96 1.961l-.615-.616c.676-.62 1.31-1.264 1.92-1.95l.682.318c.01-.578.005-1.153-.017-1.73a24.226 24.226 0 0 0-2.156-.095l.055-.104Z"/><path d="M15.99 11.894h.794l.253.044c.284.058.565.124.845.188.032.874.034 1.75.02 2.625-.405 0-.811 0-1.218-.005.013-.868.01-1.736-.028-2.603-.221-.086-.442-.171-.666-.249Z"/><path d="M16.784 11.894h1.23l.242.046c.235.052.468.11.701.165.048.883.052 1.762.028 2.644-.36.002-.721.002-1.083.002.014-.876.012-1.751-.02-2.625-.28-.064-.56-.13-.845-.188l-.253-.044Z"/><path d="M18.014 11.894H19.4c.416.05.83.131 1.244.204a28.5 28.5 0 0 1 .03 2.654c-.562-.015-1.126-.002-1.69-.003.025-.882.02-1.761-.027-2.645-.233-.054-.466-.112-.701-.164l-.242-.046Z"/><path d="M19.4 11.894h1.502c1.7.122 3.348.714 4.696 1.765a8.535 8.535 0 0 1 3.242 5.55 8.547 8.547 0 0 1-1.392 6.04c-1.419 2.09-3.804 3.528-6.337 3.682.024-.952.04-1.896-.104-2.84 2.402-.25 4.444-2.076 4.943-4.44.523-2.296-.505-4.756-2.49-6.01a5.706 5.706 0 0 0-2.785-.889 28.5 28.5 0 0 0-.03-2.654c-.414-.073-.829-.154-1.245-.204ZM13.286 11.998c.723-.002 1.438.032 2.156.094.022.578.028 1.153.017 1.731-.227-.105-.454-.212-.682-.319-.61.687-1.244 1.33-1.92 1.951-.24-.24-.48-.479-.717-.721l-.032-.035v-.191l.05.146c.419-.866.73-1.782 1.128-2.656ZM15.431 14.11c.25.197.487.407.719.627.158.152.314.306.471.46-.647.702-1.295 1.393-2.05 1.981l-1.1-1.107c.696-.613 1.314-1.3 1.96-1.961Z"/><path d="M16.621 15.197c.445.443.886.891 1.332 1.335-.685.659-1.347 1.34-2.043 1.99-.443-.45-.892-.897-1.339-1.344.755-.588 1.403-1.28 2.05-1.98ZM22.738 15.592c.638.64 1.254 1.304 1.885 1.952-.16.19-.322.379-.485.566-.854-.508-1.365-1.28-2.036-1.976.206-.188.416-.372.636-.542Z"/><path d="M22.102 16.134c.671.695 1.182 1.468 2.036 1.976-.146.163-.297.324-.45.482-.864-.34-1.514-1.282-2.057-2 .154-.155.31-.312.471-.458ZM17.953 16.532c.628.627 1.25 1.26 1.88 1.885.235-.237.468-.475.701-.714l-.08.557c.462.431.872.922 1.354 1.33.181.164.46.141.694.183l-.679.663c-.2-.204-.398-.41-.602-.61a9.26 9.26 0 0 0-.702-.613c-.688.604-1.3 1.305-1.915 1.98-.255-.255-.51-.513-.772-.76-.653-.625-1.284-1.272-1.922-1.911.696-.65 1.358-1.331 2.043-1.99Z"/><path d="M21.631 16.591c.543.719 1.193 1.661 2.057 2.001l-.437.433c-.23-.052-.498-.047-.676-.203-.598-.47-1.058-1.076-1.543-1.622.2-.201.398-.409.599-.609Z"/><path d="M21.032 17.2c.485.546.945 1.151 1.543 1.622.178.156.447.151.676.203-.254.246-.5.498-.75.748-.233-.042-.512-.019-.693-.183-.482-.408-.892-.899-1.354-1.33l.08-.557c.165-.17.33-.337.498-.503ZM20.52 19.213c.245.192.477.398.7.613-.49.843-1.165 1.475-1.959 2.028-.221-.218-.44-.439-.657-.66.616-.676 1.227-1.377 1.915-1.981Z"/><path d="M21.22 19.826c.205.2.403.406.603.61.136.139.272.274.41.41a7.015 7.015 0 0 0-.637-.17c-.624.532-1.171 1.165-1.743 1.75-.199-.19-.397-.38-.592-.572.794-.553 1.469-1.185 1.96-2.028Z"/><path d="M17.832 20.433c.262.247.517.505.772.76.218.222.436.443.657.661.195.192.393.382.592.572l-.032.032c-.559.575-1.133 1.135-1.698 1.705a38.673 38.673 0 0 1-1.996-2.037c.57-.562 1.11-1.158 1.705-1.693Z"/><path d="M21.596 20.675c.215.046.428.106.637.171.157.148.31.3.464.452a8.352 8.352 0 0 0-.575-.125l-.027.02c-.525.492-1 1.033-1.51 1.54.082.24.16.477.254.71-.33-.337-.677-.658-1.018-.985l.032-.032c.572-.585 1.12-1.218 1.743-1.75Z"/><path d="m22.095 21.194.027-.021c.192.033.384.077.575.125.19.181.374.37.561.556-.242.044-.462.055-.657.218-.6.504-1.155.99-1.392 1.763-.125-.13-.247-.259-.37-.392-.094-.233-.172-.47-.254-.71.51-.507.985-1.048 1.51-1.54Z"/><path d="M23.258 21.854c.197.193.39.39.58.588-.87.49-1.5 1.152-2.032 1.988a22.054 22.054 0 0 1-.598-.595c.238-.773.794-1.26 1.393-1.763.195-.163.415-.174.657-.218ZM16.127 22.126c.643.706 1.302 1.38 1.996 2.037l-.752.755c-.675-.67-1.311-1.38-1.98-2.057.246-.244.487-.494.736-.735Z"/><path d="m23.838 22.442.598.632a53.086 53.086 0 0 0-1.962 1.975c-.224-.204-.448-.41-.668-.619.533-.836 1.162-1.497 2.032-1.988ZM15.39 22.86c.67.678 1.306 1.387 1.981 2.058-.404.409-.816.812-1.221 1.219-.897.912-1.798 1.825-2.716 2.714l-.147.014c-.408-.87-.678-1.774-1.147-2.625l-.032-.06v-.087c1.15-1.015 2.178-2.17 3.282-3.232Z"/><path d="M16.15 26.137c-.253.883-.284 1.775-.223 2.687-.831.018-1.662.009-2.493.027.918-.889 1.82-1.802 2.716-2.714Z"/><path d="M16.15 26.137c.337-.01.674-.017 1.013-.019a98.99 98.99 0 0 1 0 2.692c-.412 0-.824.01-1.236.014-.06-.912-.03-1.804.223-2.687Z"/><path d="M17.163 26.118c.596-.001 1.192.003 1.788.003-.015.937-.015 1.873.003 2.811a37.268 37.268 0 0 1-.588-.014 7.57 7.57 0 0 0-1.203-.108 98.99 98.99 0 0 0 0-2.692Z"/><path d="m18.951 26.121 1.085.002c.006.938.007 1.874.009 2.812-.363-.001-.728 0-1.09-.003a78.618 78.618 0 0 1-.004-2.81Z"/><path d="M20.036 26.123c.323-.002.648-.01.971-.032.143.944.128 1.888.104 2.84-.355.009-.71.006-1.066.004-.002-.938-.003-1.874-.01-2.812ZM13.287 28.865l.147-.014c.83-.018 1.662-.009 2.493-.027.412-.005.824-.014 1.236-.014a7.57 7.57 0 0 1 1.203.108l.255.057h-5.276l-.058-.11Z"/></g><defs><clipPath id="clip0_2338_4912"><path fill="#fff" d="M12.244 11.894h17.081v17.081h-17.08z"/></clipPath></defs></svg>