<svg width="40" height="40" fill="none" xmlns="http://www.w3.org/2000/svg"><path d="M9 14.938v3.75s1.313 0 2-.063c.563-.125.688-.125.75-.688l.188-.812h.624l-.062 1.813.063 1.812h-.626l-.124-.75c-.188-.5-.376-.563-.813-.625-.5-.063-2-.063-2-.063v3.125c0 .625.313.875 1 .875h2.125c.688 0 1.313-.062 1.75-1l.563-1.25h.5c-.063.25-.313 2.5-.376 3 0 0-1.937-.062-2.75-.062H8.188L6 24.063V23.5l.688-.125c.562-.125.687-.25.687-.688 0 0 .063-1.375.063-3.687 0-2.25-.063-3.625-.063-3.625 0-.438-.125-.563-.688-.688L6 14.626v-.563l2.125.063h4.063c.812 0 2.187-.125 2.187-.125s-.063.875-.125 2.875h-.563l-.187-.75c-.188-.938-.5-1.375-1.063-1.375H9.25c-.25 0-.25.063-.25.188Zm8.188.437h.625V17.5l2.062-.125-.125.938-2-.125v3.75c0 1.062.375 1.5.938 1.5a1.4 1.4 0 0 0 1.125-.563l.312.375c-.313.688-1.188 1.063-2 1.063-1 0-1.813-.625-1.813-1.75V18.25h-1.187v-.5c1-.125 1.813-.75 2.063-2.375Zm4.375 6.5.375.938c.125.375.5.812 1.312.812.875 0 1.25-.438 1.25-1 0-1.75-3.375-1.25-3.375-3.563 0-1.312 1.063-1.937 2.438-1.937.625 0 1.5.125 2 .313a8.33 8.33 0 0 0-.188 1.75l-.5.062-.375-1c-.125-.25-.5-.438-1-.438-.625 0-1.25.25-1.25.938 0 1.563 3.5 1.25 3.5 3.563 0 1.312-1.188 2-2.563 2-1.062 0-2.125-.438-2.125-.438.125-.625.063-1.25 0-1.938 0-.062.5-.062.5-.062Zm4 4.875c.125-.563.25-1.25.375-1.938l.562-.062.188 1.063c.062.25.187.437.625.437.687 0 1.5-.375 2.312-1.813-.375-.875-1.438-3.625-2.375-5.812-.25-.563-.313-.625-.625-.688l-.25-.125v-.437l1.5.063 1.875-.125v.5l-.438.125c-.375.062-.5.25-.5.437 0 .063 0 .125.063.188.125.312.938 2.562 1.5 4.125.5-1.063 1.5-3.438 1.625-3.875.063-.188.125-.25.125-.375 0-.25-.125-.438-.5-.5l-.375-.125v-.5l1.438.062L34 17.312v.5l-.25.188c-.563.25-.625.313-.875.688l-2.188 5.25c-1.312 3-2.687 3.25-3.687 3.25a2.455 2.455 0 0 1-1.438-.438Z" fill="#fff"/></svg>