<svg width="40" height="40" fill="none" xmlns="http://www.w3.org/2000/svg"><path d="m7.461 18.987-.053.026a5.703 5.703 0 0 0-.427-.474 1.392 1.392 0 0 0-.394-.288 1.457 1.457 0 0 0-.336-.075 4.385 4.385 0 0 0-.566-.032c-.037 0-.08 0-.128.005-.048 0-.09.006-.138.006-.043 0-.086.005-.123.005-.037 0-.064.005-.085.005l-.016.064c-.006.022-.011.048-.016.075-.006.027-.006.064-.011.112-.005.048-.005.101-.01.165-.006.128-.006.267-.011.416 0 .15-.006.294-.006.427v.517h.096c.059 0 .123 0 .192-.005l.224-.016c.075-.005.139-.016.192-.027.134-.026.235-.069.31-.112a.507.507 0 0 0 .181-.17.678.678 0 0 0 .09-.214c.017-.08.033-.16.049-.256h.064v1.755h-.064a1.897 1.897 0 0 0-.128-.368.938.938 0 0 0-.198-.299.71.71 0 0 0-.224-.138 1.018 1.018 0 0 0-.277-.059c-.053-.005-.101-.005-.144-.01-.043 0-.08-.006-.117-.006h-.262v.677c0 .102 0 .198.006.283a6.087 6.087 0 0 0 .027.55c.01.1.031.18.063.229.032.053.091.09.166.117.08.027.192.043.341.053v.054H4v-.054c.09-.016.176-.037.256-.069a.47.47 0 0 0 .192-.139.27.27 0 0 0 .043-.096 1.657 1.657 0 0 0 .053-.315c.005-.058.005-.117.005-.175 0-.054 0-.118.006-.208 0-.086.005-.182.005-.288 0-.102.005-.208.005-.32v-1.36c0-.064 0-.134-.005-.203 0-.07-.005-.133-.01-.197a1.194 1.194 0 0 0-.027-.166.221.221 0 0 0-.054-.106.354.354 0 0 0-.176-.112 3.154 3.154 0 0 0-.24-.048v-.054h3.04l.368.918Zm5.979 3.008v-.054c.01 0 .037-.005.08-.01.043-.006.085-.022.133-.038a.361.361 0 0 0 .123-.074.177.177 0 0 0 .053-.128.674.674 0 0 0-.032-.16 4.695 4.695 0 0 0-.085-.272c-.037-.107-.08-.224-.128-.358-.048-.133-.096-.266-.155-.41h-1.456a9.894 9.894 0 0 1-.16.394l-.154.379c-.075.197-.118.336-.118.416 0 .048.016.085.043.117a.245.245 0 0 0 .112.075.692.692 0 0 0 .15.043c.053.01.1.016.149.026v.054h-1.158v-.059a.663.663 0 0 0 .363-.155 1.11 1.11 0 0 0 .128-.181c.059-.096.128-.235.213-.421l.256-.582c.096-.218.192-.442.294-.672.101-.229.197-.464.298-.698.096-.235.192-.454.278-.656l-.054-.118a.943.943 0 0 0 .176-.101.636.636 0 0 0 .139-.128.704.704 0 0 0 .101-.128c.027-.037.048-.075.064-.096h.043c.112.304.219.587.325.859.102.272.198.533.294.784.096.25.181.49.272.725.085.235.176.464.261.693.043.112.08.208.112.283.032.075.075.16.117.256.006.016.022.037.048.075a.645.645 0 0 0 .256.213.55.55 0 0 0 .219.048V22h-1.6v-.005Zm-.715-3.302-.096.224c-.042.102-.096.224-.154.368-.064.144-.128.31-.203.491-.075.181-.155.384-.245.597h1.36l-.187-.49c-.064-.166-.128-.32-.187-.47-.058-.149-.117-.288-.165-.416-.053-.122-.09-.224-.123-.304Zm7.691 3.302h-1.659v-.054c.091-.016.176-.037.256-.069a.487.487 0 0 0 .198-.144.285.285 0 0 0 .042-.09 1.734 1.734 0 0 0 .032-.315c0-.059.006-.118.006-.176 0-.054 0-.118.005-.208 0-.086.005-.182.005-.288 0-.102.006-.208.006-.32v-1.574c0-.064-.006-.128-.011-.181-.005-.059-.016-.107-.027-.155a.246.246 0 0 0-.048-.106.418.418 0 0 0-.186-.134 1.13 1.13 0 0 0-.256-.058v-.054h1.637v.054c-.075.01-.16.032-.245.058a.343.343 0 0 0-.203.176.586.586 0 0 0-.053.235c0 .096-.006.181-.011.267 0 .09 0 .181-.005.272 0 .09-.006.181-.006.272v1.824c0 .106 0 .208.006.304a.456.456 0 0 0 .048.208.415.415 0 0 0 .208.144c.096.032.181.053.256.058v.054h.005Zm8.283 0h-1.12c-.032-.032-.059-.059-.07-.075a.56.56 0 0 1-.048-.059c-.016-.021-.042-.053-.069-.096a3.177 3.177 0 0 0-.128-.186 7.87 7.87 0 0 1-.181-.278l-.16-.24a3.455 3.455 0 0 0-.176-.24c-.064-.08-.139-.176-.23-.277a2.485 2.485 0 0 0-.24-.235.602.602 0 0 0-.272-.138.73.73 0 0 0-.16-.022c-.032 0-.074 0-.128-.005v.613c0 .176 0 .32.006.443.005.117.005.219.01.299a.4.4 0 0 0 .059.208.437.437 0 0 0 .17.144.851.851 0 0 0 .353.085v.053h-1.75v-.053c.091-.016.182-.037.262-.064a.408.408 0 0 0 .197-.133.272.272 0 0 0 .043-.096.953.953 0 0 0 .026-.15c.006-.053.011-.112.016-.176.006-.064.006-.122.006-.181 0-.053 0-.117.005-.208 0-.085.005-.181.005-.288 0-.101.006-.208.006-.32v-1.365c0-.064 0-.134-.006-.198a1.538 1.538 0 0 0-.037-.357.223.223 0 0 0-.053-.107.426.426 0 0 0-.182-.117 1.836 1.836 0 0 0-.25-.053v-.054h.224c.122 0 .266 0 .421-.005.155 0 .315-.005.47-.005h.383c.246 0 .464.005.651.021.192.016.363.064.517.15.16.085.288.197.39.34.096.145.149.326.149.545a.88.88 0 0 1-.272.645c-.08.08-.176.15-.288.208a2.5 2.5 0 0 1-.347.15v.015c.064.032.123.08.182.144.058.064.117.134.17.208.096.139.198.288.31.448.112.16.208.304.298.427.134.187.267.325.395.416.128.09.277.144.448.17v.049h-.005Zm-1.526-2.912a.89.89 0 0 0-.138-.486.894.894 0 0 0-.4-.336 1.2 1.2 0 0 0-.278-.085 1.842 1.842 0 0 0-.304-.027c-.074 0-.138 0-.186.006-.048.005-.086.005-.112.01-.006.022-.006.043-.011.059-.005.016-.005.037-.01.064 0 .027-.006.059-.006.107s-.005.112-.01.192c-.006.128-.006.272-.011.432 0 .16-.006.314-.006.464v.592c.15 0 .288-.006.416-.022.128-.01.256-.037.374-.08a.921.921 0 0 0 .298-.149.825.825 0 0 0 .32-.464c.027-.096.064-.176.064-.277ZM36 20.955l-.272 1.04h-3.35v-.054a1.29 1.29 0 0 0 .257-.069.47.47 0 0 0 .192-.139.269.269 0 0 0 .042-.096c.011-.042.022-.09.032-.144.011-.053.016-.112.022-.17.005-.059.005-.118.005-.176 0-.054 0-.118.005-.208.006-.091.006-.182.006-.288 0-.102.005-.208.005-.32v-1.376c0-.064 0-.134-.005-.203 0-.07-.006-.133-.011-.197a1.183 1.183 0 0 0-.027-.166.221.221 0 0 0-.053-.106.354.354 0 0 0-.176-.112 3.154 3.154 0 0 0-.24-.048v-.054h3.019l.373.902-.053.026c-.294-.368-.571-.613-.832-.741a1.45 1.45 0 0 0-.347-.075 4.96 4.96 0 0 0-.613-.032c-.075 0-.155.006-.24.011a.979.979 0 0 0-.176.021 5.445 5.445 0 0 0-.022.358c-.005.181-.01.394-.01.634v.347c0 .09 0 .17.005.23 0 .058.005.106.005.138v.059h.112c.054 0 .118 0 .187-.006l.213-.016c.07-.005.128-.016.176-.026a.937.937 0 0 0 .272-.102.563.563 0 0 0 .176-.16.9.9 0 0 0 .112-.213c.032-.08.054-.176.075-.277h.064v1.717h-.064a1.733 1.733 0 0 0-.133-.357.925.925 0 0 0-.187-.278.809.809 0 0 0-.208-.128.887.887 0 0 0-.288-.058c-.053-.006-.101-.006-.139-.011-.037-.005-.074-.005-.112-.005h-.256c-.005.053-.01.128-.01.224V20.907c0 .058 0 .112.005.165 0 .053.005.096.005.133.006.118.011.224.022.331.01.101.032.181.064.23.032.053.112.085.234.106.123.021.262.032.406.032.064 0 .138 0 .24-.005.096-.006.197-.011.304-.027a1.27 1.27 0 0 0 .325-.085c.096-.043.192-.102.283-.176.09-.075.181-.171.266-.283.086-.112.176-.245.267-.4l.048.027Z" fill="#fff"/></svg>