<svg width="40" height="40" fill="none" xmlns="http://www.w3.org/2000/svg"><path d="M7.585 20.927v-4.451h1.453v4.269c0 .3.067.374.374.374h.124l.17 1.179c-.109.015-.559.045-.83.045-.798 0-1.29-.28-1.29-1.416ZM18.704 18.21l1.13-.088.11.338c.228-.213.623-.426 1.474-.426 1.467 0 1.802 1.033 1.802 2.185 0 1.158-.374 2.179-1.89 2.179-.675 0-.991-.155-1.173-.322v1.461h-1.453V18.21Zm3.042 2.067c0-.493-.088-.924-.717-.924-.675 0-.872.343-.872.924 0 .58.145.893.872.893.613 0 .717-.404.717-.893ZM28.398 18.21l1.13-.087.146.44c.182-.249.69-.462 1.291-.483v1.398c-.966.006-1.115.295-1.115.869v1.987h-1.453v-4.123ZM31.37 18.08h.747l.234-.854 1.12-.243v1.094h.919v1.398h-.918v1.212c0 .286.045.431.498.431h.42v1.21c-.22.015-.462.021-.733.021-1.224 0-1.628-.389-1.628-1.443v-1.431h-.66V18.08ZM36 21.119h-1.21v1.209H36v-1.21ZM4 18.129h.793v-.082c0-1.055.395-1.584 1.76-1.584.358 0 .425.006.601.022v1.179h-.407c-.416 0-.504.103-.504.373v.092h.908v1.23h-.908v2.969H4.79v-2.969H4v-1.23ZM12.867 21.076c-.24.14-.365.173-.842.173-.568 0-.787-.2-.86-.544h2.79c.052-1.48-.073-2.674-1.93-2.674-1.865 0-2.257 1.027-2.257 2.173 0 1.173.392 2.206 2.257 2.206.736 0 1.2-.137 1.693-.456l-.851-.878Zm-.887-1.854c.598 0 .64.286.662.626h-1.495c.06-.4.25-.626.833-.626Z" fill="#fff"/><path d="m16.832 22.33-.71-1.017-.712 1.018h-1.622l1.519-2.167-1.38-1.954h1.638l.562.797.563-.797h1.659l-1.407 1.945 1.525 2.176h-1.635ZM23.52 20.216c0-1.392.638-2.185 2.279-2.185 1.64 0 2.273.793 2.273 2.185s-.63 2.19-2.273 2.19c-1.64.004-2.279-.795-2.279-2.19Zm3.093.046c0-.53-.13-.909-.814-.909-.68 0-.814.38-.814.909 0 .52.13.908.814.908.684 0 .814-.389.814-.908Z" fill="#fff"/></svg>