<svg width="40" height="40" fill="none" xmlns="http://www.w3.org/2000/svg"><path d="M26.105 23.544h-7.087v1.298l.035-.035h7.052v-1.263ZM19.053 22.07l.035-.035v-6.877h5.685l.066.005c.256.02.495.101.704.228.124.072.232.155.316.24.23.232.45.656.456 1.026v5.214l.001.2v-.001.035H24.87v-5.17a.483.483 0 0 0-.455-.484h-.99v5.654h-1.446v-.035h-.014l.014-.014-.014.014v-5.608l.011-.011h-.007l-.006.005h-1.43v5.65h-1.445v-.036h-.035Z" fill="#fff"/><path fill-rule="evenodd" clip-rule="evenodd" d="M18.07 22.421v-7.263h-2.742a1.609 1.609 0 0 0-1.609 1.614v3.712l.001.054a1.61 1.61 0 0 0 1.609 1.567H16.6c.004.091.004.109 0 .23l-.001.034c-.006.925-.846 1.116-1.177 1.147h-.932v1.291l.034-.034v.07h.806c1.512 0 2.74-1.085 2.74-2.422Zm-2.9-5.488c0-.267.216-.484.483-.484h.951v.001l-.008.008v4.312l.008.008v.029h-.951a.484.484 0 0 1-.484-.484v-3.39Z" fill="#fff"/><path fill-rule="evenodd" clip-rule="evenodd" d="M27.466 10H12.534A2.534 2.534 0 0 0 10 12.534v14.932c0 1.4 1.134 2.534 2.534 2.534h14.932c1.4 0 2.534-1.134 2.534-2.534V12.534c0-1.4-1.134-2.534-2.534-2.534ZM12.48 11.292a1.29 1.29 0 0 0-1.1.813 1.241 1.241 0 0 0-.072.42v14.95c0 .07.006.14.017.208a1.29 1.29 0 0 0 1.058.979c.052.006.105.01.158.01h14.87c.69 0 1.25-.56 1.25-1.25V12.54c0-.69-.56-1.248-1.25-1.248H12.54l-.06.001Z" fill="#fff"/></svg>