<svg width="40" height="40" fill="none" xmlns="http://www.w3.org/2000/svg"><path fill-rule="evenodd" clip-rule="evenodd" d="M6.96 19.651c.398.398.716 1.035.53 1.407-.477 1.035-4.14 2.813-4.458 2.494-.292-.292 1.486-3.954 2.521-4.432.372-.186 1.009.133 1.407.531ZM8.897 19.227c-.053-.24-.24-.478-.478-.505-.451-.053-1.141.743-1.088.93.053.185 1.035.503 1.406.238.186-.133.213-.451.16-.663Zm-1.38-2.177c.318.08.663.319.69.664.08.61-1.035 1.592-1.3 1.54-.266-.08-.717-1.46-.346-1.965.213-.292.637-.345.956-.239ZM17.343 20.73l-.319-.053c-.318-.052-.504-.159-.504-.318 0-.212.24-.345.584-.345.239 0 .451.08.637.186l.027.026c.053.027.08.027.132.027a.292.292 0 0 0 .266-.16l.053-.052a.258.258 0 0 0 .026-.24c-.026-.079-.08-.159-.159-.185-.265-.133-.584-.265-.982-.265-.823 0-1.38.398-1.38 1.035 0 .53.372.875 1.115.955l.318.053c.345.053.531.16.531.319s-.08.345-.61.345c-.292 0-.61-.08-.85-.24-.053-.026-.106-.052-.159-.052a.292.292 0 0 0-.265.159l-.027.026a.258.258 0 0 0-.026.24c.026.079.08.159.159.185.424.239.929.319 1.168.319.875 0 1.406-.372 1.406-1.035 0-.531-.371-.823-1.141-.93ZM27.428 21.898c-.053-.08-.16-.106-.239-.106a.493.493 0 0 0-.186.053c-.186.106-.371.16-.557.16-.53 0-.902-.399-.902-.983 0-.583.371-.981.902-.981.212 0 .371.052.557.159a.36.36 0 0 0 .425-.053l.026-.027a.4.4 0 0 0 .107-.292c0-.106-.08-.186-.16-.265a1.809 1.809 0 0 0-.929-.266c-1.008 0-1.698.69-1.698 1.699 0 1.008.69 1.698 1.698 1.698.345 0 .664-.08.93-.265.079-.053.132-.16.159-.265a.535.535 0 0 0-.08-.292l-.053.026ZM11.265 18.183a.476.476 0 0 0-.477.477c0 .266.212.451.45.451.266 0 .479-.212.479-.45 0-.266-.186-.478-.452-.478ZM11.398 19.35h-.265a.238.238 0 0 0-.239.24v2.786c0 .133.106.239.239.239h.265a.238.238 0 0 0 .24-.239v-2.787a.238.238 0 0 0-.24-.238ZM20.368 21.978a.656.656 0 0 1-.663-.664v-1.247h.663a.238.238 0 0 0 .239-.239v-.239a.238.238 0 0 0-.239-.239h-.663v-.716a.238.238 0 0 0-.24-.239h-.291a.238.238 0 0 0-.239.239v2.654c0 .77.584 1.433 1.38 1.433.08 0 .16-.027.212-.08a.301.301 0 0 0 .08-.212v-.186c.027-.133-.08-.265-.239-.265ZM13.76 19.324c-.982 0-1.513.77-1.513 1.433v1.62c0 .132.106.238.239.238h.265a.238.238 0 0 0 .24-.239v-1.513c0-.504.318-.849.742-.849.425 0 .77.372.77.876v1.513c0 .132.106.239.239.239h.265a.238.238 0 0 0 .239-.24v-1.618c.027-.69-.53-1.46-1.486-1.46ZM33.744 19.35c-.106-.026-.371-.026-.504-.026h-.026c-.743 0-1.46.61-1.46 1.46v1.619c0 .132.106.239.239.239h.265a.238.238 0 0 0 .239-.24V20.81c0-.45.319-.77.743-.77.08 0 .16 0 .239.027h.053c.16 0 .292-.106.319-.265.026-.053.026-.106.053-.16.026-.052 0-.105-.027-.159-.027-.08-.08-.106-.133-.132ZM35.761 20.067a.238.238 0 0 0 .24-.239v-.239a.238.238 0 0 0-.24-.239h-.663v-.716a.238.238 0 0 0-.24-.239h-.291a.238.238 0 0 0-.239.239v2.654c0 .77.584 1.433 1.38 1.433.08 0 .16-.027.212-.08a.302.302 0 0 0 .08-.212v-.186a.238.238 0 0 0-.239-.239.656.656 0 0 1-.663-.663v-1.274h.663ZM30.48 19.59a1.81 1.81 0 0 0-.93-.266h-.052c-.345 0-.664.08-.93.266-.45.291-.742.796-.742 1.433 0 .663.318 1.194.796 1.486.239.133.504.212.796.212.557 0 .876-.318.982-.45v.105c0 .133.106.24.239.24h.265a.238.238 0 0 0 .24-.24v-1.38c.079-.61-.213-1.114-.664-1.406Zm-.637 2.362a.945.945 0 0 1-.266.053h-.106a.944.944 0 0 1-.265-.053c-.345-.133-.584-.478-.584-.93 0-.53.318-.928.796-.981h.159c.478.053.796.45.796.982a.796.796 0 0 1-.53.929ZM23.58 19.59a1.81 1.81 0 0 0-.93-.266h-.053c-.345 0-.663.08-.929.266-.45.291-.743.796-.743 1.433 0 .663.319 1.194.796 1.486.24.133.505.212.797.212.557 0 .875-.318.982-.45v.105c0 .133.106.24.238.24h.266a.238.238 0 0 0 .239-.24v-1.38c.08-.61-.213-1.114-.664-1.406Zm-.638 2.362a.945.945 0 0 1-.265.053h-.106a.944.944 0 0 1-.266-.053c-.345-.133-.584-.478-.584-.93 0-.53.319-.928.797-.981h.159c.478.053.796.45.796.982.053.45-.186.796-.53.929Z" fill="#fff"/></svg>