<svg width="40" height="40" fill="none" xmlns="http://www.w3.org/2000/svg"><g clip-path="url(#clip0_2338_5121)" fill="#fff"><path fill-rule="evenodd" clip-rule="evenodd" d="M16.383 17.247h-1.25v6.314h1.02v-4.84l1.863 3.352h.956l1.863-3.351v4.84h1.02v-6.315h-1.223l-2.125 3.843-2.124-3.843Zm7.515 6.114c.357.209.772.313 1.244.313.782 0 1.442-.246 1.98-.74l-.54-.663c-.193.184-.4.32-.619.411a2.06 2.06 0 0 1-.785.135c-.378 0-.692-.11-.94-.331-.248-.221-.404-.524-.467-.91h3.46v-.279c0-.514-.087-.962-.262-1.344a2.059 2.059 0 0 0-.746-.89c-.324-.213-.71-.319-1.157-.319-.451 0-.85.105-1.198.316-.347.21-.619.502-.814.875a2.728 2.728 0 0 0-.293 1.286c0 .478.1.902.3 1.272.2.37.479.659.837.868Zm1.15-3.76c.345 0 .625.11.839.327.213.218.335.52.365.905h-2.48c.06-.376.203-.675.43-.898a1.16 1.16 0 0 1 .846-.334Zm3.419.09h-.938v-.834h.938v-1.38h.983v1.38h1.426v.835H29.45v2.115c0 .352.06.603.18.753.12.15.327.226.619.226.129 0 .239-.005.329-.016.09-.01.19-.025.298-.043v.826a2.96 2.96 0 0 1-.816.113c-1.062 0-1.593-.581-1.593-1.742v-2.232Zm6.568 3.87H36v-4.704h-.965v.604a1.712 1.712 0 0 0-.636-.53 1.948 1.948 0 0 0-.867-.187c-.427 0-.805.105-1.134.316-.33.21-.587.5-.774.87-.186.37-.28.796-.28 1.277 0 .478.092.903.276 1.274.183.372.435.663.756.875.32.212.687.318 1.102.318.337 0 .638-.067.902-.2.265-.134.483-.324.654-.571v.659Zm-.517-3.691c.227.154.393.366.498.633v1.412a1.326 1.326 0 0 1-.514.632 1.443 1.443 0 0 1-.812.234c-.412 0-.738-.141-.978-.424-.241-.282-.361-.666-.361-1.15 0-.481.124-.863.374-1.146.25-.282.585-.424 1.006-.424.298 0 .56.078.787.233ZM8.167 18.435c.58-.784 1.221-1.402 2.041-1.402 1.548 0 2.822 1.97 2.822 4.316 0 1.431-.616 2.328-1.722 2.328-.964 0-1.497-.542-2.452-2.14l-.49-.825a34.243 34.243 0 0 0-.332-.548l-.735 1.3c-1.046 1.827-1.634 2.213-2.451 2.213-1.137 0-1.815-.885-1.815-2.287 0-2.24 1.246-4.357 2.873-4.357.798 0 1.464.387 2.261 1.402Zm-3.278 4.16c.472 0 .765-.297 1.612-1.626 0 0 .386-.612 1.022-1.588-.67-.96-1.107-1.262-1.63-1.262-.968 0-1.779 1.663-1.779 3.29 0 .76.29 1.186.775 1.186Zm4.225-2.771.586.978c.917 1.474 1.148 1.793 1.63 1.793.504 0 .747-.43.747-1.173 0-1.947-.861-3.532-1.938-3.532-.518 0-.954.406-1.482 1.222.147.217.299.454.457.712Z"/><path d="M9.114 19.824c-1.27-2.067-2.117-2.79-3.208-2.79l-.014 1.085c.715 0 1.27.564 2.474 2.593l.074.124.674-1.012Z"/></g><defs><clipPath id="clip0_2338_5121"><path fill="#fff" d="M3 17h33v6.71H3z"/></clipPath></defs></svg>