<svg width="40" height="40" fill="none" xmlns="http://www.w3.org/2000/svg"><path fill-rule="evenodd" clip-rule="evenodd" d="M19.5 29c5.246 0 9.5-4.254 9.5-9.5S24.746 10 19.5 10 10 14.254 10 19.5s4.254 9.5 9.5 9.5Zm6.202-7.85c0 .033-.021.066-.053.079-.192.082-.846.382-1.12.762-.151.211-.295.442-.44.674-.518.831-1.044 1.676-1.972 1.676h-4.952a3.181 3.181 0 0 1-3.177-3.188v-.057c0-.048.038-.086.086-.086h2.76c.056 0 .096.052.09.105a.941.941 0 0 0 .099.53.972.972 0 0 0 .87.541h1.366v-1.065h-1.35a.087.087 0 0 1-.071-.137 10.443 10.443 0 0 0 .541-.857c.124-.217.243-.448.34-.68l.033-.08.019-.048.017-.047c.02-.057.04-.112.057-.165.012-.038.023-.077.033-.115l.018-.064c.046-.198.065-.407.065-.623 0-.086-.004-.173-.012-.259a3.343 3.343 0 0 0-.026-.277c-.008-.078-.022-.156-.036-.236l-.002-.011a4.285 4.285 0 0 0-.078-.37l-.012-.048-.005-.021a9.36 9.36 0 0 0-.422-1.244l-.015-.037a9.795 9.795 0 0 0-.13-.295l-.04-.09-.018-.038c-.02-.04-.038-.079-.055-.118l-.014-.028a2.768 2.768 0 0 0-.093-.192.9.9 0 0 1-.032-.069l-.167-.308c-.023-.041.015-.09.06-.08l1.045.284h.008l.137.038.152.043.055.016v-.622c0-.3.24-.543.538-.543a.546.546 0 0 1 .538.543v.922l.111.03s.017.008.025.014l.116.087c.023.017.046.037.071.058l.06.05c.1.082.22.186.352.306a7.847 7.847 0 0 1 .642.642c.047.053.093.107.14.163l.012.014.05.06c.035.042.07.084.102.126l.04.053c.049.066.1.134.146.204l.043.063.043.064c.074.112.138.228.2.344.027.053.054.112.079.169a2.65 2.65 0 0 1 .182.576v.007a.929.929 0 0 1 .02.148 1.613 1.613 0 0 1-.084.69 2.855 2.855 0 0 1-.287.6 1.983 1.983 0 0 1-.09.145l-.072.103-.028.04c-.044.058-.09.12-.135.174a2.811 2.811 0 0 1-.448.52c-.034.04-.07.074-.101.105l-.023.023c-.065.065-.12.116-.165.158l-.109.099a.088.088 0 0 1-.057.02h-.832v1.066h1.047a.984.984 0 0 0 .636-.235l.006-.005c.07-.062.334-.292.642-.632a.088.088 0 0 1 .04-.024l2.89-.836a.085.085 0 0 1 .108.081l-.007.002v.612Zm-11.015-1.33.042-.065 2.472-3.866a.084.084 0 0 1 .148.01c.413.926.77 2.078.603 2.794-.073.294-.266.693-.487 1.062a1.904 1.904 0 0 1-.093.158.086.086 0 0 1-.07.038H14.76a.084.084 0 0 1-.073-.13v-.001Z" fill="#fff"/></svg>