<svg width="40" height="40" fill="none" xmlns="http://www.w3.org/2000/svg"><path d="M27.535 19.054c-.481 0-.826.164-.993.476l-.091.168v-.562h-.784v3.426h.826v-2.037c0-.487.264-.767.729-.767.464 0 .692.271.692.745v2.06h.826v-2.208c-.006-.814-.454-1.3-1.205-1.3Zm-3.998 0c-.973 0-1.578.607-1.578 1.584v.48c0 .941.61 1.524 1.59 1.524.657 0 1.118-.24 1.407-.729l-.512-.293a1.144 1.144 0 0 1-.894.461c-.498 0-.793-.306-.793-.82v-.137h2.303v-.572c0-.91-.6-1.498-1.523-1.498Zm.773 1.51h-1.553v-.081c0-.565.277-.875.78-.875s.773.306.773.82v.137Zm12.612-1.99v-.657H34.07v.656h1v3.335h-1v.656h2.852v-.656h-1v-3.335h1Zm-21.626-.752c-1.274 0-2.065.795-2.065 2.072v.69c0 1.277.791 2.073 2.065 2.073s2.065-.795 2.065-2.072v-.69c.002-1.278-.791-2.073-2.065-2.073Zm1.216 2.81c0 .85-.443 1.336-1.214 1.336-.77 0-1.214-.486-1.214-1.336v-.785c0-.85.443-1.336 1.214-1.336.77 0 1.214.487 1.214 1.336v.785Zm3.442-1.578a1.17 1.17 0 0 0-1.002.48l-.09.136v-.534h-.783v4.605h.825v-1.667l.088.131a1.146 1.146 0 0 0 .97.44c.71 0 1.428-.465 1.428-1.504v-.583c-.002-.748-.446-1.504-1.438-1.504h.002Zm.61 2.045c0 .546-.322.895-.84.895-.483 0-.82-.365-.82-.882v-.507c0-.527.341-.895.828-.895.514 0 .834.343.834.895l-.001.494Zm10.448-3.182-1.666 4.645h.833l.32-.995h1.913v.01l.319.985h.838l-1.666-4.645h-.89Zm-.303 2.994.746-2.349.743 2.35H30.71ZM11.915 20.132a1.959 1.959 0 0 0-.485-.862 1.935 1.935 0 0 0-.153-1.64 2.019 2.019 0 0 0-2.196-.931 2.005 2.005 0 0 0-3.44.729 1.986 1.986 0 0 0-1.37.95 1.959 1.959 0 0 0 .274 2.35 1.935 1.935 0 0 0 .153 1.64 2.005 2.005 0 0 0 2.196.93 2.005 2.005 0 0 0 3.443-.72 1.99 1.99 0 0 0 1.625-1.678c.036-.256.02-.518-.047-.768Zm-1.493 1.871a.121.121 0 0 0-.067-.102v-1.857a.183.183 0 0 0-.091-.198l-1.822-1.03.657-.373 1.542.876a1.48 1.48 0 0 1 .554 2.034c-.174.3-.447.53-.773.65Zm-4.869-4.009a.12.12 0 0 0 .07.102v1.857a.17.17 0 0 0 .089.199l1.822 1.03-.658.373-1.549-.878a1.48 1.48 0 0 1 .226-2.683Zm5.414.922a.182.182 0 0 0-.125-.014L9.22 17.98a.23.23 0 0 0-.226 0l-1.848 1.055v-.765l1.57-.877a1.528 1.528 0 0 1 2.07.547c.174.295.238.642.181.98v-.004Zm-2.98.172.843.477v.88l-.842.465-.84-.477v-.875l.84-.47Zm.47-2.072-1.648.922a.182.182 0 0 0-.097.199v2.044l-.663-.364v-1.713a1.516 1.516 0 0 1 2.486-1.184.182.182 0 0 0-.077.096Zm-3.449 4.062c.025.012.051.02.079.02a.179.179 0 0 0 .047 0l1.622.922a.227.227 0 0 0 .226 0l1.85-1.052v.766l-1.573.87a1.53 1.53 0 0 1-2.07-.546 1.458 1.458 0 0 1-.18-.98Zm2.51 1.904 1.65-.92a.182.182 0 0 0 .095-.2v-2.045l.662.364v1.713a1.516 1.516 0 0 1-2.484 1.184.182.182 0 0 0 .077-.096Z" fill="#fff"/></svg>