<svg width="40" height="40" fill="none" xmlns="http://www.w3.org/2000/svg"><path fill-rule="evenodd" clip-rule="evenodd" d="M19.465 17.002c.172-.002.344-.002.517-.002h.362v5.107h-.881V20.142c0-1.049 0-2.099.002-3.14Zm-1.549.073a.503.503 0 0 1 .533.123c.167.172.179.46.027.645a.512.512 0 0 1-.628.12.473.473 0 0 1-.247-.338.49.49 0 0 1 .315-.55Zm12.016 4.3a.503.503 0 0 0-.533-.123.49.49 0 0 0-.315.55c.024.145.117.27.247.338a.512.512 0 0 0 .628-.12.496.496 0 0 0-.027-.645Zm-8.354-4.311a.51.51 0 0 1 .405.058c.154.098.24.273.222.456a.477.477 0 0 1-.49.442.481.481 0 0 1-.488-.395.489.489 0 0 1 .35-.561Zm14.126.02a.525.525 0 0 0-.364-.012.485.485 0 0 0-.329.482.48.48 0 0 0 .484.466.481.481 0 0 0 .504-.442.491.491 0 0 0-.295-.494Zm-29.138.708h.854V18.605h.396l.555-.001v.734h-.95V20.8c.004.201.089.4.27.502.22.129.502.112.745.07v.753c-.282.06-.581.071-.865.018a1.196 1.196 0 0 1-.736-.433c-.196-.256-.267-.57-.273-.887v-1.484a13.88 13.88 0 0 0-.505-.001v-.733h.509v-.813Zm17.564-.001h-.85l-.001.427v.388a27.441 27.441 0 0 0-.352-.001h-.162V19.338h.508c.002.282.002.565.002.848v.637c0 .283.066.586.226.823.154.233.392.393.66.468.316.087.664.077.984.012v-.755c-.21.036-.422.053-.627-.015a.549.549 0 0 1-.302-.238.727.727 0 0 1-.087-.366 208.506 208.506 0 0 0 .001-1.415h.954v-.732H24.13c-.002-.164-.001-.329-.001-.493v-.321Zm-19.887.734c.382-.019.791.045 1.134.223l.028.016c.035.018.068.036.063.082v.729a1.889 1.889 0 0 0-.92-.32c-.19-.01-.406-.012-.57.101a.28.28 0 0 0-.09.363c.057.101.192.158.296.198.123.044.247.077.37.11.208.057.414.113.617.22a.93.93 0 0 1 .427.42c.098.213.104.471.05.696a.974.974 0 0 1-.407.575c-.265.18-.588.244-.904.256-.459.014-.946-.086-1.325-.356V21a1.79 1.79 0 0 0 1.274.459c.15-.012.313-.037.43-.138a.297.297 0 0 0 .108-.264c-.006-.096-.071-.168-.148-.218a1.646 1.646 0 0 0-.372-.154l-.033-.01a10.569 10.569 0 0 0-.173-.053c-.207-.06-.409-.12-.605-.226a.943.943 0 0 1-.39-.36c-.11-.195-.122-.436-.08-.65a.985.985 0 0 1 .403-.603c.237-.168.53-.242.817-.258Zm13.773.08h-.364v3.502h.88v-1.425c0-.693 0-1.386-.002-2.079-.171.002-.343.002-.514.002Zm3.263-.001a80.623 80.623 0 0 0 .878 0V22.108h-.879v-3.503Zm4.63 0-.504.001.752 1.939c.188.484.377.968.564 1.453l-.267.645c-.11.267-.22.533-.332.8h.888l.952-2.419.952-2.418h-.352l-.554-.001-.466 1.368-.292.862a1.849 1.849 0 0 1-.076.202 964.23 964.23 0 0 0-.819-2.432h-.445Zm9.157 0h.883v1.13l.001 2.371h-.025c-.287.002-.574.005-.861-.001.003-.703.002-1.407.002-2.11v-1.39Zm-24.244-.026c.32.092.601.308.772.594l.059-.37.03-.197h.738v3.502h-.737l-.032-.203c-.016-.102-.032-.204-.046-.306a.41.41 0 0 0-.016-.051 1.366 1.366 0 0 1-1.633.568 1.623 1.623 0 0 1-.848-.727 2.063 2.063 0 0 1-.264-1.035c.004-.363.085-.718.268-1.033a1.63 1.63 0 0 1 .785-.697c.29-.12.624-.131.924-.045Zm-.336.757a.874.874 0 0 1 .671.146.952.952 0 0 1 .338.477c.08.251.083.53.004.782a.946.946 0 0 1-.38.516.882.882 0 0 1-.965-.018.985.985 0 0 1-.393-.615c-.067-.31-.016-.667.17-.93a.877.877 0 0 1 .555-.358Zm3.733-.672.001-1.661a65.24 65.24 0 0 0-.884 0v5.103c.247.003.495.002.744 0 .012-.09.027-.182.041-.274.015-.094.03-.188.043-.282a.7.7 0 0 1 .075.095c.205.282.523.478.868.532.33.057.671-.013.958-.183.338-.198.586-.518.72-.883.128-.34.151-.7.113-1.059a1.93 1.93 0 0 0-.388-.96 1.486 1.486 0 0 0-.863-.542c-.34-.068-.7-.008-.997.171a1.34 1.34 0 0 0-.43.417v-.474Zm1.3.756a.905.905 0 0 0-.588-.082.867.867 0 0 0-.559.398c-.18.29-.21.674-.11.997a.93.93 0 0 0 .51.59.881.881 0 0 0 .97-.194c.276-.284.343-.727.243-1.1a.955.955 0 0 0-.465-.609Zm17.111-.811c.285.104.526.306.683.565l.038-.248c.017-.107.034-.213.048-.32h.743V22.106l-.37.001h-.37c-.03-.187-.06-.374-.088-.562l-.053.07a1.38 1.38 0 0 1-1.463.537 1.573 1.573 0 0 1-.864-.6 1.976 1.976 0 0 1-.369-1.176 2.018 2.018 0 0 1 .325-1.15c.171-.259.413-.469.7-.592a1.416 1.416 0 0 1 1.04-.026Zm-.438.729c.177-.03.36-.02.525.053a.93.93 0 0 1 .51.614c.106.383.039.856-.255 1.142a.869.869 0 0 1-.957.17.923.923 0 0 1-.492-.54 1.311 1.311 0 0 1-.058-.612c.03-.202.113-.404.252-.555a.872.872 0 0 1 .475-.272Z" fill="#fff"/></svg>