<svg width="40" height="40" fill="none" xmlns="http://www.w3.org/2000/svg"><path fill-rule="evenodd" clip-rule="evenodd" d="M9.357 23.403c-.183-.216-.49-.252-.755-.24-.235.016-.472.085-.61.29a.574.574 0 0 0-.048.498c.09.174.285.252.463.302.066.02.137.032.21.046.135.025.273.05.383.116.13.078.095.293-.045.338-.218.065-.476.061-.64-.118a11.277 11.277 0 0 1-.005-.127 13.975 13.975 0 0 0-.467.002l.005.029c.021.138.04.265.141.375.18.204.495.254.753.247.271-.01.559-.08.712-.325.108-.18.129-.49-.058-.63-.181-.142-.38-.18-.584-.219-.084-.016-.17-.032-.254-.055-.119-.032-.253-.145-.174-.276.021-.068.106-.092.167-.109a.656.656 0 0 1 .396.037c.036.033.054.086.07.136l.022.058c.15 0 .3 0 .449-.006l-.002-.01c-.018-.133-.035-.254-.129-.36Zm8.476.42c-.104-.202-.213-.386-.414-.504a1.004 1.004 0 0 0-1.343.25 1.012 1.012 0 0 0 .156 1.356c.35.297.873.314 1.242.042.174-.119.266-.286.358-.469a7.579 7.579 0 0 0-.472-.002 2.882 2.882 0 0 0-.026.035c-.05.065-.1.128-.169.176a.526.526 0 0 1-.712-.143.772.772 0 0 1-.014-.782c.134-.24.466-.318.7-.181.086.052.143.126.203.204l.019.024c.157.001.314 0 .472-.007Zm.741-.608c.006.247.006.495.001.741.27.005.538.004.808 0a6.672 6.672 0 0 1-.002-.533l.004-.208c.136.003.273.003.409 0 .013.376.011.753.01 1.129-.002.254-.003.508 0 .761-.14 0-.28.001-.419.005a6.449 6.449 0 0 1-.003-.587l.004-.193c-.249-.005-.498-.004-.747-.004h-.062v.053c.002.243.003.486-.001.729a11.884 11.884 0 0 0-.43-.001l-.001-1.89c.143.002.286.002.43-.002Zm-11.747.003c-.268 0-.536.001-.804-.002v.84l-.001 1.05h.749c.264 0 .529 0 .794-.002-.001-.12 0-.24.001-.361H6.448v-.278l-.001-.139h.293c.22 0 .438 0 .658-.002v-.365h-.526l-.423-.001-.002-.376h.439l.657.001v-.073c0-.097 0-.194.002-.29-.239-.003-.478-.002-.718-.002Zm3.072-.002h.04l.165.001c.441.002.882.003 1.323-.002l.002.366a86.26 86.26 0 0 1-1.091 0c-.001.125-.002.25-.001.376.191.002.383.002.576.001h.37v.001l-.001.367h-.944c-.001.14-.002.278-.001.418.248-.002.496-.002.744-.002h.373v.364H9.9c.001-.63.002-1.26 0-1.89Zm-5.898 0c.186.003.371.002.557.002h.406c.182.008.364.029.497.165.155.14.16.404.117.592-.04.171-.166.256-.313.333l.006.05c.157.244.307.496.452.747-.05 0-.099 0-.148.002-.116.002-.233.004-.349-.005-.106-.133-.192-.282-.278-.431a4.572 4.572 0 0 0-.205-.333c-.104.001-.21.002-.314.001l-.001.41v.358a16.23 16.23 0 0 0-.425 0C4 24.657 4 24.207 4 23.756v-.54Zm.425.367.212-.001a4.25 4.25 0 0 1 .384.006c.048.01.086.054.121.095a.69.69 0 0 0 .037.04 9.818 9.818 0 0 0-.019.168c-.132.109-.32.1-.502.093-.08-.003-.158-.006-.23 0l-.001-.2-.002-.201Zm10.173-.365c-.202 0-.404 0-.607-.002v1.89h.14l.284.001c.004-.256.004-.511 0-.766h.064c.085 0 .17-.001.254-.003.083.127.16.256.239.386.077.13.155.259.238.385a20.715 20.715 0 0 1 .51-.003 44.396 44.396 0 0 1-.48-.794c.147-.071.274-.147.322-.314.05-.196.045-.476-.116-.624-.134-.123-.327-.153-.501-.156h-.347Zm-.03.364-.151-.001c0 .134 0 .267-.002.401l.178.001c.118.002.237.003.355-.004.073 0 .12-.038.17-.078a.94.94 0 0 1 .047-.035 2.331 2.331 0 0 1-.005-.048.893.893 0 0 0-.018-.134c-.03-.032-.065-.06-.1-.088l-.021-.018c-.151.006-.302.005-.453.004Zm-1.8-.37c.064 0 .128.002.192 0 .102.258.207.515.312.773.152.373.303.747.449 1.122l-.473-.001a18.53 18.53 0 0 1-.153-.415 51.722 51.722 0 0 0-.798 0l-.053.146c-.033.09-.066.179-.097.269h-.477l.16-.4c.198-.497.397-.996.603-1.486.11-.01.223-.009.335-.008Zm-.069.411c.085.241.17.482.27.717-.176.018-.353.017-.53.016h-.012c.086-.246.18-.49.272-.733ZM24.505 23.184c.288-.05.63-.032.865.16.11.087.14.21.173.335l.023.088c-.15.01-.301.014-.452.012l-.023-.051a.496.496 0 0 0-.07-.13c-.114-.082-.29-.076-.42-.045-.084.023-.185.09-.17.188-.01.115.125.167.214.195.076.02.153.035.23.05.213.041.426.082.597.235.215.175.142.52-.012.71-.182.18-.472.236-.72.23-.239-.004-.501-.05-.674-.23-.098-.1-.122-.227-.147-.358l-.012-.064c.148-.003.297-.004.445-.002.01.02.019.042.027.062.03.077.058.147.15.18.16.054.392.069.54-.025.08-.058.073-.137.067-.22a.909.909 0 0 1-.004-.07c-.149-.074-.305-.106-.457-.137-.202-.04-.396-.08-.556-.213-.176-.136-.17-.368-.1-.559.084-.191.286-.309.486-.34Zm-3.482.035h.004l.426-.007a54.92 54.92 0 0 1-.002 1.9l-.428-.01c.005-.627.005-1.255 0-1.883Zm1.3-.002c-.14.001-.28 0-.42-.001-.01.202-.007.403-.005.605.001.13.002.258 0 .387.002.086 0 .171 0 .256-.001.217-.003.433.015.65a.84.84 0 0 1 .136-.003c.101.003.212.007.272-.048.005-.154.004-.31.002-.464-.001-.206-.003-.412.01-.618.114.174.235.343.356.512.103.145.207.29.306.438l.03.04a.38.38 0 0 0 .124.128c.106.014.216.01.324.007l.08-.002a311.39 311.39 0 0 1 0-1.884 22.222 22.222 0 0 0-.431-.001c0 .368.001.735-.003 1.103-.2-.26-.389-.528-.577-.796a53.49 53.49 0 0 0-.22-.309Zm3.545.001h.404l1.21.001-.003.182c0 .06 0 .12-.002.18-.196.002-.392.002-.588-.002-.002.188 0 .377 0 .566.004.322.006.644-.01.964a26.075 26.075 0 0 0-.425-.004c.008-.41.005-.819.003-1.228l-.001-.298-.593.003.005-.364Zm2.015-.004h-.078c.004.4.003.8.003 1.2v.695c.147-.002.293-.003.44-.003-.008-.276-.006-.553-.004-.83.003-.35.005-.699-.012-1.046a2.384 2.384 0 0 0-.35-.016Zm.692.001a77.34 77.34 0 0 0 1.612 0c0 .123 0 .244-.002.366l-.592.002a60.73 60.73 0 0 1 0 1.521h-.002c-.136.002-.272.004-.408.008-.03-.313-.025-.63-.021-.946.003-.194.005-.388 0-.582a17.529 17.529 0 0 0-.59-.001c0-.123.001-.245.003-.368Zm2.363 0c-.14.002-.281.003-.422.003v.545c0 .242-.001.484.001.726a.63.63 0 0 0 .34.554c.277.15.628.157.916.033a.643.643 0 0 0 .399-.587c.002-.192.002-.384 0-.576 0-.231-.001-.462.004-.693-.14-.002-.28-.005-.42-.01-.011.206-.01.412-.009.617.001.175.002.349-.004.523l-.003.027c-.009.103-.02.23-.094.302-.115.126-.314.128-.467.089-.133-.04-.21-.154-.222-.29-.026-.233-.021-.47-.016-.708.004-.185.008-.37-.003-.554Zm1.568-.002c.531.01 1.066.01 1.597 0l.022.241.01.121a7.77 7.77 0 0 1-.608.002c-.003.255-.002.51-.002.765 0 .254.002.51-.001.764-.14.001-.278.004-.417.007a19.622 19.622 0 0 1-.01-1.063c.001-.156.003-.313.002-.469-.2.002-.4.002-.599 0l.006-.368Zm2.453.006c-.17 0-.34-.002-.51 0l-.001 1.884c.26.004.521.003.782.003.254 0 .507 0 .76.003l.001-.005.009-.359a27.135 27.135 0 0 0-.71-.004h-.41v-.415c.315-.002.629-.002.942 0l.007-.364c-.242-.006-.484-.005-.725-.005h-.223c0-.125 0-.25.002-.376.362.001.724.002 1.086.001v-.053c.001-.098.002-.198-.008-.296a1.364 1.364 0 0 0-.278-.016h-.028c-.232.004-.464.003-.696.002ZM24.385 17.84c0 .962-.733 1.787-1.604 1.787-.916 0-1.603-.825-1.603-1.787 0-1.008.687-1.787 1.604-1.787.87 0 1.603.78 1.603 1.787ZM22.78 15c-1.603 0-2.886 1.283-2.886 2.84 0 1.558 1.283 2.794 2.887 2.794 1.557 0 2.84-1.236 2.84-2.794a2.854 2.854 0 0 0-2.84-2.84Zm5.863 5.543V16.19h1.695v-1.008h-4.58v1.008h1.694v4.352h1.191Zm4.26-2.108h.78l-.734-1.97h-.046l-.732 1.97h.733Zm-1.099.871v.046l-.458 1.19h-1.42l2.245-5.359h1.512l2.244 5.36h-1.42l-.504-1.191v-.046h-2.199Zm-24.92 1.237V16.19h1.696v-1.008H4v1.008h1.695v4.352h1.19Zm4.765-.916c.87 0 1.603-.825 1.603-1.787 0-1.008-.733-1.787-1.603-1.787-.916 0-1.603.78-1.603 1.787 0 .962.687 1.787 1.603 1.787ZM8.764 17.84c0-1.557 1.283-2.84 2.886-2.84a2.854 2.854 0 0 1 2.84 2.84c0 1.558-1.283 2.794-2.84 2.794-1.603 0-2.886-1.236-2.886-2.794Zm9.024 2.703h-1.237V18.48l-2.107-3.298h1.42l1.329 2.245 1.282-2.245h1.42l-2.107 3.298v2.062Z" fill="#fff"/></svg>