<svg width="40" height="40" fill="none" xmlns="http://www.w3.org/2000/svg"><path d="M29.831 7.108a1.139 1.139 0 0 0-.85-.352H11.018c-.342 0-.623.115-.86.352a1.186 1.186 0 0 0-.351.86v16.89c0 .334.115.623.351.86.237.237.518.352.86.352H28.98c.334 0 .623-.115.851-.352a1.18 1.18 0 0 0 .36-.86V7.968c0-.334-.123-.614-.36-.86Zm-.21 17.75c0 .176-.061.334-.185.456a.64.64 0 0 1-.456.185H11.02a.624.624 0 0 1-.457-.185.635.635 0 0 1-.193-.456V7.968c0-.176.07-.334.193-.456a.627.627 0 0 1 .457-.185h17.96c.176 0 .326.061.456.185.124.124.185.28.185.456v16.89ZM22.15 14.41 20.237 8.6l-1.948 5.811h-6.207l5.073 3.573-1.896 5.821 4.952-3.547 5.04 3.634-1.862-5.969 4.916-3.512H22.15v-.001Zm1.827 7.682L20.21 19.37l-3.714 2.652 1.414-4.354-3.792-2.678h4.652l1.458-4.355 1.431 4.355h4.609l-3.677 2.632 1.387 4.468-.001.002Zm.799-6.584-2.783 1.984 1.054 3.37-2.844-2.054-2.79 2 1.061-3.283-2.862-2.02h3.512l1.097-3.284 1.08 3.284h3.475v.003Zm4.205 12.238H11.02c-.343 0-.624.113-.86.351a1.172 1.172 0 0 0-.352.86v4.082c0 .334.115.614.351.851.237.237.518.352.86.352H28.98c.334 0 .623-.115.851-.352a1.16 1.16 0 0 0 .36-.851v-4.081a1.18 1.18 0 0 0-.36-.86 1.139 1.139 0 0 0-.85-.352Zm.64 5.293a.605.605 0 0 1-.184.447.615.615 0 0 1-.456.194H11.02a.6.6 0 0 1-.457-.194.616.616 0 0 1-.193-.447v-4.081c0-.176.07-.335.193-.457a.627.627 0 0 1 .457-.184h17.96a.626.626 0 0 1 .64.64v4.082h.003Zm-12.289-.904h.808v.684h-.808v-.684Zm-4.485-2.843h.816v3.01l-.525.518h-.913l-.545-.518v-3.01h.817v2.862h.352v-2.862h-.002Zm3.634 0 .57.508v.624h-.816v-.474h-.334v.72l.597.051.554.509v1.07l-.537.518h-.894l-.526-.517v-.615h.808v.465h.334v-.738l-.58-.044-.562-.508v-1.063l.525-.508h.86v.002Zm-2.546 2.843h.817v.684h-.817v-.684Zm5.048-2.843-.491 3.53h.79l.07-.659h.465l.07.658h.79l-.517-3.53h-1.177Zm.421 2.211.124-1.466h.078l.15 1.466h-.352Zm8.226-2.211h.808l-.702 2.046v1.483h-.817V31.34l-.693-2.046h.808l.29 1.273h.008l.298-1.273Zm-2.696 0h.958v3.53h-.738v-2.24h-.035l-.343 2.24h-.298l-.343-2.24h-.035v2.24h-.738v-3.53h.949l.289 1.703h.07l.262-1.703h.002Zm-3.924 0v3.53h.808v-1.415h.343v1.414h.79v-1.414l-.413-.343.413-.343v-.92l-.545-.51h-1.396Zm1.15 1.457h-.343v-.799h.343v.8Z" fill="#fff"/></svg>