<?xml version="1.0" encoding="UTF-8"?><svg height="64px" width="64px" version="1.1" id="Layer_1" xmlns="http://www.w3.org/2000/svg" xmlns:xlink="http://www.w3.org/1999/xlink" viewBox="0 0 503.322 503.322" xml:space="preserve" fill="#000000" transform="matrix(-1, 0, 0, 1, 0, 0)" stroke="#000000"><g id="SVGRepo_bgCarrier" stroke-width="0"></g><g id="SVGRepo_tracerCarrier" stroke-linecap="round" stroke-linejoin="round"></g><g id="SVGRepo_iconCarrier"> <g> <path style="fill:#5050a9;" d="M207.716,469.218c4.677-1.041,7.628-5.675,6.595-10.353c-1.05-4.677-5.753-7.585-10.361-6.587 l-62.933,14.006c-0.026-0.017-0.052-0.026-0.087-0.043l-1.484,0.391l-2.829,0.625c-0.243,0.052-0.408,0.217-0.642,0.286L0,503.322 l43.286-129.848C21.33,336.532,8.678,293.419,8.678,247.322C8.678,110.731,119.409,0,256,0 c136.6,0,247.322,110.731,247.322,247.322S392.6,494.644,256,494.644c-31.267,0-61.154-5.832-88.689-16.436L207.716,469.218z"></path> <path style="fill:#FFFFFF;" d="M323.161,138.849c-31.406,0-52.884,17.807-62.82,43.39c-9.928-25.583-31.406-43.39-62.82-43.39 c-67.298,0-89.739,81.686-41.576,135.81c17.104,19.204,99.909,102.556,104.396,107.173c4.487-4.617,87.3-87.969,104.396-107.173 C412.899,220.535,390.467,138.849,323.161,138.849"></path> </g> </g></svg>