<svg width="380" height="31" fill="none" xmlns="http://www.w3.org/2000/svg"><g filter="url(#a)"><circle cx="307" cy="11" r="2" fill="url(#b)"/><circle cx="307" cy="11" r="2" fill="url(#c)"/></g><g filter="url(#d)"><circle cx="357" cy="22" r="2" fill="#fff"/></g><circle cx="218" cy="26" r="2" fill="#fff"/><circle cx="214" cy="8" r="2" fill="url(#e)"/><circle cx="214" cy="8" r="2" fill="url(#f)"/><circle cx="103" cy="17" r="2" fill="#fff"/><g filter="url(#g)"><circle cx="72" cy="23" r="2" fill="#FFE14D"/></g><g filter="url(#h)"><circle cx="131" cy="23" r="2" fill="#FFE14D"/></g><circle cx="38" cy="22" r="2" fill="#fff"/><circle cx="3" cy="21" r="3" fill="url(#i)"/><circle cx="3" cy="21" r="3" fill="url(#j)"/><circle cx="262" cy="22" r="3" fill="#FFE14D"/><circle cx="157" cy="10" r="3" fill="url(#k)"/><circle cx="157" cy="10" r="3" fill="url(#l)"/><circle cx="244" cy="2" r="2" fill="#FFE14D"/><circle cx="182" cy="20" r="1" fill="#FFE14D"/><circle cx="56" cy="12" r="1" fill="#FFE14D"/><circle cx="27" cy="8" r="1" fill="url(#m)"/><circle cx="27" cy="8" r="1" fill="url(#n)"/><g filter="url(#o)"><circle cx="287" cy="14" r="1" fill="#fff"/></g><g filter="url(#p)"><circle cx="83" cy="8" r="1" fill="#fff"/></g><circle cx="321" cy="25" r="1" fill="#FFE14D"/><circle cx="335" cy="9" r="1" fill="url(#q)"/><circle cx="335" cy="9" r="1" fill="url(#r)"/><circle cx="379" cy="25" r="1" fill="#fff"/><defs><linearGradient id="b" x1="309" y1="9" x2="305" y2="13" gradientUnits="userSpaceOnUse"><stop offset=".117" stop-color="#FF006A"/><stop offset=".406" stop-color="#E300BD"/><stop offset=".754" stop-color="#FB3"/></linearGradient><linearGradient id="c" x1="307" y1="9" x2="307" y2="13" gradientUnits="userSpaceOnUse"><stop offset=".547" stop-opacity="0"/><stop offset="1" stop-opacity=".3"/></linearGradient><linearGradient id="e" x1="216" y1="6" x2="212" y2="10" gradientUnits="userSpaceOnUse"><stop offset=".117" stop-color="#FF006A"/><stop offset=".406" stop-color="#E300BD"/><stop offset=".754" stop-color="#FB3"/></linearGradient><linearGradient id="f" x1="214" y1="6" x2="214" y2="10" gradientUnits="userSpaceOnUse"><stop offset=".547" stop-opacity="0"/><stop offset="1" stop-opacity=".3"/></linearGradient><linearGradient id="i" x1="6" y1="18" x2="0" y2="24" gradientUnits="userSpaceOnUse"><stop offset=".117" stop-color="#FF006A"/><stop offset=".406" stop-color="#E300BD"/><stop offset=".754" stop-color="#FB3"/></linearGradient><linearGradient id="j" x1="3" y1="18" x2="3" y2="24" gradientUnits="userSpaceOnUse"><stop offset=".547" stop-opacity="0"/><stop offset="1" stop-opacity=".3"/></linearGradient><linearGradient id="k" x1="160" y1="7" x2="154" y2="13" gradientUnits="userSpaceOnUse"><stop offset=".117" stop-color="#FF006A"/><stop offset=".406" stop-color="#E300BD"/><stop offset=".754" stop-color="#FB3"/></linearGradient><linearGradient id="l" x1="157" y1="7" x2="157" y2="13" gradientUnits="userSpaceOnUse"><stop offset=".547" stop-opacity="0"/><stop offset="1" stop-opacity=".3"/></linearGradient><linearGradient id="m" x1="28" y1="7" x2="26" y2="9" gradientUnits="userSpaceOnUse"><stop offset=".117" stop-color="#FF006A"/><stop offset=".406" stop-color="#E300BD"/><stop offset=".754" stop-color="#FB3"/></linearGradient><linearGradient id="n" x1="27" y1="7" x2="27" y2="9" gradientUnits="userSpaceOnUse"><stop offset=".547" stop-opacity="0"/><stop offset="1" stop-opacity=".3"/></linearGradient><linearGradient id="q" x1="336" y1="8" x2="334" y2="10" gradientUnits="userSpaceOnUse"><stop offset=".117" stop-color="#FF006A"/><stop offset=".406" stop-color="#E300BD"/><stop offset=".754" stop-color="#FB3"/></linearGradient><linearGradient id="r" x1="335" y1="8" x2="335" y2="10" gradientUnits="userSpaceOnUse"><stop offset=".547" stop-opacity="0"/><stop offset="1" stop-opacity=".3"/></linearGradient><filter id="a" x="299" y="3" width="16" height="16" filterUnits="userSpaceOnUse" color-interpolation-filters="sRGB"><feFlood flood-opacity="0" result="BackgroundImageFix"/><feBlend in="SourceGraphic" in2="BackgroundImageFix" result="shape"/><feGaussianBlur stdDeviation="3" result="effect1_foregroundBlur_550_8529"/></filter><filter id="d" x="349" y="14" width="16" height="16" filterUnits="userSpaceOnUse" color-interpolation-filters="sRGB"><feFlood flood-opacity="0" result="BackgroundImageFix"/><feBlend in="SourceGraphic" in2="BackgroundImageFix" result="shape"/><feGaussianBlur stdDeviation="3" result="effect1_foregroundBlur_550_8529"/></filter><filter id="g" x="64" y="15" width="16" height="16" filterUnits="userSpaceOnUse" color-interpolation-filters="sRGB"><feFlood flood-opacity="0" result="BackgroundImageFix"/><feBlend in="SourceGraphic" in2="BackgroundImageFix" result="shape"/><feGaussianBlur stdDeviation="3" result="effect1_foregroundBlur_550_8529"/></filter><filter id="h" x="123" y="15" width="16" height="16" filterUnits="userSpaceOnUse" color-interpolation-filters="sRGB"><feFlood flood-opacity="0" result="BackgroundImageFix"/><feBlend in="SourceGraphic" in2="BackgroundImageFix" result="shape"/><feGaussianBlur stdDeviation="3" result="effect1_foregroundBlur_550_8529"/></filter><filter id="o" x="284" y="11" width="6" height="6" filterUnits="userSpaceOnUse" color-interpolation-filters="sRGB"><feFlood flood-opacity="0" result="BackgroundImageFix"/><feBlend in="SourceGraphic" in2="BackgroundImageFix" result="shape"/><feGaussianBlur stdDeviation="1" result="effect1_foregroundBlur_550_8529"/></filter><filter id="p" x="80" y="5" width="6" height="6" filterUnits="userSpaceOnUse" color-interpolation-filters="sRGB"><feFlood flood-opacity="0" result="BackgroundImageFix"/><feBlend in="SourceGraphic" in2="BackgroundImageFix" result="shape"/><feGaussianBlur stdDeviation="1" result="effect1_foregroundBlur_550_8529"/></filter></defs></svg>