<svg width="386" height="33" fill="none" xmlns="http://www.w3.org/2000/svg"><g filter="url(#a)"><circle cx="378" cy="11" r="2" fill="url(#b)"/><circle cx="378" cy="11" r="2" fill="url(#c)"/></g><g filter="url(#d)"><circle cx="309" cy="9" r="2" fill="#fff"/></g><circle cx="218" cy="24" r="2" fill="#fff"/><circle cx="198" cy="8" r="2" fill="url(#e)"/><circle cx="198" cy="8" r="2" fill="url(#f)"/><circle cx="143" cy="24" r="3" fill="#fff"/><g filter="url(#g)"><circle cx="108" cy="19" r="2" fill="#FFE14D"/></g><g filter="url(#h)"><circle cx="47" cy="25" r="2" fill="#FFE14D"/></g><circle cx="80" cy="9" r="2" fill="#fff"/><circle cx="2" cy="21" r="2" fill="url(#i)"/><circle cx="2" cy="21" r="2" fill="url(#j)"/><circle cx="343" cy="25" r="3" fill="#FFE14D"/><circle cx="274" cy="20" r="4" fill="url(#k)"/><circle cx="274" cy="20" r="4" fill="url(#l)"/><circle cx="243" cy="2" r="2" fill="#FFE14D"/><circle cx="176" cy="22" r="1" fill="#FFE14D"/><circle cx="35" cy="10" r="1" fill="#FFE14D"/><circle cx="158" cy="10" r="1" fill="url(#m)"/><circle cx="158" cy="10" r="1" fill="url(#n)"/><g filter="url(#o)"><circle cx="269" cy="6" r="1" fill="#fff"/></g><circle cx="318" cy="27" r="1" fill="#FFE14D"/><circle cx="349" cy="6" r="1" fill="url(#p)"/><circle cx="349" cy="6" r="1" fill="url(#q)"/><circle cx="373" cy="25" r="1" fill="#fff"/><defs><linearGradient id="b" x1="380" y1="9" x2="376" y2="13" gradientUnits="userSpaceOnUse"><stop offset=".117" stop-color="#FF006A"/><stop offset=".406" stop-color="#E300BD"/><stop offset=".754" stop-color="#FB3"/></linearGradient><linearGradient id="c" x1="378" y1="9" x2="378" y2="13" gradientUnits="userSpaceOnUse"><stop offset=".547" stop-opacity="0"/><stop offset="1" stop-opacity=".3"/></linearGradient><linearGradient id="e" x1="200" y1="6" x2="196" y2="10" gradientUnits="userSpaceOnUse"><stop offset=".117" stop-color="#FF006A"/><stop offset=".406" stop-color="#E300BD"/><stop offset=".754" stop-color="#FB3"/></linearGradient><linearGradient id="f" x1="198" y1="6" x2="198" y2="10" gradientUnits="userSpaceOnUse"><stop offset=".547" stop-opacity="0"/><stop offset="1" stop-opacity=".3"/></linearGradient><linearGradient id="i" x1="4" y1="19" x2="0" y2="23" gradientUnits="userSpaceOnUse"><stop offset=".117" stop-color="#FF006A"/><stop offset=".406" stop-color="#E300BD"/><stop offset=".754" stop-color="#FB3"/></linearGradient><linearGradient id="j" x1="2" y1="19" x2="2" y2="23" gradientUnits="userSpaceOnUse"><stop offset=".547" stop-opacity="0"/><stop offset="1" stop-opacity=".3"/></linearGradient><linearGradient id="k" x1="278" y1="16" x2="270" y2="24" gradientUnits="userSpaceOnUse"><stop offset=".117" stop-color="#FF006A"/><stop offset=".406" stop-color="#E300BD"/><stop offset=".754" stop-color="#FB3"/></linearGradient><linearGradient id="l" x1="274" y1="16" x2="274" y2="24" gradientUnits="userSpaceOnUse"><stop offset=".547" stop-opacity="0"/><stop offset="1" stop-opacity=".3"/></linearGradient><linearGradient id="m" x1="159" y1="9" x2="157" y2="11" gradientUnits="userSpaceOnUse"><stop offset=".117" stop-color="#FF006A"/><stop offset=".406" stop-color="#E300BD"/><stop offset=".754" stop-color="#FB3"/></linearGradient><linearGradient id="n" x1="158" y1="9" x2="158" y2="11" gradientUnits="userSpaceOnUse"><stop offset=".547" stop-opacity="0"/><stop offset="1" stop-opacity=".3"/></linearGradient><linearGradient id="p" x1="350" y1="5" x2="348" y2="7" gradientUnits="userSpaceOnUse"><stop offset=".117" stop-color="#FF006A"/><stop offset=".406" stop-color="#E300BD"/><stop offset=".754" stop-color="#FB3"/></linearGradient><linearGradient id="q" x1="349" y1="5" x2="349" y2="7" gradientUnits="userSpaceOnUse"><stop offset=".547" stop-opacity="0"/><stop offset="1" stop-opacity=".3"/></linearGradient><filter id="a" x="370" y="3" width="16" height="16" filterUnits="userSpaceOnUse" color-interpolation-filters="sRGB"><feFlood flood-opacity="0" result="BackgroundImageFix"/><feBlend in="SourceGraphic" in2="BackgroundImageFix" result="shape"/><feGaussianBlur stdDeviation="3" result="effect1_foregroundBlur_550_8509"/></filter><filter id="d" x="301" y="1" width="16" height="16" filterUnits="userSpaceOnUse" color-interpolation-filters="sRGB"><feFlood flood-opacity="0" result="BackgroundImageFix"/><feBlend in="SourceGraphic" in2="BackgroundImageFix" result="shape"/><feGaussianBlur stdDeviation="3" result="effect1_foregroundBlur_550_8509"/></filter><filter id="g" x="100" y="11" width="16" height="16" filterUnits="userSpaceOnUse" color-interpolation-filters="sRGB"><feFlood flood-opacity="0" result="BackgroundImageFix"/><feBlend in="SourceGraphic" in2="BackgroundImageFix" result="shape"/><feGaussianBlur stdDeviation="3" result="effect1_foregroundBlur_550_8509"/></filter><filter id="h" x="39" y="17" width="16" height="16" filterUnits="userSpaceOnUse" color-interpolation-filters="sRGB"><feFlood flood-opacity="0" result="BackgroundImageFix"/><feBlend in="SourceGraphic" in2="BackgroundImageFix" result="shape"/><feGaussianBlur stdDeviation="3" result="effect1_foregroundBlur_550_8509"/></filter><filter id="o" x="266" y="3" width="6" height="6" filterUnits="userSpaceOnUse" color-interpolation-filters="sRGB"><feFlood flood-opacity="0" result="BackgroundImageFix"/><feBlend in="SourceGraphic" in2="BackgroundImageFix" result="shape"/><feGaussianBlur stdDeviation="1" result="effect1_foregroundBlur_550_8509"/></filter></defs></svg>