<svg width="360" height="530" fill="none" xmlns="http://www.w3.org/2000/svg"><mask id="a" style="mask-type:alpha" maskUnits="userSpaceOnUse" x="0" y="0" width="360" height="530"><path fill="#C4C4C4" d="M0 0h360v530H0z"/></mask><g mask="url(#a)"><path opacity=".07" transform="rotate(-30.008 -130.422 671.881) skewX(-.017)" fill="url(#b)" d="M0 0h73.654v736.664H0z"/><path opacity=".07" transform="rotate(-30.008 -87.944 513.4) skewX(-.017)" fill="url(#c)" d="M0 0h73.654v736.664H0z"/><path opacity=".07" transform="rotate(-30.008 -45.467 354.917) skewX(-.017)" fill="url(#d)" d="M0 0h73.654v736.664H0z"/><path opacity=".07" transform="rotate(-30.008 -2.99 196.435) skewX(-.017)" fill="url(#e)" d="M0 0h73.654v736.664H0z"/><path opacity=".07" transform="rotate(-30.008 39.488 37.954) skewX(-.017)" fill="url(#f)" d="M0 0h73.654v736.664H0z"/><path opacity=".07" transform="rotate(-30.008 81.965 -120.529) skewX(-.017)" fill="url(#g)" d="M0 0h73.654v736.664H0z"/><path opacity=".07" transform="rotate(-30.008 124.442 -279.01) skewX(-.017)" fill="url(#h)" d="M0 0h73.654v736.664H0z"/><path opacity=".07" transform="rotate(-30.008 166.92 -437.492) skewX(-.017)" fill="url(#i)" d="M0 0h73.654v736.664H0z"/><path opacity=".07" transform="rotate(-30.008 209.397 -595.974) skewX(-.017)" fill="url(#j)" d="M0 0h73.654v736.664H0z"/></g><path transform="matrix(1 0 0 -1 0 530)" fill="url(#k)" d="M0 0h360v530H0z"/><defs><linearGradient id="b" x1="0" y1="327.815" x2="36.827" y2="327.815" gradientUnits="userSpaceOnUse"><stop stop-color="#fff"/><stop offset="1" stop-color="#fff" stop-opacity="0"/></linearGradient><linearGradient id="c" x1="0" y1="327.815" x2="36.827" y2="327.815" gradientUnits="userSpaceOnUse"><stop stop-color="#fff"/><stop offset="1" stop-color="#fff" stop-opacity="0"/></linearGradient><linearGradient id="d" x1="0" y1="327.815" x2="36.827" y2="327.815" gradientUnits="userSpaceOnUse"><stop stop-color="#fff"/><stop offset="1" stop-color="#fff" stop-opacity="0"/></linearGradient><linearGradient id="e" x1="0" y1="327.815" x2="36.827" y2="327.815" gradientUnits="userSpaceOnUse"><stop stop-color="#fff"/><stop offset="1" stop-color="#fff" stop-opacity="0"/></linearGradient><linearGradient id="f" x1="0" y1="327.815" x2="36.827" y2="327.815" gradientUnits="userSpaceOnUse"><stop stop-color="#fff"/><stop offset="1" stop-color="#fff" stop-opacity="0"/></linearGradient><linearGradient id="g" x1="0" y1="327.815" x2="36.827" y2="327.815" gradientUnits="userSpaceOnUse"><stop stop-color="#fff"/><stop offset="1" stop-color="#fff" stop-opacity="0"/></linearGradient><linearGradient id="h" x1="0" y1="327.815" x2="36.827" y2="327.815" gradientUnits="userSpaceOnUse"><stop stop-color="#fff"/><stop offset="1" stop-color="#fff" stop-opacity="0"/></linearGradient><linearGradient id="i" x1="0" y1="327.815" x2="36.827" y2="327.815" gradientUnits="userSpaceOnUse"><stop stop-color="#fff"/><stop offset="1" stop-color="#fff" stop-opacity="0"/></linearGradient><linearGradient id="j" x1="0" y1="327.815" x2="36.827" y2="327.815" gradientUnits="userSpaceOnUse"><stop stop-color="#fff"/><stop offset="1" stop-color="#fff" stop-opacity="0"/></linearGradient><radialGradient id="k" cx="0" cy="0" r="1" gradientUnits="userSpaceOnUse" gradientTransform="matrix(0 265 -180 0 180 265)"><stop offset=".319" stop-opacity="0"/><stop offset="1"/></radialGradient></defs></svg>