<svg width="1920" height="1000" fill="none" xmlns="http://www.w3.org/2000/svg"><mask id="a" style="mask-type:alpha" maskUnits="userSpaceOnUse" x="0" y="0" width="1920" height="1000"><path fill="#C4C4C4" d="M0 0h1920v1000H0z"/></mask><g mask="url(#a)"><path opacity=".07" transform="rotate(-30 -894 -140)" fill="url(#b)" d="M-894-140h160v1600h-160z"/><path opacity=".07" transform="rotate(-30 -709.436 -140)" fill="url(#c)" d="M-709.436-140h160v1600h-160z"/><path opacity=".07" transform="rotate(-30 -524.871 -140)" fill="url(#d)" d="M-524.871-140h160v1600h-160z"/><path opacity=".07" transform="rotate(-30 -340.307 -140)" fill="url(#e)" d="M-340.307-140h160v1600h-160z"/><path opacity=".07" transform="rotate(-30 -155.742 -140)" fill="url(#f)" d="M-155.742-140h160v1600h-160z"/><path opacity=".07" transform="rotate(-30 28.822 -140)" fill="url(#g)" d="M28.822-140h160v1600h-160z"/><path opacity=".07" transform="rotate(-30 213.387 -140)" fill="url(#h)" d="M213.387-140h160v1600h-160z"/><path opacity=".07" transform="rotate(-30 397.951 -140)" fill="url(#i)" d="M397.951-140h160v1600h-160z"/><path opacity=".07" transform="rotate(-30 582.516 -140)" fill="url(#j)" d="M582.516-140h160v1600h-160z"/><path opacity=".07" transform="rotate(-30 767.08 -140)" fill="url(#k)" d="M767.08-140h160v1600h-160z"/><path opacity=".07" transform="rotate(-30 951.645 -140)" fill="url(#l)" d="M951.645-140h160v1600h-160z"/><path opacity=".07" transform="rotate(-30 1136.21 -140)" fill="url(#m)" d="M1136.21-140h160v1600h-160z"/><path opacity=".07" transform="rotate(-30 1320.77 -140)" fill="url(#n)" d="M1320.77-140h160v1600h-160z"/><path opacity=".07" transform="rotate(-30 1505.34 -140)" fill="url(#o)" d="M1505.34-140h160v1600h-160z"/><path opacity=".07" transform="rotate(-30 1689.9 -140)" fill="url(#p)" d="M1689.9-140h160v1600h-160z"/><path opacity=".07" transform="rotate(-30 1874.47 -140)" fill="url(#q)" d="M1874.47-140h160v1600h-160z"/></g><path fill="url(#r)" d="M0 0h1920v1000H0z"/><defs><linearGradient id="b" x1="-894" y1="572" x2="-814" y2="572" gradientUnits="userSpaceOnUse"><stop stop-color="#fff"/><stop offset="1" stop-color="#fff" stop-opacity="0"/></linearGradient><linearGradient id="c" x1="-709.436" y1="572" x2="-629.436" y2="572" gradientUnits="userSpaceOnUse"><stop stop-color="#fff"/><stop offset="1" stop-color="#fff" stop-opacity="0"/></linearGradient><linearGradient id="d" x1="-524.871" y1="572" x2="-444.871" y2="572" gradientUnits="userSpaceOnUse"><stop stop-color="#fff"/><stop offset="1" stop-color="#fff" stop-opacity="0"/></linearGradient><linearGradient id="e" x1="-340.307" y1="572" x2="-260.307" y2="572" gradientUnits="userSpaceOnUse"><stop stop-color="#fff"/><stop offset="1" stop-color="#fff" stop-opacity="0"/></linearGradient><linearGradient id="f" x1="-155.742" y1="572" x2="-75.742" y2="572" gradientUnits="userSpaceOnUse"><stop stop-color="#fff"/><stop offset="1" stop-color="#fff" stop-opacity="0"/></linearGradient><linearGradient id="g" x1="28.822" y1="572" x2="108.822" y2="572" gradientUnits="userSpaceOnUse"><stop stop-color="#fff"/><stop offset="1" stop-color="#fff" stop-opacity="0"/></linearGradient><linearGradient id="h" x1="213.387" y1="572" x2="293.387" y2="572" gradientUnits="userSpaceOnUse"><stop stop-color="#fff"/><stop offset="1" stop-color="#fff" stop-opacity="0"/></linearGradient><linearGradient id="i" x1="397.951" y1="572" x2="477.951" y2="572" gradientUnits="userSpaceOnUse"><stop stop-color="#fff"/><stop offset="1" stop-color="#fff" stop-opacity="0"/></linearGradient><linearGradient id="j" x1="582.516" y1="572" x2="662.516" y2="572" gradientUnits="userSpaceOnUse"><stop stop-color="#fff"/><stop offset="1" stop-color="#fff" stop-opacity="0"/></linearGradient><linearGradient id="k" x1="767.08" y1="572" x2="847.08" y2="572" gradientUnits="userSpaceOnUse"><stop stop-color="#fff"/><stop offset="1" stop-color="#fff" stop-opacity="0"/></linearGradient><linearGradient id="l" x1="951.645" y1="572" x2="1031.64" y2="572" gradientUnits="userSpaceOnUse"><stop stop-color="#fff"/><stop offset="1" stop-color="#fff" stop-opacity="0"/></linearGradient><linearGradient id="m" x1="1136.21" y1="572" x2="1216.21" y2="572" gradientUnits="userSpaceOnUse"><stop stop-color="#fff"/><stop offset="1" stop-color="#fff" stop-opacity="0"/></linearGradient><linearGradient id="n" x1="1320.77" y1="572" x2="1400.77" y2="572" gradientUnits="userSpaceOnUse"><stop stop-color="#fff"/><stop offset="1" stop-color="#fff" stop-opacity="0"/></linearGradient><linearGradient id="o" x1="1505.34" y1="572" x2="1585.34" y2="572" gradientUnits="userSpaceOnUse"><stop stop-color="#fff"/><stop offset="1" stop-color="#fff" stop-opacity="0"/></linearGradient><linearGradient id="p" x1="1689.9" y1="572" x2="1769.9" y2="572" gradientUnits="userSpaceOnUse"><stop stop-color="#fff"/><stop offset="1" stop-color="#fff" stop-opacity="0"/></linearGradient><linearGradient id="q" x1="1874.47" y1="572" x2="1954.47" y2="572" gradientUnits="userSpaceOnUse"><stop stop-color="#fff"/><stop offset="1" stop-color="#fff" stop-opacity="0"/></linearGradient><radialGradient id="r" cx="0" cy="0" r="1" gradientUnits="userSpaceOnUse" gradientTransform="matrix(0 692 -960 0 960 341)"><stop offset=".107" stop-opacity="0"/><stop offset=".76"/></radialGradient></defs></svg>